<svg width="644" height="257" viewBox="0 0 644 257" fill="none" xmlns="http://www.w3.org/2000/svg">
<g clip-path="url(#clip0_1577_4632)">
<rect width="644" height="257" rx="4" fill="#273AA4"/>
<rect x="33" y="111" width="359" height="166" rx="10" fill="#F8F8F8"/>
<rect x="62.187" y="170.76" width="138.152" height="23.24" rx="4" fill="#D9D9D9"/>
<rect x="62.187" y="211.707" width="300.626" height="23.24" rx="4" fill="#D9D9D9"/>
<rect x="224.661" y="170.76" width="138.152" height="23.24" rx="4" fill="#D9D9D9"/>
<path opacity="0.6" d="M458.86 251.758C471.31 334.445 517.189 285.7 558.503 257.634C599.817 229.57 613.691 199.04 590.569 170.22C559.462 131.459 525.982 96.7809 484.682 124.836C443.382 152.892 452.34 208.366 458.86 251.758Z" fill="url(#paint0_linear_1577_4632)" fill-opacity="0.3"/>
<mask id="mask0_1577_4632" style="mask-type:luminance" maskUnits="userSpaceOnUse" x="466" y="138" width="128" height="139">
<path d="M593.114 138.833H466.016V276.761H593.114V138.833Z" fill="white"/>
</mask>
<g mask="url(#mask0_1577_4632)">
<path d="M547.05 176.453C547.05 176.453 569.015 158.301 579.242 174.38C589.469 190.458 610.144 241.481 566.147 248.306C522.151 255.129 469.484 254.393 487.692 234.367C505.9 214.342 531.333 186.087 547.05 176.453Z" fill="#DEAF2A"/>
<path d="M565.347 167.868C565.347 167.868 589.046 190.012 567.837 214.298C546.627 238.583 505.877 247.503 492.76 228.882C492.672 228.882 535.823 168.247 565.347 167.868Z" fill="#FDD247"/>
<path d="M535.956 175.115C535.956 175.115 528.664 199.869 519.437 195.186C514.046 192.468 509.323 188.583 505.61 183.813L507.21 181.583C507.21 181.583 513.369 190.012 520.016 186.176C522.906 184.504 527.486 172.016 527.486 172.016L535.956 175.115Z" fill="#F79C73"/>
<path d="M544.404 202.144L517.304 204.374L485.602 208.945C485.602 208.945 478.643 209.169 479.11 227.008L478.643 259.21H482.289C482.289 259.21 491.315 239.765 492.894 223.686C492.894 223.686 518.505 222.259 527.975 218.043C537.446 213.829 546.538 203.326 544.404 202.144Z" fill="#5AA09F"/>
<path d="M552.208 203.66C552.208 203.66 517.281 208.12 494.983 217.263C490.537 219.137 488.314 218.936 493.894 236.776L502.387 269.825L506.033 268.71C506.033 268.71 508.589 247.57 506.21 230.665C506.21 230.665 531.91 231.937 543.226 227.41C553.275 223.396 555.676 208.588 552.208 203.66Z" fill="#8BC4C5"/>
<path d="M475.575 257.649C475.575 257.649 475.575 260.994 469.795 263.314C464.015 265.633 465.349 268.822 470.306 267.774C475.264 266.726 487.958 266.814 485.868 263.179C485.259 262.21 484.875 261.115 484.744 259.977C484.613 258.838 484.739 257.685 485.113 256.601L475.575 257.649Z" fill="#F15A67"/>
<path d="M524.773 174.223L536.179 177.814C536.179 177.814 541.914 161.735 535.49 161.178C529.065 160.62 526.486 170.053 524.773 174.223Z" fill="#FDD247"/>
<path d="M583.999 176.476C583.999 176.476 591.825 180.668 589.424 185.396C587.023 190.124 578.597 195.208 581.287 203.236C583.977 211.264 592.958 215.792 585.333 218.11C577.707 220.43 556.009 203.192 554.52 200.716C553.031 198.241 569.504 178.304 569.504 178.304L583.999 176.476Z" fill="#312E3F"/>
<path d="M549.073 139.747C549.073 139.747 554.23 142.267 554.23 146.326C554.23 150.384 560.523 157.03 565.791 158.412C598.338 166.954 571.883 166.931 585.799 178.193C591.714 182.965 572.016 175.963 563.056 199.958C561.545 204.017 557.276 188.072 556.387 185.641C555.498 183.211 546.938 170.566 546.182 166.463C545.427 162.36 540.358 163.72 539.046 160.709C537.735 157.699 539.713 154.019 539.157 152.302C538.324 150.034 538.329 147.541 539.169 145.275C540.009 143.009 541.629 141.119 543.737 139.948C547.205 137.584 549.073 139.747 549.073 139.747Z" fill="#312E3F"/>
<path d="M553.342 160.107C553.342 160.107 566.169 164.813 562.501 181.203C560.021 191.847 556.63 202.255 552.364 212.312C552.364 212.312 537.602 211.376 529.909 206.448C529.909 206.515 516.437 147.552 553.342 160.107Z" fill="#F15A67"/>
<path d="M549.317 151.031L551.097 159.951C551.097 159.951 540.67 167.221 541.847 162.872C542.749 158.877 543.425 154.835 543.871 150.763L549.317 151.031Z" fill="#F79C73"/>
<path d="M549.785 140.929C550.363 142.757 551.518 146.326 550.474 148.622C549.429 150.919 547.828 155.112 545.272 155.982C542.715 156.851 542.181 153.752 541.692 152.748C541.204 151.745 540.314 141.598 544.471 139.502C547.561 137.807 549.34 139.524 549.785 140.929Z" fill="#F79C73"/>
<path d="M545.85 141.821C545.85 141.821 547.94 147.217 551.208 148.511C551.208 148.511 552.119 140.215 547.45 138.922C547.45 138.922 541.803 138.231 540.937 145.768C540.892 145.723 545.339 144.497 545.85 141.821Z" fill="#312E3F"/>
<path d="M551.829 211.108L524.418 210.551L524.462 207.919L551.896 208.499L551.829 211.108Z" fill="#59599F"/>
<path d="M526.597 190.503C526.597 190.503 523.396 186.444 519.927 186.043C516.459 185.641 516.104 187.537 515.636 189.856C515.169 192.175 520.527 191.462 522.639 192.621C524.751 193.781 526.597 190.503 526.597 190.503Z" fill="#F79C73"/>
<path d="M481.289 183.411L519.482 184.214L526.798 210.596L488.647 209.771L481.289 183.411Z" fill="#59599F"/>
<path d="M505.922 198.977C505.908 199.643 505.698 200.29 505.319 200.836C504.939 201.382 504.406 201.803 503.788 202.046C503.169 202.288 502.493 202.341 501.845 202.198C501.196 202.055 500.605 201.723 500.145 201.243C499.685 200.763 499.377 200.156 499.26 199.501C499.144 198.845 499.224 198.17 499.49 197.56C499.756 196.949 500.196 196.432 500.756 196.073C501.315 195.714 501.967 195.53 502.631 195.543C503.072 195.551 503.507 195.647 503.911 195.824C504.315 196.002 504.68 196.257 504.986 196.576C505.291 196.895 505.531 197.271 505.692 197.683C505.852 198.095 505.93 198.535 505.922 198.977Z" fill="#EAEAEA"/>
<path d="M559.255 175.249C559.255 175.249 562.746 204.24 550.963 203.103C539.179 201.965 522.728 192.666 522.728 192.666L524.107 189.276C524.107 189.276 546.339 200.761 551.518 193.959C553.741 191.016 551.074 176.119 551.074 176.119L559.255 175.249Z" fill="#F79C73"/>
<path d="M548.429 182.408L560.323 183.857C560.323 183.857 562.813 167.043 556.409 167.667C550.007 168.292 549.273 177.948 548.429 182.408Z" fill="#FDD247"/>
</g>
<mask id="mask1_1577_4632" style="mask-type:luminance" maskUnits="userSpaceOnUse" x="438" y="142" width="38" height="28">
<path d="M438.504 142.984H475.259V169.476H438.504V142.984Z" fill="white"/>
</mask>
<g mask="url(#mask1_1577_4632)">
<path d="M438.504 155.806C450.627 155.578 459.696 161.978 463.072 169.477C466.431 168.121 470.745 167.821 475.202 169.441C475.856 160.506 470.864 149.845 460.365 142.984C451.65 144.893 444.026 149.455 438.504 155.806Z" fill="#A8C05D"/>
<path d="M440.301 154.682C451.788 155.181 460.244 161.49 463.491 168.758C466.603 167.646 470.421 167.399 474.397 168.599C474.543 160.024 469.473 150.132 459.439 143.777C451.968 145.618 445.363 149.446 440.301 154.682Z" fill="#507837"/>
<path d="M458.951 148.285C459.901 148.929 461.467 149.332 463.196 149.588C467.307 153.297 470.112 157.704 471.543 162.149C470.744 162.624 470.45 163.437 470.703 164.367C470.952 165.288 471.144 166.225 471.277 167.17C469.424 166.951 467.548 167.02 465.715 167.374C465.395 166.51 465.02 165.668 464.591 164.852C464.176 164.049 463.235 163.454 462.114 163.267C459.471 159.656 455.522 156.515 450.525 154.517C450.82 153.673 450.556 152.926 449.53 152.555C448.138 152.061 446.715 151.661 445.269 151.359C448.257 149.104 451.556 147.291 455.063 145.973C456.407 146.661 457.706 147.433 458.951 148.285Z" fill="#A8C05D"/>
<path d="M459.393 153.502C455.417 154.853 454.373 157.435 456.121 158.555C457.891 159.719 461.403 159.697 464.751 159.141C468.074 158.558 470.42 157.262 469.285 155.331C468.182 153.4 463.363 152.136 459.393 153.502Z" fill="#507837"/>
<path d="M465.636 161.291C464.404 161.491 463.898 162.356 464.365 163.117C464.833 163.879 466.005 164.336 467.113 164.226C468.22 164.116 468.928 163.43 468.589 162.57C468.251 161.71 466.868 161.09 465.636 161.291Z" fill="#507837"/>
<path d="M453.362 150.288C451.727 151.08 451.348 152.158 452.347 152.602C453.345 153.045 455.286 152.852 456.836 152.254C458.385 151.656 459.022 150.737 458.107 150.099C457.193 149.46 454.996 149.494 453.362 150.288Z" fill="#507837"/>
</g>
<path d="M468.458 138.39L467.351 140.407L465.327 141.511L467.351 142.615L468.458 144.633L469.565 142.615L471.59 141.511L469.565 140.407L468.458 138.39Z" fill="#FAFBE7"/>
<path d="M449.065 139.542L448.454 140.654L447.338 141.263L448.454 141.872L449.065 142.984L449.675 141.872L450.792 141.263L449.675 140.654L449.065 139.542Z" fill="#FAFBE7"/>
<mask id="mask2_1577_4632" style="mask-type:luminance" maskUnits="userSpaceOnUse" x="476" y="95" width="59" height="52">
<path d="M476.122 127.226L490.024 95.5718L534.479 114.973L520.577 146.627L476.122 127.226Z" fill="white"/>
</mask>
<g mask="url(#mask2_1577_4632)">
<path d="M517.906 120.182C508.777 124.415 494.133 122.871 483.33 110.814C481.997 116.696 481.854 123.199 483.168 129.842C499.044 139.437 516.582 137.749 527.435 130.131C523.044 127.456 519.862 123.92 517.906 120.182Z" fill="#A8C05D"/>
<path d="M517.686 121.134C508.622 125.108 494.605 123.676 483.801 112.641C482.854 117.833 482.835 123.47 483.924 129.223C498.916 138.164 515.39 136.895 525.949 130.085C522.251 127.564 519.49 124.432 517.686 121.134Z" fill="#507837"/>
<path d="M517.877 130.591C516.646 131.011 515.823 131.722 515.547 132.59C509 134.267 501.396 134.16 493.765 131.649C492.456 130.294 490.876 129.055 489.301 128.295C487.682 127.52 486.112 126.646 484.6 125.679C484.28 123 484.202 120.296 484.37 117.599C485.66 118.677 487.018 119.671 488.437 120.574C489.78 121.425 490.969 121.447 491.732 120.921C498.156 124.331 504.853 125.392 510.694 124.694C511.712 125.284 512.969 125.517 514.072 125.248C515.496 124.907 516.892 124.451 518.245 123.886C519.436 125.636 520.831 127.237 522.401 128.655C520.944 129.415 519.431 130.062 517.877 130.591Z" fill="#A8C05D"/>
<path d="M508.512 129.211C507.042 126.457 504.297 124.155 501.608 123.604C498.953 123.064 496.926 124.788 497.811 128.096C498.672 131.402 502.687 134.53 505.939 134.499C509.192 134.468 509.964 131.938 508.512 129.211Z" fill="#507837"/>
<path d="M494.001 126.452C493.725 125.139 492.496 123.633 491.169 122.944C489.841 122.254 488.816 122.709 488.953 124.112C489.09 125.515 490.463 127.259 491.923 127.853C493.383 128.446 494.275 127.761 494.001 126.452Z" fill="#507837"/>
<path d="M515.721 127.619C515.065 126.694 513.7 126.168 512.517 126.375C511.335 126.581 510.731 127.52 511.308 128.551C511.884 129.582 513.489 130.23 514.747 129.91C516.006 129.59 516.375 128.537 515.721 127.619Z" fill="#507837"/>
<g style="mix-blend-mode:multiply" opacity="0.5">
<path d="M526.038 131.057C514.138 135.748 497.616 133.935 484.337 122.312C484.264 119.08 484.52 115.847 485.101 112.663C495.69 123.018 509.267 124.188 517.906 120.182C519.862 123.92 523.045 127.457 527.433 130.133C526.98 130.451 526.514 130.757 526.038 131.057Z" fill="#818181"/>
</g>
<path d="M520.816 118.354C510.96 120.289 497.127 115.288 489.518 100.974C486.829 106.377 485.144 112.669 484.838 119.445C497.951 132.573 515.359 135.123 527.691 130.309C524.073 126.656 521.827 122.456 520.816 118.354Z" fill="#A8C05D"/>
<path d="M520.373 119.222C510.642 120.92 497.391 116.176 489.539 102.856C487.386 107.681 486.029 113.159 485.717 119.015C498.13 131.299 514.404 133.999 526.26 129.901C523.275 126.572 521.347 122.867 520.373 119.222Z" fill="#507837"/>
<path d="M518.319 128.472C517.026 128.586 516.059 129.081 515.584 129.859C508.837 129.925 501.491 128.003 494.688 123.737C493.741 122.105 492.504 120.519 491.156 119.407C489.77 118.266 488.454 117.039 487.218 115.736C487.543 113.054 488.111 110.407 488.913 107.825C489.91 109.183 490.993 110.475 492.155 111.693C493.255 112.842 494.407 113.149 495.269 112.817C500.687 117.669 506.924 120.301 512.754 121.019C513.601 121.836 514.766 122.363 515.898 122.366C517.361 122.373 518.821 122.264 520.268 122.037C521.007 124.023 521.98 125.912 523.166 127.665C521.572 128.058 519.951 128.327 518.319 128.472Z" fill="#A8C05D"/>
<path d="M509.565 124.888C508.793 121.857 506.678 118.963 504.203 117.784C501.753 116.62 499.382 117.816 499.453 121.245C499.503 124.667 502.652 128.67 505.813 129.418C508.973 130.165 510.324 127.889 509.565 124.888Z" fill="#507837"/>
<path d="M496.148 118.74C496.193 117.395 495.359 115.639 494.235 114.649C493.112 113.66 492.009 113.86 491.809 115.257C491.609 116.654 492.521 118.676 493.8 119.606C495.078 120.536 496.101 120.072 496.148 118.74Z" fill="#507837"/>
<path d="M516.933 125.064C516.517 124.006 515.317 123.169 514.122 123.087C512.926 123.005 512.117 123.773 512.432 124.914C512.747 126.055 514.15 127.065 515.444 127.059C516.737 127.052 517.346 126.117 516.933 125.064Z" fill="#507837"/>
<g style="mix-blend-mode:multiply" opacity="0.5">
<path d="M485.702 116.503C486.273 111.365 487.691 106.352 489.899 101.67C497.585 115.448 511.123 120.255 520.817 118.352C521.825 122.453 524.069 126.651 527.685 130.303C515.057 134.253 497.876 130.51 485.702 116.503Z" fill="#818181"/>
</g>
<path d="M522.244 117.599C512.242 118.446 499.046 111.96 493.043 96.8895C489.784 101.97 487.427 108.044 486.386 114.751C497.984 129.246 514.999 133.685 527.771 130.245C524.573 126.217 522.799 121.792 522.244 117.599Z" fill="#A8C05D"/>
<path d="M521.708 118.416C511.856 119.042 499.21 112.874 492.861 98.7699C490.198 103.334 488.253 108.637 487.31 114.427C498.305 128.003 514.178 132.469 526.398 129.688C523.793 126.045 522.28 122.144 521.708 118.416Z" fill="#507837"/>
<path d="M518.66 127.391C517.36 127.362 516.346 127.75 515.788 128.471C509.079 127.799 501.991 125.084 495.698 120.096C494.937 118.371 493.881 116.659 492.665 115.401C491.411 114.115 490.237 112.752 489.149 111.321C489.765 108.69 490.618 106.118 491.698 103.638C492.539 105.096 493.472 106.499 494.493 107.836C495.462 109.1 496.568 109.528 497.468 109.295C502.323 114.715 508.236 118.017 513.947 119.367C514.7 120.273 515.794 120.924 516.924 121.052C518.375 121.22 519.839 121.271 521.3 121.203C521.819 123.261 522.579 125.248 523.565 127.123C521.939 127.338 520.298 127.428 518.66 127.391Z" fill="#A8C05D"/>
<path d="M510.355 122.872C509.918 119.772 508.132 116.662 505.801 115.218C503.495 113.792 501.009 114.723 500.708 118.142C500.384 121.551 503.078 125.877 506.136 126.966C509.194 128.056 510.784 125.939 510.355 122.872Z" fill="#507837"/>
<path d="M497.698 115.284C497.889 113.952 497.252 112.113 496.243 111.007C495.235 109.901 494.118 109.978 493.768 111.346C493.417 112.714 494.103 114.824 495.268 115.887C496.433 116.949 497.509 116.61 497.698 115.284Z" fill="#507837"/>
<path d="M517.656 123.851C517.359 122.752 516.256 121.786 515.077 121.578C513.897 121.37 513.013 122.042 513.201 123.211C513.388 124.38 514.673 125.539 515.959 125.673C517.245 125.808 517.951 124.944 517.656 123.851Z" fill="#507837"/>
</g>
<path d="M526.23 113.049L525.123 115.067L523.099 116.171L525.123 117.275L526.23 119.292L527.337 117.275L529.361 116.171L527.337 115.067L526.23 113.049Z" fill="#FAFBE7"/>
<path d="M477.868 103.557L476.542 105.987L474.104 107.31L476.542 108.641L477.868 111.063L479.203 108.641L481.633 107.31L479.203 105.987L477.868 103.557Z" fill="#FAFBE7"/>
<g clip-path="url(#clip1_1577_4632)">
<mask id="mask3_1577_4632" style="mask-type:luminance" maskUnits="userSpaceOnUse" x="33" y="37" width="188" height="37">
<path d="M221 37H33V74H221V37Z" fill="white"/>
</mask>
<g mask="url(#mask3_1577_4632)">
<path d="M91.4757 64.4517L85.1889 48.0849H80.8345L74.5232 64.4517H78.4861L79.5135 61.6789H86.5099L87.5128 64.4517H91.4757ZM85.5558 58.6117H80.4676L83.0116 51.5693L85.5558 58.6117ZM111.114 64.4517V55.888C111.114 53.4587 109.817 52.3055 107.64 52.3055C105.83 52.3055 104.264 53.385 103.579 54.4647C103.139 53.1152 102.038 52.3055 100.301 52.3055C98.491 52.3055 96.9255 53.4342 96.4363 54.1458V52.5999H93.3295V64.4517H96.4363V56.4769C96.901 55.8144 97.8062 55.0782 98.8825 55.0782C100.155 55.0782 100.644 55.8634 100.644 56.9676V64.4517H103.775V56.4523C104.215 55.8144 105.12 55.0782 106.221 55.0782C107.493 55.0782 107.983 55.8634 107.983 56.9676V64.4517H111.114ZM117.688 60.6484V56.4523C118.202 55.6671 119.352 55.0782 120.355 55.0782C122.165 55.0782 123.363 56.4769 123.363 58.5381C123.363 60.5993 122.165 61.9734 120.355 61.9734C119.352 61.9734 118.202 61.409 117.688 60.6484ZM117.688 64.4517V62.9303C118.618 64.1082 119.914 64.7462 121.333 64.7462C124.317 64.7462 126.568 62.4887 126.568 58.5381C126.568 54.6611 124.342 52.3055 121.333 52.3055C119.939 52.3055 118.618 52.9188 117.688 54.1212V48.0849H114.581V64.4517H117.688ZM130.876 51.3239C131.904 51.3239 132.736 50.4896 132.736 49.459C132.736 48.4284 131.904 47.6187 130.876 47.6187C129.873 47.6187 129.017 48.4284 129.017 49.459C129.017 50.4896 129.873 51.3239 130.876 51.3239ZM132.442 64.4517V52.5999H129.335V64.4517H132.442ZM139.906 64.7462C141.203 64.7462 142.034 64.4027 142.499 63.9855L141.839 61.6298C141.667 61.8016 141.227 61.9734 140.762 61.9734C140.077 61.9734 139.686 61.409 139.686 60.6728V55.3236H142.083V52.5999H139.686V49.3609H136.555V52.5999H134.598V55.3236H136.555V61.5071C136.555 63.6174 137.729 64.7462 139.906 64.7462ZM146.17 51.3239C147.198 51.3239 148.03 50.4896 148.03 49.459C148.03 48.4284 147.198 47.6187 146.17 47.6187C145.167 47.6187 144.311 48.4284 144.311 49.459C144.311 50.4896 145.167 51.3239 146.17 51.3239ZM147.736 64.4517V52.5999H144.629V64.4517H147.736ZM156.717 64.7462C160.631 64.7462 162.979 61.8998 162.979 58.5136C162.979 55.1518 160.631 52.3055 156.717 52.3055C152.827 52.3055 150.479 55.1518 150.479 58.5136C150.479 61.8998 152.827 64.7462 156.717 64.7462ZM156.717 61.9734C154.783 61.9734 153.708 60.3784 153.708 58.5136C153.708 56.6731 154.783 55.0782 156.717 55.0782C158.649 55.0782 159.75 56.6731 159.75 58.5136C159.75 60.3784 158.649 61.9734 156.717 61.9734ZM176.785 64.4517V56.0842C176.785 53.7777 175.538 52.3055 172.946 52.3055C171.012 52.3055 169.569 53.2379 168.811 54.1458V52.5999H165.704V64.4517H168.811V56.4769C169.325 55.7653 170.279 55.0782 171.502 55.0782C172.823 55.0782 173.679 55.6426 173.679 57.2866V64.4517H176.785ZM189.22 64.4517C192.326 64.4517 193.966 62.4887 193.966 60.0349C193.966 57.9737 192.571 56.2806 190.834 56.0106C192.375 55.6917 193.647 54.3175 193.647 52.2563C193.647 50.0725 192.057 48.0849 188.951 48.0849H180.365V64.4517H189.22ZM188.193 54.6365H183.838V51.0785H188.193C189.367 51.0785 190.1 51.8391 190.1 52.8698C190.1 53.9004 189.367 54.6365 188.193 54.6365ZM188.314 61.4336H183.838V57.6301H188.314C189.685 57.6301 190.419 58.5136 190.419 59.5441C190.419 60.7219 189.636 61.4336 188.314 61.4336ZM202.412 64.7462C206.325 64.7462 208.674 61.8998 208.674 58.5136C208.674 55.1518 206.325 52.3055 202.412 52.3055C198.522 52.3055 196.174 55.1518 196.174 58.5136C196.174 61.8998 198.522 64.7462 202.412 64.7462ZM202.412 61.9734C200.479 61.9734 199.403 60.3784 199.403 58.5136C199.403 56.6731 200.479 55.0782 202.412 55.0782C204.344 55.0782 205.445 56.6731 205.445 58.5136C205.445 60.3784 204.344 61.9734 202.412 61.9734ZM221.351 64.4517L217.12 58.3663L221.082 52.5999H217.609L215.187 56.256L212.741 52.5999H209.267L213.205 58.3663L209.023 64.4517H212.471L215.187 60.452L217.878 64.4517H221.351Z" fill="white"/>
<path d="M47.7418 37.4671C48.4761 37.0424 49.3804 37.0424 50.1147 37.4671L63.4189 45.1634C64.1542 45.5887 64.6072 46.3755 64.6072 47.2269V62.6148C64.6072 63.4663 64.1542 64.2529 63.4189 64.6783L50.135 72.3629C49.3899 72.7939 48.4706 72.7871 47.732 72.345L35.5162 65.0347C34.7362 64.5679 34.7462 63.4312 35.5345 62.9784L48.6893 55.4208C48.8371 55.3359 48.9283 55.1782 48.9283 55.0074V47.3847C48.9283 47.0179 48.5324 46.7887 48.2158 46.9722L35.0307 54.613C34.2391 55.0718 33.2493 54.4988 33.2493 53.5817V47.2269C33.2493 46.3755 33.7023 45.5887 34.4377 45.1634L47.7418 37.4671Z" fill="url(#paint1_linear_1577_4632)"/>
<path d="M47.7418 37.4671C48.4761 37.0424 49.3804 37.0424 50.1147 37.4671L63.4189 45.1634C64.1542 45.5887 64.6072 46.3755 64.6072 47.2269V62.6148C64.6072 63.4663 64.1542 64.2529 63.4189 64.6783L50.135 72.3629C49.3899 72.7939 48.4706 72.7871 47.732 72.345L35.8651 65.2435C34.929 64.6833 34.9411 63.3192 35.887 62.7758L47.7337 55.9698C48.4725 55.5454 48.9283 54.7567 48.9283 53.9027V48.2102C48.9283 47.4765 48.1364 47.0181 47.5032 47.3851L35.0307 54.613C34.2391 55.0718 33.2493 54.4988 33.2493 53.5817V47.2269C33.2493 46.3755 33.7023 45.5887 34.4377 45.1634L47.7418 37.4671Z" fill="url(#paint2_linear_1577_4632)"/>
<path fill-rule="evenodd" clip-rule="evenodd" d="M48.2165 37.1926C48.657 36.9378 49.1996 36.9378 49.6402 37.1926L63.8943 45.4384C64.3355 45.6936 64.6072 46.1656 64.6072 46.6765V63.1653C64.6072 63.6761 64.3355 64.1482 63.8943 64.4033L49.6523 72.642C49.2053 72.9007 48.6536 72.8966 48.2105 72.6314L35.5162 65.0347C34.7362 64.5679 34.7462 63.4312 35.5345 62.9784L47.8532 55.9012C48.5181 55.5193 48.9283 54.8095 48.9283 54.0408V48.2102C48.9283 47.4765 48.1364 47.0181 47.5032 47.3851L35.0307 54.613C34.2391 55.0718 33.2493 54.4988 33.2493 53.5817V46.6765C33.2493 46.1656 33.5211 45.6936 33.9623 45.4384L48.2165 37.1926Z" fill="#F6F8FF"/>
<mask id="mask4_1577_4632" style="mask-type:alpha" maskUnits="userSpaceOnUse" x="33" y="37" width="32" height="36">
<path fill-rule="evenodd" clip-rule="evenodd" d="M48.2165 37.1926C48.657 36.9378 49.1996 36.9378 49.6402 37.1926L63.8943 45.4384C64.3355 45.6936 64.6072 46.1656 64.6072 46.6765V63.1653C64.6072 63.6761 64.3355 64.1482 63.8943 64.4033L49.6523 72.642C49.2053 72.9007 48.6536 72.8966 48.2105 72.6314L35.5162 65.0347C34.7362 64.5679 34.7462 63.4312 35.5345 62.9784L47.8532 55.9012C48.5181 55.5193 48.9283 54.8095 48.9283 54.0408V48.2102C48.9283 47.4765 48.1364 47.0181 47.5032 47.3851L35.0307 54.613C34.2391 55.0718 33.2493 54.4988 33.2493 53.5817V46.6765C33.2493 46.1656 33.5211 45.6936 33.9623 45.4384L48.2165 37.1926Z" fill="white"/>
</mask>
<g mask="url(#mask4_1577_4632)">
<path fill-rule="evenodd" clip-rule="evenodd" d="M63.9904 64.5914C64.4689 64.311 64.4591 63.6142 63.973 63.3474L49.3728 55.3341C49.3728 55.3341 48.8725 55.0478 48.9247 54.3903C41.5855 58.4308 33.7158 63.954 33.7158 63.954L49.1653 73.2779L63.9904 64.5914Z" fill="#D8DEFD"/>
<path fill-rule="evenodd" clip-rule="evenodd" d="M48.9297 38.4445C48.9297 37.7117 48.1396 37.2532 47.5062 37.6185L33 45.9864L33.0137 56.6016L48.4944 50.0434C48.7583 49.9317 48.9297 49.6724 48.9297 49.3852V38.4445Z" fill="#D8DEFD"/>
</g>
</g>
</g>
</g>
<defs>
<linearGradient id="paint0_linear_1577_4632" x1="522.964" y1="115.867" x2="495.394" y2="199.114" gradientUnits="userSpaceOnUse">
<stop/>
<stop offset="1" stop-opacity="0"/>
</linearGradient>
<linearGradient id="paint1_linear_1577_4632" x1="67.3582" y1="72.8347" x2="67.3582" y2="30.7127" gradientUnits="userSpaceOnUse">
<stop stop-color="#0169E1"/>
<stop offset="1" stop-color="#0F8EF1"/>
</linearGradient>
<linearGradient id="paint2_linear_1577_4632" x1="67.3582" y1="72.8347" x2="67.3582" y2="30.7127" gradientUnits="userSpaceOnUse">
<stop stop-color="#0169E1"/>
<stop offset="1" stop-color="#0F8EF1"/>
</linearGradient>
<clipPath id="clip0_1577_4632">
<rect width="644" height="257" fill="white"/>
</clipPath>
<clipPath id="clip1_1577_4632">
<rect width="188" height="37" fill="white" transform="translate(33 37)"/>
</clipPath>
</defs>
</svg>
