<svg width="32" height="32" viewBox="0 0 32 32" fill="none" xmlns="http://www.w3.org/2000/svg">
<path fill-rule="evenodd" clip-rule="evenodd" d="M2.66669 6.6665H9.33335C12.2789 6.6665 14.6667 9.05432 14.6667 11.9998C14.6667 13.306 14.1971 14.5025 13.4176 15.4298C14.9652 16.3633 16 18.0607 16 19.9998C16 22.9454 13.6122 25.3332 10.6667 25.3332H2.66669V17.3332V14.6665V6.6665ZM5.33335 22.6665V17.3332H9.33335H10.6667C12.1394 17.3332 13.3334 18.5271 13.3334 19.9998C13.3334 21.4726 12.1394 22.6665 10.6667 22.6665H5.33335ZM28 7.99984H18.6667V10.6665H28V7.99984ZM23.5171 22.6665C24.9044 22.6665 25.7569 22.3828 26.2121 21.9558C26.4518 21.7309 26.5519 21.4806 26.5519 21.3332H29.2185C29.2185 23.5028 27.2675 25.3332 23.5171 25.3332C19.8062 25.3332 17.3334 22.9276 17.3334 18.6665C17.3334 14.7117 19.4407 11.9998 23.3334 11.9998C27.226 11.9998 29.3334 14.7117 29.3334 18.6665V19.9998H20.1182C20.4802 21.836 21.6634 22.6665 23.5171 22.6665ZM26.5529 17.3332C26.2217 15.5868 25.1645 14.6665 23.3334 14.6665C21.5022 14.6665 20.445 15.5868 20.1139 17.3332H26.5529ZM5.33335 14.6665V9.33317H9.33335C10.8061 9.33317 12 10.5271 12 11.9998C12 13.4726 10.8061 14.6665 9.33335 14.6665H5.33335Z" fill="white"/>
</svg>
