<svg width="194" height="15" viewBox="0 0 194 15" fill="none" xmlns="http://www.w3.org/2000/svg">
<path d="M8.90341 4.12926C8.5554 1.9517 6.85014 0.678977 4.69744 0.678977C2.0625 0.678977 0.118608 2.6527 0.118608 5.90909C0.118608 9.16548 2.05256 11.1392 4.69744 11.1392C6.93466 11.1392 8.57031 9.73722 8.90341 7.72372L7.35227 7.71875C7.08878 9.02131 5.99503 9.73722 4.70739 9.73722C2.96236 9.73722 1.64489 8.39986 1.64489 5.90909C1.64489 3.43821 2.95739 2.08097 4.71236 2.08097C6.00994 2.08097 7.09872 2.81179 7.35227 4.12926H8.90341ZM13.839 11.1541C15.9917 11.1541 17.3986 9.57812 17.3986 7.21662C17.3986 4.8402 15.9917 3.2642 13.839 3.2642C11.6863 3.2642 10.2793 4.8402 10.2793 7.21662C10.2793 9.57812 11.6863 11.1541 13.839 11.1541ZM13.8439 9.90625C12.437 9.90625 11.7807 8.67827 11.7807 7.21165C11.7807 5.75 12.437 4.5071 13.8439 4.5071C15.2409 4.5071 15.8972 5.75 15.8972 7.21165C15.8972 8.67827 15.2409 9.90625 13.8439 9.90625ZM19.0579 13.8636H20.5444V9.81179H20.6339C20.9023 10.299 21.4492 11.1491 22.8413 11.1491C24.6907 11.1491 26.033 9.66761 26.033 7.19673C26.033 4.72088 24.6708 3.2642 22.8263 3.2642C21.4094 3.2642 20.8974 4.12926 20.6339 4.60156H20.5096V3.36364H19.0579V13.8636ZM20.5146 7.18182C20.5146 5.58594 21.2106 4.52699 22.5082 4.52699C23.8555 4.52699 24.5316 5.66548 24.5316 7.18182C24.5316 8.71307 23.8356 9.88139 22.5082 9.88139C21.2305 9.88139 20.5146 8.78764 20.5146 7.18182ZM28.3647 13.8636C29.5927 13.8636 30.3683 13.2223 30.8107 12.0192L33.9677 3.37855L32.3619 3.36364L30.4279 9.28977H30.3484L28.4144 3.36364H26.8235L29.6175 11.0994L29.4336 11.6065C29.0558 12.6207 28.5238 12.7053 27.7085 12.4815L27.3505 13.6996C27.5295 13.7791 27.9173 13.8636 28.3647 13.8636ZM35.3684 11H36.8549V6.33665C36.8549 5.33736 37.6255 4.61648 38.6795 4.61648C38.9877 4.61648 39.3358 4.67116 39.4551 4.70597V3.28409C39.3059 3.2642 39.0126 3.24929 38.8237 3.24929C37.9288 3.24929 37.1632 3.75639 36.8848 4.5767H36.8052V3.36364H35.3684V11ZM40.7415 11H42.228V3.36364H40.7415V11ZM41.4922 2.18537C42.0043 2.18537 42.4318 1.78764 42.4318 1.30043C42.4318 0.81321 42.0043 0.410511 41.4922 0.410511C40.9751 0.410511 40.5526 0.81321 40.5526 1.30043C40.5526 1.78764 40.9751 2.18537 41.4922 2.18537ZM47.4295 14.0227C49.3734 14.0227 50.8748 13.1328 50.8748 11.169V3.36364H49.4181V4.60156H49.3088C49.0453 4.12926 48.5183 3.2642 47.0964 3.2642C45.252 3.2642 43.8947 4.72088 43.8947 7.15199C43.8947 9.58807 45.2818 10.8857 47.0865 10.8857C48.4885 10.8857 49.0304 10.0952 49.2988 9.60795H49.3933V11.1094C49.3933 12.3075 48.573 12.8246 47.4444 12.8246C46.2065 12.8246 45.7243 12.2031 45.4608 11.7656L44.1831 12.2926C44.5858 13.2273 45.6049 14.0227 47.4295 14.0227ZM47.4146 9.6527C46.0872 9.6527 45.3961 8.63352 45.3961 7.1321C45.3961 5.66548 46.0723 4.52699 47.4146 4.52699C48.7122 4.52699 49.4082 5.58594 49.4082 7.1321C49.4082 8.7081 48.6973 9.6527 47.4146 9.6527ZM54.3549 6.46591C54.3549 5.24787 55.1255 4.55185 56.1845 4.55185C57.2086 4.55185 57.8201 5.20312 57.8201 6.32173V11H59.3066V6.14276C59.3066 4.23864 58.2626 3.2642 56.6916 3.2642C55.5034 3.2642 54.7875 3.78125 54.4295 4.60653H54.335V0.818182H52.8684V11H54.3549V6.46591ZM64.8549 3.36364H63.2889V1.53409H61.8024V3.36364H60.6838V4.55682H61.8024V9.06605C61.7974 10.4531 62.8564 11.1243 64.0297 11.0994C64.502 11.0945 64.8201 11.005 64.9941 10.9403L64.7257 9.71236C64.6262 9.73224 64.4423 9.77699 64.2037 9.77699C63.7214 9.77699 63.2889 9.6179 63.2889 8.75781V4.55682H64.8549V3.36364ZM75.6085 11.1591C78.5169 11.1591 80.8684 8.80753 80.8585 5.90909C80.8485 3.01065 78.5169 0.659091 75.6085 0.659091C72.72 0.659091 70.3684 3.01065 70.3585 5.90909C70.3485 8.80753 72.72 11.1591 75.6085 11.1591ZM75.6085 9.83665C73.4409 9.83665 71.671 8.07173 71.6809 5.91406C71.6859 3.74645 73.4508 1.98153 75.6085 1.98153C77.7811 1.98153 79.5311 3.73651 79.536 5.91406C79.546 8.08168 77.786 9.83665 75.6085 9.83665ZM72.7498 5.90909C72.7498 7.50994 74.0524 8.8125 75.6532 8.8125C77.0502 8.8125 78.139 7.82315 78.313 6.51562H77.0204C76.8912 7.1321 76.3542 7.5696 75.6532 7.5696C74.7385 7.5696 73.9927 6.82386 73.9927 5.90909C73.9927 4.98935 74.7385 4.24858 75.6532 4.24858C76.3542 4.24858 76.9757 4.68608 77.1 5.30256H78.3926C78.2186 3.99503 77.0502 3.00568 75.6532 3.00568C74.0524 3.00568 72.7498 4.30824 72.7498 5.90909ZM86.7001 11H93.4018V9.68253H88.818V9.60795L90.8414 7.49006C92.7058 5.60582 93.2377 4.70597 93.2377 3.56747C93.2377 1.93182 91.9054 0.678977 89.9863 0.678977C88.0822 0.678977 86.6902 1.91193 86.6902 3.77131H88.1568C88.1518 2.67756 88.8578 1.96165 89.9565 1.96165C90.9906 1.96165 91.7761 2.59801 91.7761 3.61222C91.7761 4.51207 91.2392 5.15838 90.1454 6.31676L86.7001 9.88636V11ZM98.8308 11.169C101.182 11.169 102.559 9.25 102.559 5.91406C102.559 2.60298 101.162 0.678977 98.8308 0.678977C96.4941 0.678977 95.1021 2.59801 95.0971 5.91406C95.0971 9.24503 96.4743 11.1641 98.8308 11.169ZM98.8308 9.84162C97.4537 9.84162 96.6234 8.45952 96.6234 5.91406C96.6284 3.37855 97.4586 1.98153 98.8308 1.98153C100.198 1.98153 101.033 3.37855 101.033 5.91406C101.033 8.45952 100.203 9.84162 98.8308 9.84162ZM104.323 11H111.025V9.68253H106.441V9.60795L108.464 7.49006C110.329 5.60582 110.861 4.70597 110.861 3.56747C110.861 1.93182 109.528 0.678977 107.609 0.678977C105.705 0.678977 104.313 1.91193 104.313 3.77131H105.78C105.775 2.67756 106.481 1.96165 107.58 1.96165C108.614 1.96165 109.399 2.59801 109.399 3.61222C109.399 4.51207 108.862 5.15838 107.768 6.31676L104.323 9.88636V11ZM116.454 11.169C118.805 11.169 120.183 9.25 120.183 5.91406C120.183 2.60298 118.786 0.678977 116.454 0.678977C114.117 0.678977 112.725 2.59801 112.72 5.91406C112.72 9.24503 114.097 11.1641 116.454 11.169ZM116.454 9.84162C115.077 9.84162 114.246 8.45952 114.246 5.91406C114.251 3.37855 115.082 1.98153 116.454 1.98153C117.821 1.98153 118.656 3.37855 118.656 5.91406C118.656 8.45952 117.826 9.84162 116.454 9.84162ZM126.651 11L127.585 8.3054H131.562L132.492 11H134.123L130.459 0.818182H128.684L125.02 11H126.651ZM128.033 7.01278L129.534 2.66761H129.614L131.115 7.01278H128.033ZM135.474 3.36364V11.4872C135.474 12.1932 135.181 12.581 134.475 12.581H134.236V13.8587C134.34 13.8636 134.435 13.8636 134.539 13.8636C136.12 13.8636 136.96 13.0284 136.96 11.4972V3.36364H135.474ZM136.21 2.18537C136.722 2.18537 137.149 1.78764 137.149 1.30043C137.149 0.81321 136.722 0.410511 136.21 0.410511C135.693 0.410511 135.27 0.81321 135.27 1.30043C135.27 1.78764 135.693 2.18537 136.21 2.18537ZM141.183 11.169C142.445 11.169 143.156 10.5277 143.44 9.95597H143.499V11H144.951V5.92898C144.951 3.70668 143.201 3.2642 141.988 3.2642C140.606 3.2642 139.333 3.82102 138.836 5.21307L140.233 5.53125C140.452 4.98935 141.009 4.46733 142.008 4.46733C142.967 4.46733 143.46 4.96946 143.46 5.83452V5.86932C143.46 6.41122 142.903 6.40128 141.531 6.56037C140.084 6.7294 138.602 7.10724 138.602 8.84233C138.602 10.3438 139.731 11.169 141.183 11.169ZM141.506 9.97585C140.665 9.97585 140.059 9.59801 140.059 8.86222C140.059 8.06676 140.765 7.78338 141.625 7.66903C142.107 7.6044 143.251 7.47514 143.464 7.26136V8.24574C143.464 9.15057 142.744 9.97585 141.506 9.97585ZM147.597 13.8636C148.825 13.8636 149.601 13.2223 150.043 12.0192L153.2 3.37855L151.594 3.36364L149.66 9.28977H149.581L147.647 3.36364H146.056L148.85 11.0994L148.666 11.6065C148.288 12.6207 147.756 12.7053 146.941 12.4815L146.583 13.6996C146.762 13.7791 147.15 13.8636 147.597 13.8636ZM158.425 11H159.961V7.8331L161.165 6.45099L164.456 11H166.305L162.184 5.40199L166.29 0.818182H164.356L160.086 5.6804H159.961V0.818182H158.425V11ZM171.962 7.8331C171.967 9.13068 171.002 9.74716 170.167 9.74716C169.247 9.74716 168.611 9.08097 168.611 8.0419V3.36364H167.124V8.22088C167.124 10.1151 168.163 11.0994 169.63 11.0994C170.778 11.0994 171.559 10.4929 171.912 9.67756H171.991V11H173.453V3.36364H171.962V7.8331ZM178.309 11.1491C179.701 11.1491 180.248 10.299 180.517 9.81179H180.641V11H182.093V0.818182H180.606V4.60156H180.517C180.248 4.12926 179.741 3.2642 178.319 3.2642C176.475 3.2642 175.117 4.72088 175.117 7.19673C175.117 9.66761 176.455 11.1491 178.309 11.1491ZM178.637 9.88139C177.31 9.88139 176.619 8.71307 176.619 7.18182C176.619 5.66548 177.295 4.52699 178.637 4.52699C179.935 4.52699 180.631 5.58594 180.631 7.18182C180.631 8.78764 179.92 9.88139 178.637 9.88139ZM186.436 11.169C187.699 11.169 188.41 10.5277 188.694 9.95597H188.753V11H190.205V5.92898C190.205 3.70668 188.455 3.2642 187.242 3.2642C185.86 3.2642 184.587 3.82102 184.09 5.21307L185.487 5.53125C185.706 4.98935 186.262 4.46733 187.262 4.46733C188.221 4.46733 188.713 4.96946 188.713 5.83452V5.86932C188.713 6.41122 188.157 6.40128 186.784 6.56037C185.338 6.7294 183.856 7.10724 183.856 8.84233C183.856 10.3438 184.985 11.169 186.436 11.169ZM186.76 9.97585C185.919 9.97585 185.313 9.59801 185.313 8.86222C185.313 8.06676 186.019 7.78338 186.879 7.66903C187.361 7.6044 188.505 7.47514 188.718 7.26136V8.24574C188.718 9.15057 187.998 9.97585 186.76 9.97585ZM193.671 0.818182H192.185V11H193.671V0.818182Z" fill="#C7C7C7"/>
</svg>
