<svg width="32" height="32" viewBox="0 0 32 32" fill="none" xmlns="http://www.w3.org/2000/svg">
<g id="24 / symbols / dribbble">
<path id="icon" fill-rule="evenodd" clip-rule="evenodd" d="M16 30.6667C7.89986 30.6667 1.33337 24.1002 1.33337 16C1.33337 7.89986 7.89986 1.33337 16 1.33337C24.1002 1.33337 30.6667 7.89986 30.6667 16C30.6667 24.1002 24.1002 30.6667 16 30.6667ZM27.8237 18.0611C25.2458 17.4621 22.8355 17.3081 20.5851 17.6023C21.7065 20.3693 22.5227 23.0765 23.0328 25.7243C25.5137 23.9269 27.2798 21.2034 27.8237 18.0611ZM20.5705 27.099C20.0918 24.2186 19.215 21.2446 17.9386 18.1777C14.3554 19.286 11.2193 21.6758 8.4937 25.363C10.5491 27.0129 13.1593 28 16 28C17.6183 28 19.1618 27.6797 20.5705 27.099ZM6.59387 23.4522C9.53557 19.5838 12.9626 17.0044 16.8435 15.728C16.5932 15.2037 16.3316 14.6769 16.0587 14.1474C15.3696 14.3315 14.6551 14.4904 13.9164 14.6255C10.9422 15.1692 8.36418 15.2751 4.18268 15.2153C4.12781 15.2145 4.07545 15.2138 4.02543 15.2131C4.00859 15.4732 4.00004 15.7356 4.00004 16C4.00004 18.8159 4.96993 21.4053 6.59387 23.4522ZM4.50257 12.5527C5.45403 9.37489 7.687 6.75067 10.6015 5.28005C12.1572 7.46986 13.5378 9.61953 14.7436 11.7289C14.3196 11.8295 13.884 11.9205 13.4369 12.0023C10.7467 12.4941 8.35335 12.6014 4.50257 12.5527ZM13.1941 4.32988C14.7548 6.56398 16.1419 8.7635 17.3547 10.9286C19.9103 9.94031 21.8941 8.47154 23.2458 6.43371C21.2324 4.90636 18.7221 4.00004 16 4.00004C15.0338 4.00004 14.0942 4.11424 13.1941 4.32988ZM25.2015 8.29678C26.8213 10.2296 27.8434 12.6802 27.9835 15.3644C24.9674 14.7144 22.131 14.6185 19.4828 15.0727C19.2084 14.4838 18.9206 13.8923 18.6194 13.2981C21.3672 12.1862 23.5921 10.5532 25.2015 8.29678Z" fill="white"/>
</g>
</svg>
