<svg width="39" height="35" viewBox="0 0 39 35" fill="none" xmlns="http://www.w3.org/2000/svg">
<path d="M34.0882 18.8057C33.3992 22.0467 24.8782 25.0267 16.7742 23.3047C8.67021 21.5827 2.09821 15.3937 2.78721 12.1527C3.47621 8.91172 11.3742 8.86571 19.4772 10.5887C27.5802 12.3117 34.7772 15.5647 34.0882 18.8057Z" fill="#FFD983"/>
<path d="M28.2572 34.3806L26.2572 20.3806L9.2572 15.3806L1.2572 34.3806H28.2572Z" fill="#FFD983"/>
<path d="M35.3665 17.6019C36.2341 13.5201 29.4926 8.62861 20.3089 6.67656C11.1253 4.72451 2.97706 6.45107 2.10943 10.5329C1.2418 14.6148 7.98329 19.5063 17.167 21.4583C26.3506 23.4104 34.4988 21.6838 35.3665 17.6019Z" fill="#67757F"/>
<path d="M1.67114 9.35767L2.08514 11.6727L34.9511 18.6587L36.3631 16.5327L1.67114 9.35767Z" fill="#67757F"/>
<path d="M36.8766 15.31C37.7952 10.9883 30.6571 5.80932 20.9332 3.74244C11.2094 1.67556 2.58191 3.50348 1.66329 7.82521C0.744682 12.1469 7.88277 17.3259 17.6067 19.3928C27.3305 21.4597 35.958 19.6318 36.8766 15.31Z" fill="#9AAAB4"/>
<path d="M34.358 12.731C35.047 9.48972 29.0365 5.46585 20.9333 3.74345C12.83 2.02106 5.70254 3.25237 5.01358 6.49366C4.32462 9.73496 10.3351 13.7588 18.4383 15.4812C26.5416 17.2036 33.6691 15.9723 34.358 12.731Z" fill="#CCD6DD"/>
<path d="M28.9043 9.52647C29.2488 7.90583 25.5867 5.75426 20.7247 4.72083C15.8628 3.68739 11.6422 4.16342 11.2977 5.78406C10.9532 7.40471 14.6153 9.55627 19.4773 10.5897C24.3392 11.6231 28.5599 11.1471 28.9043 9.52647Z" fill="#E1E8ED"/>
<path d="M11.2981 5.78259C11.6421 4.16159 14.2941 1.30759 21.1411 2.76259C27.9881 4.21759 29.2491 7.90359 28.9051 9.52459C28.5611 11.1456 24.3401 11.6216 19.4781 10.5876C14.6161 9.55359 10.9531 7.40359 11.2981 5.78259Z" fill="#5DADEC"/>
<path d="M18.0222 18.4355C18.5745 18.4355 19.0222 17.9878 19.0222 17.4355C19.0222 16.8833 18.5745 16.4355 18.0222 16.4355C17.4699 16.4355 17.0222 16.8833 17.0222 17.4355C17.0222 17.9878 17.4699 18.4355 18.0222 18.4355Z" fill="#8CCAF7"/>
<path d="M26.0552 19.1206C26.6075 19.1206 27.0552 18.6729 27.0552 18.1206C27.0552 17.5683 26.6075 17.1206 26.0552 17.1206C25.5029 17.1206 25.0552 17.5683 25.0552 18.1206C25.0552 18.6729 25.5029 19.1206 26.0552 19.1206Z" fill="#8CCAF7"/>
<path d="M33.5261 17.6416C34.0784 17.6416 34.5261 17.1939 34.5261 16.6416C34.5261 16.0893 34.0784 15.6416 33.5261 15.6416C32.9738 15.6416 32.5261 16.0893 32.5261 16.6416C32.5261 17.1939 32.9738 17.6416 33.5261 17.6416Z" fill="#8CCAF7"/>
<path d="M36.2157 13.0784C36.3902 12.8643 36.1846 12.4079 35.7566 12.059C35.3285 11.71 34.84 11.6006 34.6655 11.8146C34.4911 12.0286 34.6966 12.4851 35.1247 12.834C35.5527 13.183 36.0412 13.2924 36.2157 13.0784Z" fill="#8CCAF7"/>
<path d="M4.19044 6.26021C4.72343 6.11552 5.09686 5.78219 5.02452 5.51569C4.95217 5.24919 4.46144 5.15045 3.92845 5.29514C3.39546 5.43983 3.02203 5.77317 3.09437 6.03966C3.16672 6.30616 3.65744 6.4049 4.19044 6.26021Z" fill="#8CCAF7"/>
<path d="M4.18115 11.4036C4.73344 11.4036 5.18115 10.9558 5.18115 10.4036C5.18115 9.85128 4.73344 9.40356 4.18115 9.40356C3.62887 9.40356 3.18115 9.85128 3.18115 10.4036C3.18115 10.9558 3.62887 11.4036 4.18115 11.4036Z" fill="#8CCAF7"/>
<path d="M10.4052 15.7937C10.9574 15.7937 11.4052 15.346 11.4052 14.7937C11.4052 14.2414 10.9574 13.7937 10.4052 13.7937C9.85287 13.7937 9.40515 14.2414 9.40515 14.7937C9.40515 15.346 9.85287 15.7937 10.4052 15.7937Z" fill="#8CCAF7"/>
<path d="M25.7207 5.27108C25.8929 4.46075 23.8429 3.33843 21.1418 2.7643C18.4407 2.19016 16.1114 2.38163 15.9392 3.19196C15.7669 4.00228 17.817 5.12461 20.5181 5.69874C23.2191 6.27287 25.5484 6.0814 25.7207 5.27108Z" fill="#8CCAF7"/>
</svg>
