<svg width="32" height="32" viewBox="0 0 32 32" fill="none" xmlns="http://www.w3.org/2000/svg">
<path fill-rule="evenodd" clip-rule="evenodd" d="M13.3333 2.66663H26.6666C28.203 2.66663 29.3333 3.79692 29.3333 5.33329V18.6666C29.3333 20.203 28.203 21.3333 26.6666 21.3333H21.3333V26.6666C21.3333 28.203 20.203 29.3333 18.6666 29.3333H5.33329C3.79692 29.3333 2.66663 28.203 2.66663 26.6666V13.3333C2.66663 11.7969 3.79692 10.6666 5.33329 10.6666H10.6666V5.33329C10.6666 3.79692 11.7969 2.66663 13.3333 2.66663ZM10.6666 13.3333H5.33329V26.6666H18.6666V21.3333H13.3333C11.7969 21.3333 10.6666 20.203 10.6666 18.6666V13.3333ZM13.3333 5.33329V18.6666H26.6666V5.33329H13.3333Z" fill="#E6C71B"/>
</svg>
