<svg width="382" height="25" viewBox="0 0 382 25" fill="none" xmlns="http://www.w3.org/2000/svg">
<path d="M63.7468 8.35738H60.0423V18.4028H57.0669V8.35738H53.4302V6.06008H63.7468V8.35738Z" fill="url(#paint0_linear)"/>
<path d="M78.9724 18.4028H76.0139V13.2487H71.6312V18.4028H68.6557V6.06008H71.6312V10.9599H76.0139V6.06008H78.9724V18.4028Z" fill="url(#paint1_linear)"/>
<path d="M92.1634 13.1724H87.4841V16.1139H93.0111V18.4028H84.5086V6.06008H93.0281V8.35738H87.4841V10.9599H92.1634V13.1724Z" fill="url(#paint2_linear)"/>
<path d="M111.993 18.4028H109.127V9.28138L106.313 10.1037V7.93352L111.73 6.06008H111.993V18.4028Z" fill="url(#paint3_linear)"/>
<path d="M127.93 13.3589C127.93 15.026 127.555 16.3117 126.803 17.216C126.057 18.1202 125.003 18.5723 123.641 18.5723C122.268 18.5723 121.205 18.1174 120.454 17.2075C119.702 16.2976 119.326 15.0147 119.326 13.3589V11.104C119.326 9.4368 119.699 8.1511 120.445 7.24688C121.197 6.34265 122.256 5.89054 123.624 5.89054C124.992 5.89054 126.051 6.34548 126.803 7.25536C127.555 8.16523 127.93 9.45093 127.93 11.1124V13.3589ZM125.074 10.7394C125.074 9.85218 124.958 9.19096 124.726 8.7558C124.494 8.31499 124.127 8.09459 123.624 8.09459C123.132 8.09459 122.773 8.29804 122.547 8.70494C122.327 9.11184 122.208 9.72784 122.191 10.5529V13.7064C122.191 14.6276 122.307 15.303 122.539 15.7325C122.771 16.1563 123.138 16.3682 123.641 16.3682C124.127 16.3682 124.486 16.162 124.718 15.7494C124.949 15.3312 125.068 14.6785 125.074 13.7912V10.7394Z" fill="url(#paint4_linear)"/>
<path d="M141.63 13.3589C141.63 15.026 141.254 16.3117 140.503 17.216C139.757 18.1202 138.703 18.5723 137.341 18.5723C135.967 18.5723 134.905 18.1174 134.153 17.2075C133.402 16.2976 133.026 15.0147 133.026 13.3589V11.104C133.026 9.4368 133.399 8.1511 134.145 7.24688C134.896 6.34265 135.956 5.89054 137.324 5.89054C138.691 5.89054 139.751 6.34548 140.503 7.25536C141.254 8.16523 141.63 9.45093 141.63 11.1124V13.3589ZM138.773 10.7394C138.773 9.85218 138.657 9.19096 138.426 8.7558C138.194 8.31499 137.827 8.09459 137.324 8.09459C136.832 8.09459 136.473 8.29804 136.247 8.70494C136.027 9.11184 135.908 9.72784 135.891 10.5529V13.7064C135.891 14.6276 136.007 15.303 136.239 15.7325C136.47 16.1563 136.838 16.3682 137.341 16.3682C137.827 16.3682 138.186 16.162 138.417 15.7494C138.649 15.3312 138.768 14.6785 138.773 13.7912V10.7394Z" fill="url(#paint5_linear)"/>
<path d="M155.33 13.3589C155.33 15.026 154.954 16.3117 154.202 17.216C153.456 18.1202 152.402 18.5723 151.04 18.5723C149.667 18.5723 148.605 18.1174 147.853 17.2075C147.101 16.2976 146.725 15.0147 146.725 13.3589V11.104C146.725 9.4368 147.098 8.1511 147.844 7.24688C148.596 6.34265 149.656 5.89054 151.023 5.89054C152.391 5.89054 153.451 6.34548 154.202 7.25536C154.954 8.16523 155.33 9.45093 155.33 11.1124V13.3589ZM152.473 10.7394C152.473 9.85218 152.357 9.19096 152.125 8.7558C151.894 8.31499 151.526 8.09459 151.023 8.09459C150.532 8.09459 150.173 8.29804 149.947 8.70494C149.726 9.11184 149.608 9.72784 149.591 10.5529V13.7064C149.591 14.6276 149.707 15.303 149.938 15.7325C150.17 16.1563 150.537 16.3682 151.04 16.3682C151.526 16.3682 151.885 16.162 152.117 15.7494C152.349 15.3312 152.467 14.6785 152.473 13.7912V10.7394Z" fill="url(#paint6_linear)"/>
<path d="M176.38 13.486H171.582V18.4028H168.606V6.06008H176.863V8.35738H171.582V11.1972H176.38V13.486Z" fill="url(#paint7_linear)"/>
<path d="M184.722 16.1139H189.901V18.4028H181.746V6.06008H184.722V16.1139Z" fill="url(#paint8_linear)"/>
<path d="M204.712 12.4857C204.712 13.6895 204.488 14.7548 204.042 15.6816C203.595 16.6084 202.96 17.3233 202.135 17.8263C201.315 18.3236 200.38 18.5723 199.329 18.5723C198.277 18.5723 197.345 18.3321 196.531 17.8517C195.717 17.3657 195.082 16.6734 194.624 15.7748C194.172 14.8763 193.934 13.8449 193.912 12.6807V11.9856C193.912 10.7762 194.132 9.71089 194.573 8.78971C195.019 7.86288 195.655 7.14798 196.48 6.645C197.311 6.14203 198.255 5.89054 199.312 5.89054C200.357 5.89054 201.29 6.1392 202.109 6.63653C202.929 7.13385 203.564 7.8431 204.016 8.76428C204.474 9.67981 204.706 10.731 204.712 11.9178V12.4857ZM201.685 11.9686C201.685 10.7423 201.479 9.81262 201.066 9.17966C200.66 8.54105 200.075 8.22175 199.312 8.22175C197.82 8.22175 197.031 9.34072 196.947 11.5787L196.938 12.4857C196.938 13.6951 197.139 14.6248 197.54 15.2747C197.941 15.9246 198.537 16.2496 199.329 16.2496C200.08 16.2496 200.66 15.9303 201.066 15.2917C201.473 14.653 201.68 13.7347 201.685 12.5366V11.9686Z" fill="url(#paint9_linear)"/>
<path d="M220.344 12.4857C220.344 13.6895 220.121 14.7548 219.674 15.6816C219.228 16.6084 218.592 17.3233 217.767 17.8263C216.948 18.3236 216.012 18.5723 214.961 18.5723C213.91 18.5723 212.977 18.3321 212.164 17.8517C211.35 17.3657 210.714 16.6734 210.256 15.7748C209.804 14.8763 209.567 13.8449 209.544 12.6807V11.9856C209.544 10.7762 209.765 9.71089 210.205 8.78971C210.652 7.86288 211.288 7.14798 212.113 6.645C212.944 6.14203 213.887 5.89054 214.944 5.89054C215.99 5.89054 216.922 6.1392 217.742 6.63653C218.561 7.13385 219.197 7.8431 219.649 8.76428C220.107 9.67981 220.338 10.731 220.344 11.9178V12.4857ZM217.318 11.9686C217.318 10.7423 217.111 9.81262 216.699 9.17966C216.292 8.54105 215.707 8.22175 214.944 8.22175C213.452 8.22175 212.664 9.34072 212.579 11.5787L212.571 12.4857C212.571 13.6951 212.771 14.6248 213.172 15.2747C213.574 15.9246 214.17 16.2496 214.961 16.2496C215.713 16.2496 216.292 15.9303 216.699 15.2917C217.106 14.653 217.312 13.7347 217.318 12.5366V11.9686Z" fill="url(#paint10_linear)"/>
<path d="M230.11 14.0455H228.5V18.4028H225.524V6.06008H230.382C231.845 6.06008 232.99 6.38504 233.815 7.03495C234.64 7.68486 235.052 8.60322 235.052 9.79001C235.052 10.649 234.877 11.3611 234.527 11.9262C234.182 12.4914 233.64 12.9491 232.899 13.2995L235.476 18.2756V18.4028H232.289L230.11 14.0455ZM228.5 11.7482H230.382C230.947 11.7482 231.371 11.6013 231.653 11.3074C231.941 11.0079 232.085 10.5925 232.085 10.0613C232.085 9.53005 231.941 9.11467 231.653 8.81514C231.365 8.50997 230.941 8.35738 230.382 8.35738H228.5V11.7482Z" fill="url(#paint11_linear)"/>
<path d="M256.119 13.1724H251.44V16.1139H256.967V18.4028H248.465V6.06008H256.984V8.35738H251.44V10.9599H256.119V13.1724Z" fill="url(#paint12_linear)"/>
<path d="M266.428 10.163L268.446 6.06008H271.845L268.395 12.1806L271.938 18.4028H268.505L266.428 14.2235L264.351 18.4028H260.927L264.462 12.1806L261.02 6.06008H264.411L266.428 10.163Z" fill="url(#paint13_linear)"/>
<path d="M279.535 14.2151V18.4028H276.559V6.06008H281.484C282.428 6.06008 283.262 6.23528 283.985 6.58566C284.714 6.9304 285.276 7.4249 285.672 8.06916C286.073 8.70777 286.274 9.43397 286.274 10.2478C286.274 11.4515 285.842 12.4151 284.977 13.1385C284.118 13.8562 282.937 14.2151 281.433 14.2151H279.535ZM279.535 11.9178H281.484C282.061 11.9178 282.499 11.7737 282.798 11.4854C283.103 11.1972 283.256 10.7903 283.256 10.2647C283.256 9.68829 283.101 9.2277 282.79 8.88296C282.479 8.53822 282.055 8.36303 281.518 8.35738H279.535V11.9178Z" fill="url(#paint14_linear)"/>
<path d="M299.168 13.1724H294.489V16.1139H300.016V18.4028H291.513V6.06008H300.033V8.35738H294.489V10.9599H299.168V13.1724Z" fill="url(#paint15_linear)"/>
<path d="M309.46 14.0455H307.849V18.4028H304.874V6.06008H309.731C311.195 6.06008 312.339 6.38504 313.165 7.03495C313.99 7.68486 314.402 8.60322 314.402 9.79001C314.402 10.649 314.227 11.3611 313.877 11.9262C313.532 12.4914 312.989 12.9491 312.249 13.2995L314.826 18.2756V18.4028H311.639L309.46 14.0455ZM307.849 11.7482H309.731C310.297 11.7482 310.72 11.6013 311.003 11.3074C311.291 11.0079 311.435 10.5925 311.435 10.0613C311.435 9.53005 311.291 9.11467 311.003 8.81514C310.715 8.50997 310.291 8.35738 309.731 8.35738H307.849V11.7482Z" fill="url(#paint16_linear)"/>
<path d="M323.016 18.4028H320.049V6.06008H323.016V18.4028Z" fill="url(#paint17_linear)"/>
<path d="M336.385 13.1724H331.705V16.1139H337.232V18.4028H328.73V6.06008H337.249V8.35738H331.705V10.9599H336.385V13.1724Z" fill="url(#paint18_linear)"/>
<path d="M352.399 18.4028H349.44L345.066 10.7225V18.4028H342.091V6.06008H345.066L349.432 13.7403V6.06008H352.399V18.4028Z" fill="url(#paint19_linear)"/>
<path d="M367.912 14.2235C367.873 15.0826 367.641 15.8427 367.217 16.5039C366.793 17.1594 366.197 17.6681 365.429 18.0298C364.666 18.3914 363.793 18.5723 362.809 18.5723C361.187 18.5723 359.91 18.0439 358.978 16.9871C358.045 15.9303 357.579 14.4383 357.579 12.5112V11.9008C357.579 10.6914 357.788 9.6346 358.206 8.73037C358.63 7.8205 359.238 7.11972 360.029 6.62805C360.82 6.13073 361.735 5.88206 362.775 5.88206C364.273 5.88206 365.477 6.27766 366.387 7.06886C367.296 7.8544 367.814 8.93947 367.938 10.3241H364.971C364.948 9.57243 364.759 9.03272 364.403 8.70494C364.047 8.37716 363.504 8.21327 362.775 8.21327C362.035 8.21327 361.492 8.49019 361.148 9.04403C360.803 9.59786 360.622 10.4823 360.605 11.6974V12.5705C360.605 13.8873 360.769 14.8282 361.097 15.3934C361.43 15.9585 362.001 16.2411 362.809 16.2411C363.493 16.2411 364.016 16.08 364.378 15.7579C364.739 15.4358 364.931 14.9243 364.954 14.2235H367.912Z" fill="url(#paint20_linear)"/>
<path d="M380.62 13.1724H375.941V16.1139H381.468V18.4028H372.965V6.06008H381.485V8.35738H375.941V10.9599H380.62V13.1724Z" fill="url(#paint21_linear)"/>
<path d="M9.35643 2.45097V22.4265H9.98887V2.45097H9.35643Z" fill="#F4B726"/>
<path fill-rule="evenodd" clip-rule="evenodd" d="M0 0H19.0972V25H0V0ZM1.5811 1.5625H17.5161V23.4375H1.5811V1.5625Z" fill="#F4B726"/>
<defs>
<linearGradient id="paint0_linear" x1="306.25" y1="-15.3408" x2="61.9318" y2="30.6819" gradientUnits="userSpaceOnUse">
<stop stop-color="#DB9020"/>
<stop offset="0.572917" stop-color="#FFC806"/>
<stop offset="1" stop-color="#E9A744"/>
</linearGradient>
<linearGradient id="paint1_linear" x1="306.25" y1="-15.3408" x2="61.9318" y2="30.6819" gradientUnits="userSpaceOnUse">
<stop stop-color="#DB9020"/>
<stop offset="0.572917" stop-color="#FFC806"/>
<stop offset="1" stop-color="#E9A744"/>
</linearGradient>
<linearGradient id="paint2_linear" x1="306.25" y1="-15.3408" x2="61.9318" y2="30.6819" gradientUnits="userSpaceOnUse">
<stop stop-color="#DB9020"/>
<stop offset="0.572917" stop-color="#FFC806"/>
<stop offset="1" stop-color="#E9A744"/>
</linearGradient>
<linearGradient id="paint3_linear" x1="306.25" y1="-15.3408" x2="61.9318" y2="30.6819" gradientUnits="userSpaceOnUse">
<stop stop-color="#DB9020"/>
<stop offset="0.572917" stop-color="#FFC806"/>
<stop offset="1" stop-color="#E9A744"/>
</linearGradient>
<linearGradient id="paint4_linear" x1="306.25" y1="-15.3408" x2="61.9318" y2="30.6819" gradientUnits="userSpaceOnUse">
<stop stop-color="#DB9020"/>
<stop offset="0.572917" stop-color="#FFC806"/>
<stop offset="1" stop-color="#E9A744"/>
</linearGradient>
<linearGradient id="paint5_linear" x1="306.25" y1="-15.3408" x2="61.9318" y2="30.6819" gradientUnits="userSpaceOnUse">
<stop stop-color="#DB9020"/>
<stop offset="0.572917" stop-color="#FFC806"/>
<stop offset="1" stop-color="#E9A744"/>
</linearGradient>
<linearGradient id="paint6_linear" x1="306.25" y1="-15.3408" x2="61.9318" y2="30.6819" gradientUnits="userSpaceOnUse">
<stop stop-color="#DB9020"/>
<stop offset="0.572917" stop-color="#FFC806"/>
<stop offset="1" stop-color="#E9A744"/>
</linearGradient>
<linearGradient id="paint7_linear" x1="306.25" y1="-15.3408" x2="61.9318" y2="30.6819" gradientUnits="userSpaceOnUse">
<stop stop-color="#DB9020"/>
<stop offset="0.572917" stop-color="#FFC806"/>
<stop offset="1" stop-color="#E9A744"/>
</linearGradient>
<linearGradient id="paint8_linear" x1="306.25" y1="-15.3408" x2="61.9318" y2="30.6819" gradientUnits="userSpaceOnUse">
<stop stop-color="#DB9020"/>
<stop offset="0.572917" stop-color="#FFC806"/>
<stop offset="1" stop-color="#E9A744"/>
</linearGradient>
<linearGradient id="paint9_linear" x1="306.25" y1="-15.3408" x2="61.9318" y2="30.6819" gradientUnits="userSpaceOnUse">
<stop stop-color="#DB9020"/>
<stop offset="0.572917" stop-color="#FFC806"/>
<stop offset="1" stop-color="#E9A744"/>
</linearGradient>
<linearGradient id="paint10_linear" x1="306.25" y1="-15.3408" x2="61.9318" y2="30.6819" gradientUnits="userSpaceOnUse">
<stop stop-color="#DB9020"/>
<stop offset="0.572917" stop-color="#FFC806"/>
<stop offset="1" stop-color="#E9A744"/>
</linearGradient>
<linearGradient id="paint11_linear" x1="306.25" y1="-15.3408" x2="61.9318" y2="30.6819" gradientUnits="userSpaceOnUse">
<stop stop-color="#DB9020"/>
<stop offset="0.572917" stop-color="#FFC806"/>
<stop offset="1" stop-color="#E9A744"/>
</linearGradient>
<linearGradient id="paint12_linear" x1="306.25" y1="-15.3408" x2="61.9318" y2="30.6819" gradientUnits="userSpaceOnUse">
<stop stop-color="#DB9020"/>
<stop offset="0.572917" stop-color="#FFC806"/>
<stop offset="1" stop-color="#E9A744"/>
</linearGradient>
<linearGradient id="paint13_linear" x1="306.25" y1="-15.3408" x2="61.9318" y2="30.6819" gradientUnits="userSpaceOnUse">
<stop stop-color="#DB9020"/>
<stop offset="0.572917" stop-color="#FFC806"/>
<stop offset="1" stop-color="#E9A744"/>
</linearGradient>
<linearGradient id="paint14_linear" x1="306.25" y1="-15.3408" x2="61.9318" y2="30.6819" gradientUnits="userSpaceOnUse">
<stop stop-color="#DB9020"/>
<stop offset="0.572917" stop-color="#FFC806"/>
<stop offset="1" stop-color="#E9A744"/>
</linearGradient>
<linearGradient id="paint15_linear" x1="306.25" y1="-15.3408" x2="61.9318" y2="30.6819" gradientUnits="userSpaceOnUse">
<stop stop-color="#DB9020"/>
<stop offset="0.572917" stop-color="#FFC806"/>
<stop offset="1" stop-color="#E9A744"/>
</linearGradient>
<linearGradient id="paint16_linear" x1="306.25" y1="-15.3408" x2="61.9318" y2="30.6819" gradientUnits="userSpaceOnUse">
<stop stop-color="#DB9020"/>
<stop offset="0.572917" stop-color="#FFC806"/>
<stop offset="1" stop-color="#E9A744"/>
</linearGradient>
<linearGradient id="paint17_linear" x1="306.25" y1="-15.3408" x2="61.9318" y2="30.6819" gradientUnits="userSpaceOnUse">
<stop stop-color="#DB9020"/>
<stop offset="0.572917" stop-color="#FFC806"/>
<stop offset="1" stop-color="#E9A744"/>
</linearGradient>
<linearGradient id="paint18_linear" x1="306.25" y1="-15.3408" x2="61.9318" y2="30.6819" gradientUnits="userSpaceOnUse">
<stop stop-color="#DB9020"/>
<stop offset="0.572917" stop-color="#FFC806"/>
<stop offset="1" stop-color="#E9A744"/>
</linearGradient>
<linearGradient id="paint19_linear" x1="306.25" y1="-15.3408" x2="61.9318" y2="30.6819" gradientUnits="userSpaceOnUse">
<stop stop-color="#DB9020"/>
<stop offset="0.572917" stop-color="#FFC806"/>
<stop offset="1" stop-color="#E9A744"/>
</linearGradient>
<linearGradient id="paint20_linear" x1="306.25" y1="-15.3408" x2="61.9318" y2="30.6819" gradientUnits="userSpaceOnUse">
<stop stop-color="#DB9020"/>
<stop offset="0.572917" stop-color="#FFC806"/>
<stop offset="1" stop-color="#E9A744"/>
</linearGradient>
<linearGradient id="paint21_linear" x1="306.25" y1="-15.3408" x2="61.9318" y2="30.6819" gradientUnits="userSpaceOnUse">
<stop stop-color="#DB9020"/>
<stop offset="0.572917" stop-color="#FFC806"/>
<stop offset="1" stop-color="#E9A744"/>
</linearGradient>
</defs>
</svg>
