<svg width="458" height="39" viewBox="0 0 458 39" fill="none" xmlns="http://www.w3.org/2000/svg">
<path d="M76.4962 14.9704H72.0508V27.0248H68.4802V14.9704H64.1162V12.2136H76.4962V14.9704Z" fill="url(#paint0_linear)"/>
<path d="M94.7668 27.0248H91.2166V20.8399H85.9574V27.0248H82.3869V12.2136H85.9574V18.0933H91.2166V12.2136H94.7668V27.0248Z" fill="url(#paint1_linear)"/>
<path d="M110.596 20.7484H104.981V24.2782H111.613V27.0248H101.41V12.2136H111.634V14.9704H104.981V18.0933H110.596V20.7484Z" fill="url(#paint2_linear)"/>
<path d="M134.391 27.0248H130.953V16.0792L127.576 17.0659V14.4618L134.076 12.2136H134.391V27.0248Z" fill="url(#paint3_linear)"/>
<path d="M153.516 20.9722C153.516 22.9728 153.065 24.5156 152.163 25.6007C151.268 26.6857 150.004 27.2283 148.369 27.2283C146.721 27.2283 145.446 26.6823 144.544 25.5905C143.642 24.4986 143.191 22.9592 143.191 20.9722V18.2663C143.191 16.2657 143.639 14.7228 144.534 13.6378C145.436 12.5527 146.708 12.0102 148.349 12.0102C149.99 12.0102 151.262 12.5561 152.163 13.6479C153.065 14.7398 153.516 16.2826 153.516 18.2764V20.9722ZM150.088 17.8289C150.088 16.7641 149.949 15.9707 149.671 15.4485C149.393 14.9195 148.952 14.655 148.349 14.655C147.759 14.655 147.328 14.8992 147.057 15.3875C146.792 15.8757 146.65 16.6149 146.63 17.6051V21.3892C146.63 22.4947 146.769 23.3051 147.047 23.8205C147.325 24.3291 147.766 24.5834 148.369 24.5834C148.952 24.5834 149.383 24.3359 149.661 23.8408C149.939 23.339 150.082 22.5557 150.088 21.491V17.8289Z" fill="url(#paint4_linear)"/>
<path d="M169.956 20.9722C169.956 22.9728 169.505 24.5156 168.603 25.6007C167.708 26.6857 166.443 27.2283 164.809 27.2283C163.161 27.2283 161.886 26.6823 160.984 25.5905C160.082 24.4986 159.631 22.9592 159.631 20.9722V18.2663C159.631 16.2657 160.079 14.7228 160.974 13.6378C161.876 12.5527 163.147 12.0102 164.788 12.0102C166.43 12.0102 167.701 12.5561 168.603 13.6479C169.505 14.7398 169.956 16.2826 169.956 18.2764V20.9722ZM166.528 17.8289C166.528 16.7641 166.389 15.9707 166.111 15.4485C165.833 14.9195 165.392 14.655 164.788 14.655C164.198 14.655 163.768 14.8992 163.496 15.3875C163.232 15.8757 163.09 16.6149 163.069 17.6051V21.3892C163.069 22.4947 163.208 23.3051 163.486 23.8205C163.764 24.3291 164.205 24.5834 164.809 24.5834C165.392 24.5834 165.823 24.3359 166.101 23.8408C166.379 23.339 166.521 22.5557 166.528 21.491V17.8289Z" fill="url(#paint5_linear)"/>
<path d="M186.396 20.9722C186.396 22.9728 185.945 24.5156 185.043 25.6007C184.148 26.6857 182.883 27.2283 181.248 27.2283C179.6 27.2283 178.325 26.6823 177.424 25.5905C176.522 24.4986 176.071 22.9592 176.071 20.9722V18.2663C176.071 16.2657 176.518 14.7228 177.413 13.6378C178.315 12.5527 179.587 12.0102 181.228 12.0102C182.869 12.0102 184.141 12.5561 185.043 13.6479C185.945 14.7398 186.396 16.2826 186.396 18.2764V20.9722ZM182.968 17.8289C182.968 16.7641 182.828 15.9707 182.55 15.4485C182.272 14.9195 181.832 14.655 181.228 14.655C180.638 14.655 180.207 14.8992 179.936 15.3875C179.672 15.8757 179.529 16.6149 179.509 17.6051V21.3892C179.509 22.4947 179.648 23.3051 179.926 23.8205C180.204 24.3291 180.645 24.5834 181.248 24.5834C181.832 24.5834 182.262 24.3359 182.54 23.8408C182.818 23.339 182.961 22.5557 182.968 21.491V17.8289Z" fill="url(#paint6_linear)"/>
<path d="M211.656 21.1248H205.898V27.0248H202.327V12.2136H212.236V14.9704H205.898V18.3782H211.656V21.1248Z" fill="url(#paint7_linear)"/>
<path d="M221.666 24.2782H227.882V27.0248H218.096V12.2136H221.666V24.2782Z" fill="url(#paint8_linear)"/>
<path d="M245.654 19.9244C245.654 21.3689 245.386 22.6472 244.85 23.7594C244.314 24.8716 243.552 25.7295 242.561 26.3331C241.578 26.9299 240.456 27.2283 239.194 27.2283C237.933 27.2283 236.814 26.94 235.837 26.3636C234.861 25.7804 234.098 24.9496 233.549 23.8713C233.006 22.793 232.721 21.5554 232.694 20.1584V19.3242C232.694 17.8729 232.959 16.5946 233.488 15.4892C234.023 14.377 234.786 13.5191 235.776 12.9155C236.773 12.312 237.906 12.0102 239.174 12.0102C240.429 12.0102 241.548 12.3086 242.531 12.9054C243.514 13.5021 244.277 14.3532 244.82 15.4587C245.369 16.5573 245.647 17.8187 245.654 19.2428V19.9244ZM242.022 19.3039C242.022 17.8322 241.775 16.7167 241.28 15.9571C240.791 15.1908 240.09 14.8076 239.174 14.8076C237.384 14.8076 236.438 16.1504 236.336 18.8359L236.326 19.9244C236.326 21.3757 236.566 22.4913 237.048 23.2712C237.529 24.0511 238.245 24.441 239.194 24.441C240.096 24.441 240.791 24.0578 241.28 23.2915C241.768 22.5252 242.016 21.4232 242.022 19.9854V19.3039Z" fill="url(#paint9_linear)"/>
<path d="M264.413 19.9244C264.413 21.3689 264.145 22.6472 263.609 23.7594C263.073 24.8716 262.311 25.7295 261.32 26.3331C260.337 26.9299 259.215 27.2283 257.953 27.2283C256.692 27.2283 255.573 26.94 254.596 26.3636C253.62 25.7804 252.857 24.9496 252.308 23.8713C251.765 22.793 251.48 21.5554 251.453 20.1584V19.3242C251.453 17.8729 251.718 16.5946 252.246 15.4892C252.782 14.377 253.545 13.5191 254.535 12.9155C255.532 12.312 256.665 12.0102 257.933 12.0102C259.188 12.0102 260.307 12.3086 261.29 12.9054C262.273 13.5021 263.036 14.3532 263.579 15.4587C264.128 16.5573 264.406 17.8187 264.413 19.2428V19.9244ZM260.781 19.3039C260.781 17.8322 260.534 16.7167 260.039 15.9571C259.55 15.1908 258.848 14.8076 257.933 14.8076C256.143 14.8076 255.197 16.1504 255.095 18.8359L255.085 19.9244C255.085 21.3757 255.325 22.4913 255.807 23.2712C256.288 24.0511 257.004 24.441 257.953 24.441C258.855 24.441 259.55 24.0578 260.039 23.2915C260.527 22.5252 260.774 21.4232 260.781 19.9854V19.3039Z" fill="url(#paint10_linear)"/>
<path d="M276.132 21.7961H274.2V27.0248H270.629V12.2136H276.458C278.214 12.2136 279.588 12.6036 280.578 13.3835C281.568 14.1634 282.063 15.2654 282.063 16.6895C282.063 17.7204 281.853 18.5748 281.432 19.253C281.019 19.9312 280.368 20.4805 279.479 20.901L282.572 26.8722V27.0248H278.747L276.132 21.7961ZM274.2 19.0394H276.458C277.136 19.0394 277.645 18.8631 277.984 18.5104C278.33 18.151 278.503 17.6525 278.503 17.0151C278.503 16.3776 278.33 15.8791 277.984 15.5197C277.638 15.1535 277.129 14.9704 276.458 14.9704H274.2V19.0394Z" fill="url(#paint11_linear)"/>
<path d="M307.343 20.7484H301.728V24.2782H308.361V27.0248H298.158V12.2136H308.381V14.9704H301.728V18.0933H307.343V20.7484Z" fill="url(#paint12_linear)"/>
<path d="M319.714 17.1371L322.135 12.2136H326.214L322.074 19.5582L326.326 27.0248H322.206L319.714 22.0098L317.222 27.0248H313.112L317.354 19.5582L313.224 12.2136H317.293L319.714 17.1371Z" fill="url(#paint13_linear)"/>
<path d="M335.441 21.9996V27.0248H331.871V12.2136H337.781C338.914 12.2136 339.914 12.4239 340.782 12.8443C341.657 13.258 342.332 13.8514 342.806 14.6245C343.288 15.3908 343.529 16.2623 343.529 17.2389C343.529 18.6833 343.01 19.8396 341.972 20.7077C340.941 21.569 339.524 21.9996 337.72 21.9996H335.441ZM335.441 19.2428H337.781C338.473 19.2428 338.998 19.0699 339.358 18.724C339.724 18.3782 339.907 17.8899 339.907 17.2592C339.907 16.5675 339.721 16.0148 339.348 15.6011C338.975 15.1874 338.466 14.9772 337.822 14.9704H335.441V19.2428Z" fill="url(#paint14_linear)"/>
<path d="M359.002 20.7484H353.387V24.2782H360.019V27.0248H349.816V12.2136H360.039V14.9704H353.387V18.0933H359.002V20.7484Z" fill="url(#paint15_linear)"/>
<path d="M371.352 21.7961H369.419V27.0248H365.849V12.2136H371.678C373.434 12.2136 374.807 12.6036 375.798 13.3835C376.788 14.1634 377.283 15.2654 377.283 16.6895C377.283 17.7204 377.072 18.5748 376.652 19.253C376.238 19.9312 375.587 20.4805 374.699 20.901L377.791 26.8722V27.0248H373.966L371.352 21.7961ZM369.419 19.0394H371.678C372.356 19.0394 372.864 18.8631 373.204 18.5104C373.549 18.151 373.722 17.6525 373.722 17.0151C373.722 16.3776 373.549 15.8791 373.204 15.5197C372.858 15.1535 372.349 14.9704 371.678 14.9704H369.419V19.0394Z" fill="url(#paint16_linear)"/>
<path d="M387.619 27.0248H384.058V12.2136H387.619V27.0248Z" fill="url(#paint17_linear)"/>
<path d="M403.662 20.7484H398.046V24.2782H404.679V27.0248H394.476V12.2136H404.699V14.9704H398.046V18.0933H403.662V20.7484Z" fill="url(#paint18_linear)"/>
<path d="M422.878 27.0248H419.328L414.079 17.8085V27.0248H410.509V12.2136H414.079L419.318 21.4299V12.2136H422.878V27.0248Z" fill="url(#paint19_linear)"/>
<path d="M441.495 22.0098C441.447 23.0406 441.169 23.9527 440.661 24.7462C440.152 25.5329 439.437 26.1432 438.514 26.5772C437.599 27.0113 436.551 27.2283 435.371 27.2283C433.425 27.2283 431.892 26.5942 430.773 25.326C429.654 24.0578 429.095 22.2675 429.095 19.9549V19.2225C429.095 17.7712 429.346 16.503 429.847 15.418C430.356 14.3261 431.085 13.4852 432.034 12.8952C432.984 12.2984 434.083 12 435.33 12C437.128 12 438.572 12.4747 439.664 13.4242C440.756 14.3668 441.376 15.6689 441.525 17.3304H437.965C437.938 16.4284 437.711 15.7808 437.284 15.3875C436.856 14.9941 436.205 14.7974 435.33 14.7974C434.442 14.7974 433.791 15.1297 433.377 15.7944C432.964 16.459 432.747 17.5203 432.726 18.9784V20.0261C432.726 21.6063 432.923 22.7354 433.316 23.4136C433.716 24.0917 434.401 24.4308 435.371 24.4308C436.192 24.4308 436.819 24.2375 437.253 23.851C437.687 23.4644 437.918 22.8507 437.945 22.0098H441.495Z" fill="url(#paint20_linear)"/>
<path d="M456.744 20.7484H451.129V24.2782H457.762V27.0248H447.559V12.2136H457.782V14.9704H451.129V18.0933H456.744V20.7484Z" fill="url(#paint21_linear)"/>
<path d="M14.596 3.82352V34.9853H15.5826V3.82352H14.596Z" fill="url(#paint22_linear)"/>
<path fill-rule="evenodd" clip-rule="evenodd" d="M0 0H29.7917V39H0V0ZM2.46652 2.4375H27.3251V36.5625H2.46652V2.4375Z" fill="url(#paint23_linear)"/>
<defs>
<linearGradient id="paint0_linear" x1="367.5" y1="-13.4674" x2="74.3181" y2="41.7597" gradientUnits="userSpaceOnUse">
<stop stop-color="#827C75"/>
<stop offset="0.572917" stop-color="#EBEBEB"/>
<stop offset="1" stop-color="#8C8A88"/>
</linearGradient>
<linearGradient id="paint1_linear" x1="367.5" y1="-13.4674" x2="74.3181" y2="41.7597" gradientUnits="userSpaceOnUse">
<stop stop-color="#827C75"/>
<stop offset="0.572917" stop-color="#EBEBEB"/>
<stop offset="1" stop-color="#8C8A88"/>
</linearGradient>
<linearGradient id="paint2_linear" x1="367.5" y1="-13.4674" x2="74.3181" y2="41.7597" gradientUnits="userSpaceOnUse">
<stop stop-color="#827C75"/>
<stop offset="0.572917" stop-color="#EBEBEB"/>
<stop offset="1" stop-color="#8C8A88"/>
</linearGradient>
<linearGradient id="paint3_linear" x1="367.5" y1="-13.4674" x2="74.3181" y2="41.7597" gradientUnits="userSpaceOnUse">
<stop stop-color="#827C75"/>
<stop offset="0.572917" stop-color="#EBEBEB"/>
<stop offset="1" stop-color="#8C8A88"/>
</linearGradient>
<linearGradient id="paint4_linear" x1="367.5" y1="-13.4674" x2="74.3181" y2="41.7597" gradientUnits="userSpaceOnUse">
<stop stop-color="#827C75"/>
<stop offset="0.572917" stop-color="#EBEBEB"/>
<stop offset="1" stop-color="#8C8A88"/>
</linearGradient>
<linearGradient id="paint5_linear" x1="367.5" y1="-13.4674" x2="74.3181" y2="41.7597" gradientUnits="userSpaceOnUse">
<stop stop-color="#827C75"/>
<stop offset="0.572917" stop-color="#EBEBEB"/>
<stop offset="1" stop-color="#8C8A88"/>
</linearGradient>
<linearGradient id="paint6_linear" x1="367.5" y1="-13.4674" x2="74.3181" y2="41.7597" gradientUnits="userSpaceOnUse">
<stop stop-color="#827C75"/>
<stop offset="0.572917" stop-color="#EBEBEB"/>
<stop offset="1" stop-color="#8C8A88"/>
</linearGradient>
<linearGradient id="paint7_linear" x1="367.5" y1="-13.4674" x2="74.3181" y2="41.7597" gradientUnits="userSpaceOnUse">
<stop stop-color="#827C75"/>
<stop offset="0.572917" stop-color="#EBEBEB"/>
<stop offset="1" stop-color="#8C8A88"/>
</linearGradient>
<linearGradient id="paint8_linear" x1="367.5" y1="-13.4674" x2="74.3181" y2="41.7597" gradientUnits="userSpaceOnUse">
<stop stop-color="#827C75"/>
<stop offset="0.572917" stop-color="#EBEBEB"/>
<stop offset="1" stop-color="#8C8A88"/>
</linearGradient>
<linearGradient id="paint9_linear" x1="367.5" y1="-13.4674" x2="74.3181" y2="41.7597" gradientUnits="userSpaceOnUse">
<stop stop-color="#827C75"/>
<stop offset="0.572917" stop-color="#EBEBEB"/>
<stop offset="1" stop-color="#8C8A88"/>
</linearGradient>
<linearGradient id="paint10_linear" x1="367.5" y1="-13.4674" x2="74.3181" y2="41.7597" gradientUnits="userSpaceOnUse">
<stop stop-color="#827C75"/>
<stop offset="0.572917" stop-color="#EBEBEB"/>
<stop offset="1" stop-color="#8C8A88"/>
</linearGradient>
<linearGradient id="paint11_linear" x1="367.5" y1="-13.4674" x2="74.3181" y2="41.7597" gradientUnits="userSpaceOnUse">
<stop stop-color="#827C75"/>
<stop offset="0.572917" stop-color="#EBEBEB"/>
<stop offset="1" stop-color="#8C8A88"/>
</linearGradient>
<linearGradient id="paint12_linear" x1="367.5" y1="-13.4674" x2="74.3181" y2="41.7597" gradientUnits="userSpaceOnUse">
<stop stop-color="#827C75"/>
<stop offset="0.572917" stop-color="#EBEBEB"/>
<stop offset="1" stop-color="#8C8A88"/>
</linearGradient>
<linearGradient id="paint13_linear" x1="367.5" y1="-13.4674" x2="74.3181" y2="41.7597" gradientUnits="userSpaceOnUse">
<stop stop-color="#827C75"/>
<stop offset="0.572917" stop-color="#EBEBEB"/>
<stop offset="1" stop-color="#8C8A88"/>
</linearGradient>
<linearGradient id="paint14_linear" x1="367.5" y1="-13.4674" x2="74.3181" y2="41.7597" gradientUnits="userSpaceOnUse">
<stop stop-color="#827C75"/>
<stop offset="0.572917" stop-color="#EBEBEB"/>
<stop offset="1" stop-color="#8C8A88"/>
</linearGradient>
<linearGradient id="paint15_linear" x1="367.5" y1="-13.4674" x2="74.3181" y2="41.7597" gradientUnits="userSpaceOnUse">
<stop stop-color="#827C75"/>
<stop offset="0.572917" stop-color="#EBEBEB"/>
<stop offset="1" stop-color="#8C8A88"/>
</linearGradient>
<linearGradient id="paint16_linear" x1="367.5" y1="-13.4674" x2="74.3181" y2="41.7597" gradientUnits="userSpaceOnUse">
<stop stop-color="#827C75"/>
<stop offset="0.572917" stop-color="#EBEBEB"/>
<stop offset="1" stop-color="#8C8A88"/>
</linearGradient>
<linearGradient id="paint17_linear" x1="367.5" y1="-13.4674" x2="74.3181" y2="41.7597" gradientUnits="userSpaceOnUse">
<stop stop-color="#827C75"/>
<stop offset="0.572917" stop-color="#EBEBEB"/>
<stop offset="1" stop-color="#8C8A88"/>
</linearGradient>
<linearGradient id="paint18_linear" x1="367.5" y1="-13.4674" x2="74.3181" y2="41.7597" gradientUnits="userSpaceOnUse">
<stop stop-color="#827C75"/>
<stop offset="0.572917" stop-color="#EBEBEB"/>
<stop offset="1" stop-color="#8C8A88"/>
</linearGradient>
<linearGradient id="paint19_linear" x1="367.5" y1="-13.4674" x2="74.3181" y2="41.7597" gradientUnits="userSpaceOnUse">
<stop stop-color="#827C75"/>
<stop offset="0.572917" stop-color="#EBEBEB"/>
<stop offset="1" stop-color="#8C8A88"/>
</linearGradient>
<linearGradient id="paint20_linear" x1="367.5" y1="-13.4674" x2="74.3181" y2="41.7597" gradientUnits="userSpaceOnUse">
<stop stop-color="#827C75"/>
<stop offset="0.572917" stop-color="#EBEBEB"/>
<stop offset="1" stop-color="#8C8A88"/>
</linearGradient>
<linearGradient id="paint21_linear" x1="367.5" y1="-13.4674" x2="74.3181" y2="41.7597" gradientUnits="userSpaceOnUse">
<stop stop-color="#827C75"/>
<stop offset="0.572917" stop-color="#EBEBEB"/>
<stop offset="1" stop-color="#8C8A88"/>
</linearGradient>
<linearGradient id="paint22_linear" x1="44" y1="5" x2="-5.5" y2="33.5" gradientUnits="userSpaceOnUse">
<stop stop-color="#918E8C"/>
<stop offset="0.317708" stop-color="#D0CFCD"/>
<stop offset="1" stop-color="#A5A3A1"/>
</linearGradient>
<linearGradient id="paint23_linear" x1="44" y1="5" x2="-5.5" y2="33.5" gradientUnits="userSpaceOnUse">
<stop stop-color="#918E8C"/>
<stop offset="0.317708" stop-color="#D0CFCD"/>
<stop offset="1" stop-color="#A5A3A1"/>
</linearGradient>
</defs>
</svg>
