<svg width="101" height="39" viewBox="0 0 101 39" fill="none" xmlns="http://www.w3.org/2000/svg">
<path d="M43.5944 32.5629C42.6694 32.5629 41.8874 32.2796 41.2484 31.7128C40.6093 31.1461 40.2898 30.4209 40.2898 29.5375C40.2898 28.3706 40.9709 27.4788 42.3331 26.8621C41.4754 26.4287 41.0466 25.7703 41.0466 24.8868C41.0466 24.3367 41.2652 23.8616 41.7024 23.4616C42.1397 23.0449 42.7031 22.7531 43.3926 22.5864C42.0977 21.803 41.4502 20.6195 41.4502 19.0359C41.4502 17.6524 41.9547 16.5606 42.9637 15.7604C43.9896 14.9603 45.4443 14.5603 47.3278 14.5603C48.3537 14.5603 49.245 14.6853 50.0018 14.9353C50.5063 14.6186 50.8679 14.2435 51.0865 13.8101C51.322 13.3601 51.4397 12.9767 51.4397 12.66H54.82C54.82 13.5768 54.5677 14.3186 54.0632 14.8853C53.5755 15.4354 52.8776 15.8104 51.9694 16.0105C52.8103 16.7939 53.2307 17.8024 53.2307 19.0359C53.2307 20.4195 52.7346 21.5113 51.7424 22.3114C50.767 23.1115 49.3627 23.5116 47.5296 23.5116H45.5116C45.2089 23.5116 44.965 23.5783 44.78 23.7116C44.6118 23.845 44.5278 24.0283 44.5278 24.2617C44.5278 24.4617 44.6034 24.6368 44.7548 24.7868C44.9061 24.9201 45.108 24.9868 45.3602 24.9868H51.3892C52.3646 24.9868 53.1803 25.3119 53.8361 25.962C54.492 26.612 54.82 27.4622 54.82 28.5123C54.82 29.3124 54.6013 30.0209 54.1641 30.6376C53.7268 31.2544 53.1298 31.7295 52.373 32.0629C51.6163 32.3962 50.7838 32.5629 49.8757 32.5629H43.5944ZM47.3278 21.1862C48.1351 21.1862 48.7489 21.0029 49.1693 20.6362C49.5898 20.2528 49.8 19.7194 49.8 19.0359C49.8 18.3525 49.5898 17.8274 49.1693 17.4607C48.7489 17.0773 48.1351 16.8856 47.3278 16.8856C46.5206 16.8856 45.9068 17.0773 45.4863 17.4607C45.0827 17.8274 44.8809 18.3525 44.8809 19.0359C44.8809 19.7194 45.0827 20.2528 45.4863 20.6362C45.9068 21.0029 46.5206 21.1862 47.3278 21.1862ZM49.8252 30.1876C50.2625 30.1876 50.624 30.0792 50.9099 29.8625C51.1958 29.6458 51.3388 29.3625 51.3388 29.0124C51.3388 28.6457 51.2042 28.3623 50.9352 28.1623C50.6829 27.9622 50.3634 27.8622 49.9766 27.8622H45.108C44.738 27.8622 44.4184 27.9706 44.1494 28.1873C43.8971 28.404 43.771 28.679 43.771 29.0124C43.771 29.3625 43.8971 29.6458 44.1494 29.8625C44.4016 30.0792 44.7212 30.1876 45.108 30.1876H49.8252Z" fill="white"/>
<path d="M56.8968 14.8603H59.8482L60.1257 16.9856H60.3023C60.5882 16.2355 60.9581 15.6438 61.4122 15.2104C61.8663 14.777 62.4633 14.5603 63.2033 14.5603C63.691 14.5603 64.1282 14.6353 64.515 14.7853V17.9858H63.5564C62.4297 17.9858 61.614 18.2941 61.1095 18.9109C60.605 19.511 60.3527 20.4278 60.3527 21.6613V28.0123H56.8968V14.8603Z" fill="white"/>
<path d="M71.1412 28.3123C69.4594 28.3123 68.1561 27.7455 67.2311 26.612C66.3062 25.4619 65.8437 23.7283 65.8437 21.4113C65.8437 19.1443 66.3062 17.4357 67.2311 16.2855C68.1729 15.1353 69.4174 14.5603 70.9646 14.5603C71.8559 14.5603 72.6379 14.7186 73.3106 15.0353C74.0001 15.352 74.5383 15.8021 74.9251 16.3855H75.0764V9.93457H78.5324V28.0123H75.5809L75.3539 26.287H75.1773C74.7569 26.9538 74.1935 27.4622 73.4872 27.8122C72.7808 28.1456 71.9988 28.3123 71.1412 28.3123ZM72.2511 25.3369C74.1346 25.3369 75.0764 24.1117 75.0764 21.6613V21.2613C75.0764 18.7776 74.1346 17.5357 72.2511 17.5357C71.2252 17.5357 70.4937 17.8441 70.0564 18.4608C69.6192 19.0609 69.4006 19.9777 69.4006 21.2112V21.6613C69.4006 22.8948 69.6192 23.82 70.0564 24.4367C70.4937 25.0368 71.2252 25.3369 72.2511 25.3369Z" fill="white"/>
<path d="M82.1227 14.8603H85.0742L85.3264 16.5856H85.503C86.5793 15.2354 87.9583 14.5603 89.6401 14.5603C91.0023 14.5603 92.0702 14.927 92.8438 15.6604C93.6342 16.3939 94.0294 17.569 94.0294 19.1859V28.0123H90.5734V19.9111C90.5734 19.0943 90.38 18.5025 89.9932 18.1358C89.6064 17.7691 89.0346 17.5857 88.2779 17.5857C87.5043 17.5857 86.8568 17.8607 86.3355 18.4108C85.831 18.9442 85.5787 19.611 85.5787 20.4111V28.0123H82.1227V14.8603Z" fill="white"/>
<path d="M97.5189 24.5867H101V28.0123H97.5189V24.5867Z" fill="white"/>
<path d="M19.528 6.11678C25.8993 7.27967 32.4109 3.1644 35.6643 0.293165C36.1837 -0.165188 37.0083 -0.0826432 37.352 0.51668C43.6874 11.5645 32.0938 16.6336 25.5144 18.7998C20.0722 20.5916 20.7797 32.769 21.8137 38.6338C18.0948 27.2551 12.4313 4.8215 19.528 6.11678Z" fill="url(#paint0_linear)"/>
<path d="M9.22396 17.8541C7.11489 20.1433 3.54148 20.619 1.19024 20.5496C0.49601 20.5291 -0.117465 21.0923 0.0192182 21.7676C1.21947 27.6976 7.42537 26.2187 10.7805 25.0838C13.649 24.1136 17.2667 29.4587 18.7169 32.2525C16.6246 26.2895 11.7967 15.0616 9.22396 17.8541Z" fill="url(#paint1_linear)"/>
<defs>
<linearGradient id="paint0_linear" x1="9.71989" y1="10.0387" x2="22.1593" y2="38.7157" gradientUnits="userSpaceOnUse">
<stop offset="0.00520833" stop-color="#21DC8F"/>
<stop offset="0.322917" stop-color="#18CFA0"/>
<stop offset="1" stop-color="#07AE94"/>
</linearGradient>
<linearGradient id="paint1_linear" x1="9.71989" y1="10.0387" x2="22.1593" y2="38.7157" gradientUnits="userSpaceOnUse">
<stop offset="0.00520833" stop-color="#21DC8F"/>
<stop offset="0.322917" stop-color="#18CFA0"/>
<stop offset="1" stop-color="#07AE94"/>
</linearGradient>
</defs>
</svg>
