<svg width="456" height="231" viewBox="0 0 456 231" fill="none" xmlns="http://www.w3.org/2000/svg">
<path d="M0 4.00001C0 1.79087 1.79086 0 4 0H452C454.209 0 456 1.79086 456 4V227C456 229.209 454.209 231 452 231H4.00001C1.79087 231 0 229.209 0 227V4.00001Z" fill="url(#paint0_linear)"/>
<path d="M68.8358 56.5161C68.042 56.5161 67.371 56.2689 66.8226 55.7744C66.2742 55.28 66 54.6473 66 53.8766C66 52.8586 66.5845 52.0805 67.7534 51.5424C67.0174 51.1643 66.6494 50.5899 66.6494 49.8191C66.6494 49.3392 66.837 48.9247 67.2122 48.5757C67.5874 48.2121 68.0709 47.9576 68.6626 47.8122C67.5514 47.1287 66.9958 46.0961 66.9958 44.7146C66.9958 43.5075 67.4287 42.555 68.2946 41.8569C69.1749 41.1588 70.4232 40.8098 72.0395 40.8098C72.9198 40.8098 73.6847 40.9189 74.3341 41.137C74.767 40.8607 75.0773 40.5335 75.2649 40.1554C75.4669 39.7627 75.568 39.4282 75.568 39.1519H78.4686C78.4686 39.9518 78.2522 40.5989 77.8192 41.0934C77.4007 41.5733 76.8018 41.9005 76.0225 42.075C76.7441 42.7586 77.1049 43.6384 77.1049 44.7146C77.1049 45.9216 76.6792 46.8742 75.8277 47.5722C74.9907 48.2703 73.7857 48.6193 72.2127 48.6193H70.4809C70.2212 48.6193 70.0119 48.6775 69.8532 48.7938C69.7088 48.9102 69.6367 49.0702 69.6367 49.2738C69.6367 49.4483 69.7016 49.601 69.8315 49.7319C69.9614 49.8482 70.1346 49.9064 70.351 49.9064H75.5247C76.3617 49.9064 77.0616 50.19 77.6244 50.7571C78.1872 51.3243 78.4686 52.066 78.4686 52.9822C78.4686 53.6802 78.281 54.2983 77.9058 54.8364C77.5306 55.3745 77.0183 55.789 76.3689 56.0798C75.7195 56.3707 75.0051 56.5161 74.2258 56.5161H68.8358ZM72.0395 46.5906C72.7322 46.5906 73.2589 46.4306 73.6197 46.1107C73.9805 45.7762 74.1609 45.3108 74.1609 44.7146C74.1609 44.1183 73.9805 43.6602 73.6197 43.3403C73.2589 43.0058 72.7322 42.8385 72.0395 42.8385C71.3468 42.8385 70.8201 43.0058 70.4593 43.3403C70.1129 43.6602 69.9397 44.1183 69.9397 44.7146C69.9397 45.3108 70.1129 45.7762 70.4593 46.1107C70.8201 46.4306 71.3468 46.5906 72.0395 46.5906ZM74.1825 54.4437C74.5578 54.4437 74.868 54.3492 75.1134 54.1602C75.3587 53.9711 75.4814 53.7239 75.4814 53.4185C75.4814 53.0985 75.3659 52.8513 75.135 52.6768C74.9185 52.5023 74.6444 52.415 74.3124 52.415H70.1346C69.8171 52.415 69.5429 52.5095 69.312 52.6986C69.0955 52.8877 68.9873 53.1276 68.9873 53.4185C68.9873 53.7239 69.0955 53.9711 69.312 54.1602C69.5285 54.3492 69.8026 54.4437 70.1346 54.4437H74.1825Z" fill="white"/>
<path d="M80.2508 41.0716H82.7835L83.0216 42.9258H83.1731C83.4185 42.2714 83.736 41.7551 84.1256 41.377C84.5152 40.9989 85.0276 40.8098 85.6625 40.8098C86.081 40.8098 86.4563 40.8753 86.7882 41.0061V43.7984H85.9656C84.9987 43.7984 84.2988 44.0674 83.8658 44.6055C83.4329 45.129 83.2164 45.9289 83.2164 47.0051V52.5459H80.2508V41.0716Z" fill="white"/>
<path d="M92.4742 52.8077C91.0311 52.8077 89.9127 52.3132 89.1189 51.3243C88.3252 50.3208 87.9284 48.8084 87.9284 46.7869C87.9284 44.8091 88.3252 43.3185 89.1189 42.315C89.9271 41.3115 90.995 40.8098 92.3227 40.8098C93.0876 40.8098 93.7586 40.948 94.3359 41.2243C94.9275 41.5006 95.3893 41.8933 95.7213 42.4023H95.8511V36.7742H98.8168V52.5459H96.2841L96.0893 51.0407H95.9377C95.577 51.6224 95.0935 52.066 94.4874 52.3714C93.8813 52.6622 93.2102 52.8077 92.4742 52.8077ZM93.4267 50.2118C95.043 50.2118 95.8511 49.1429 95.8511 47.0051V46.656C95.8511 44.4892 95.043 43.4057 93.4267 43.4057C92.5464 43.4057 91.9186 43.6748 91.5434 44.2128C91.1682 44.7364 90.9806 45.5362 90.9806 46.6124V47.0051C90.9806 48.0812 91.1682 48.8884 91.5434 49.4265C91.9186 49.95 92.5464 50.2118 93.4267 50.2118Z" fill="white"/>
<path d="M101.898 41.0716H104.43L104.647 42.5768H104.798C105.722 41.3988 106.905 40.8098 108.349 40.8098C109.517 40.8098 110.434 41.1298 111.098 41.7696C111.776 42.4095 112.115 43.4348 112.115 44.8455V52.5459H109.149V45.4781C109.149 44.7655 108.984 44.2492 108.652 43.9293C108.32 43.6093 107.829 43.4493 107.18 43.4493C106.516 43.4493 105.96 43.6893 105.513 44.1692C105.08 44.6346 104.863 45.2163 104.863 45.9144V52.5459H101.898V41.0716Z" fill="white"/>
<path d="M115.109 49.5573H118.097V52.5459H115.109V49.5573Z" fill="white"/>
<path d="M48.6704 33.3831C54.1094 34.4065 59.6682 30.7849 62.4455 28.258C62.8889 27.8546 63.5929 27.9273 63.8862 28.4547C69.2946 38.1775 59.3975 42.6385 53.7809 44.5449C49.135 46.1218 49.739 56.8387 50.6217 62C47.447 51.9861 42.6122 32.2432 48.6704 33.3831Z" fill="white"/>
<path d="M39.8742 43.7126C38.0738 45.7273 35.0233 46.1459 33.0161 46.0849C32.4234 46.0668 31.8997 46.5625 32.0164 47.1568C33.041 52.3755 38.3388 51.074 41.203 50.0752C43.6518 49.2214 46.74 53.9254 47.978 56.3841C46.1919 51.1363 42.0705 41.2551 39.8742 43.7126Z" fill="white"/>
<path d="M34.3182 99H44.2301V97.5682H35.9119V81.5455H34.3182V99ZM51.1591 99.2983C53.3409 99.2983 54.6705 98.0881 55.2159 96.929H55.3097V99H56.8267V90.1108C56.8267 86.5994 54.1847 85.7301 52.1818 85.7301C50.179 85.7301 48.1165 86.5227 47.2301 88.6619L48.6705 89.1818C49.1477 88.0568 50.3324 87.0938 52.2244 87.0938C54.2102 87.0938 55.3097 88.1847 55.3097 89.9744V90.2812C55.3097 91.2699 54.0824 91.2869 51.8835 91.5597C48.9261 91.9261 46.8551 92.7528 46.8551 95.3438C46.8551 97.8665 48.7812 99.2983 51.1591 99.2983ZM51.3636 97.9091C49.6506 97.9091 48.3722 96.9972 48.3722 95.4119C48.3722 93.8267 49.6676 93.1619 51.8835 92.8892C52.9574 92.7614 54.8665 92.5227 55.3097 92.0881V93.9801C55.3097 96.1278 53.7841 97.9091 51.3636 97.9091ZM62.3793 90.8182C62.3793 88.5341 63.8793 87.1278 65.9418 87.1278C67.9531 87.1278 69.2486 88.4744 69.2486 90.6136V99H70.7656V90.5199C70.7656 87.4176 68.9673 85.7386 66.3253 85.7386C64.4077 85.7386 63.0866 86.625 62.473 87.9631H62.3366V85.9091H60.8622V99H62.3793V90.8182ZM79.4737 99.2727C81.8516 99.2727 82.9595 97.7642 83.4964 96.571H83.6754V99H85.1584V81.5455H83.6328V88.4062H83.4964C82.9766 87.2301 81.8942 85.7301 79.4993 85.7301C76.2692 85.7301 74.0874 88.4574 74.0874 92.4886C74.0874 96.554 76.2607 99.2727 79.4737 99.2727ZM79.6527 97.8835C77.0447 97.8835 75.6129 95.5142 75.6129 92.4631C75.6129 89.446 77.0277 87.1108 79.6527 87.1108C82.2095 87.1108 83.6584 89.3267 83.6584 92.4631C83.6584 95.625 82.1925 97.8835 79.6527 97.8835ZM89.4964 99H91.022V85.9091H89.4964V99ZM90.272 83.6591C90.8942 83.6591 91.4141 83.1648 91.4141 82.5682C91.4141 81.9716 90.8942 81.4773 90.272 81.4773C89.6499 81.4773 89.1385 81.9716 89.1385 82.5682C89.1385 83.1648 89.6499 83.6591 90.272 83.6591ZM96.5511 90.8182C96.5511 88.5341 98.0511 87.1278 100.114 87.1278C102.125 87.1278 103.42 88.4744 103.42 90.6136V99H104.938V90.5199C104.938 87.4176 103.139 85.7386 100.497 85.7386C98.5795 85.7386 97.2585 86.625 96.6449 87.9631H96.5085V85.9091H95.0341V99H96.5511V90.8182ZM113.927 104.182C117.029 104.182 119.33 102.665 119.33 99.3409V85.9091H117.847V88.4062H117.694C117.157 87.2301 116.075 85.7301 113.671 85.7301C110.433 85.7301 108.259 88.4403 108.259 92.4205C108.259 96.4347 110.509 98.8636 113.646 98.8636C115.998 98.8636 117.148 97.5 117.668 96.2983H117.805V99.2472C117.805 101.685 116.245 102.818 113.927 102.818C111.685 102.818 110.612 101.736 110.058 100.739L108.813 101.557C109.58 103.057 111.251 104.182 113.927 104.182ZM113.825 97.4744C111.225 97.4744 109.785 95.3949 109.785 92.3949C109.785 89.446 111.2 87.1108 113.825 87.1108C116.39 87.1108 117.83 89.3267 117.83 92.3949C117.83 95.5568 116.347 97.4744 113.825 97.4744ZM130.412 99H132.006V92.3267H136.071C139.761 92.3267 141.67 89.983 141.67 86.9318C141.67 83.8807 139.761 81.5455 136.045 81.5455H130.412V99ZM132.006 90.8949V82.9773H136.003C138.764 82.9773 140.102 84.6392 140.102 86.9318C140.102 89.2159 138.764 90.8949 136.028 90.8949H132.006ZM148.753 99.2983C150.935 99.2983 152.264 98.0881 152.81 96.929H152.903V99H154.42V90.1108C154.42 86.5994 151.778 85.7301 149.776 85.7301C147.773 85.7301 145.71 86.5227 144.824 88.6619L146.264 89.1818C146.741 88.0568 147.926 87.0938 149.818 87.0938C151.804 87.0938 152.903 88.1847 152.903 89.9744V90.2812C152.903 91.2699 151.676 91.2869 149.477 91.5597C146.52 91.9261 144.449 92.7528 144.449 95.3438C144.449 97.8665 146.375 99.2983 148.753 99.2983ZM148.957 97.9091C147.244 97.9091 145.966 96.9972 145.966 95.4119C145.966 93.8267 147.261 93.1619 149.477 92.8892C150.551 92.7614 152.46 92.5227 152.903 92.0881V93.9801C152.903 96.1278 151.378 97.9091 148.957 97.9091ZM163.45 104.182C166.553 104.182 168.854 102.665 168.854 99.3409V85.9091H167.371V88.4062H167.217C166.68 87.2301 165.598 85.7301 163.195 85.7301C159.956 85.7301 157.783 88.4403 157.783 92.4205C157.783 96.4347 160.033 98.8636 163.169 98.8636C165.521 98.8636 166.672 97.5 167.192 96.2983H167.328V99.2472C167.328 101.685 165.768 102.818 163.45 102.818C161.209 102.818 160.135 101.736 159.581 100.739L158.337 101.557C159.104 103.057 160.774 104.182 163.45 104.182ZM163.348 97.4744C160.749 97.4744 159.308 95.3949 159.308 92.3949C159.308 89.446 160.723 87.1108 163.348 87.1108C165.913 87.1108 167.354 89.3267 167.354 92.3949C167.354 95.5568 165.871 97.4744 163.348 97.4744ZM178.163 99.2727C180.788 99.2727 182.552 97.8494 183.148 96.2045L181.708 95.7358C181.205 96.9119 180.021 97.8835 178.163 97.8835C175.487 97.8835 173.79 95.9318 173.722 92.9062H183.472V92.1562C183.472 87.7841 180.771 85.7301 177.933 85.7301C174.54 85.7301 172.197 88.5682 172.197 92.5312C172.197 96.5028 174.498 99.2727 178.163 99.2727ZM173.731 91.5682C173.893 89.1307 175.538 87.1108 177.933 87.1108C180.276 87.1108 181.921 89.0455 181.921 91.5682H173.731ZM198.994 99C204.244 99 207.236 95.7188 207.244 90.2301C207.244 84.8011 204.295 81.5455 199.301 81.5455H193.881V99H198.994ZM195.474 97.5682V82.9773H199.207C203.443 82.9773 205.693 85.7131 205.702 90.2301C205.702 94.7898 203.401 97.5682 198.901 97.5682H195.474ZM216.085 99.2727C218.71 99.2727 220.474 97.8494 221.07 96.2045L219.63 95.7358C219.127 96.9119 217.942 97.8835 216.085 97.8835C213.408 97.8835 211.712 95.9318 211.644 92.9062H221.394V92.1562C221.394 87.7841 218.692 85.7301 215.854 85.7301C212.462 85.7301 210.119 88.5682 210.119 92.5312C210.119 96.5028 212.42 99.2727 216.085 99.2727ZM211.653 91.5682C211.815 89.1307 213.46 87.1108 215.854 87.1108C218.198 87.1108 219.843 89.0455 219.843 91.5682H211.653ZM233.533 88.7812C232.893 86.8892 231.496 85.7301 229.101 85.7301C226.459 85.7301 224.541 87.2386 224.541 89.3949C224.541 91.1506 225.607 92.3438 227.882 92.8892L230.021 93.4006C231.462 93.7415 232.152 94.483 232.152 95.5312C232.152 96.8949 230.848 97.9091 228.837 97.9091C227.047 97.9091 225.93 97.0994 225.564 95.5483L224.107 95.9062C224.567 98.0881 226.297 99.2727 228.862 99.2727C231.743 99.2727 233.72 97.6875 233.72 95.4631C233.72 93.7159 232.621 92.5483 230.43 92.0114L228.453 91.5256C226.825 91.1165 226.067 90.4602 226.067 89.3267C226.067 87.9972 227.337 87.0682 229.101 87.0682C230.865 87.0682 231.734 87.9972 232.143 89.1733L233.533 88.7812ZM237.059 99H238.585V85.9091H237.059V99ZM237.835 83.6591C238.457 83.6591 238.977 83.1648 238.977 82.5682C238.977 81.9716 238.457 81.4773 237.835 81.4773C237.212 81.4773 236.701 81.9716 236.701 82.5682C236.701 83.1648 237.212 83.6591 237.835 83.6591ZM247.591 104.182C250.693 104.182 252.994 102.665 252.994 99.3409V85.9091H251.511V88.4062H251.358C250.821 87.2301 249.739 85.7301 247.335 85.7301C244.097 85.7301 241.923 88.4403 241.923 92.4205C241.923 96.4347 244.173 98.8636 247.31 98.8636C249.662 98.8636 250.812 97.5 251.332 96.2983H251.469V99.2472C251.469 101.685 249.909 102.818 247.591 102.818C245.349 102.818 244.276 101.736 243.722 100.739L242.477 101.557C243.244 103.057 244.915 104.182 247.591 104.182ZM247.489 97.4744C244.889 97.4744 243.449 95.3949 243.449 92.3949C243.449 89.446 244.864 87.1108 247.489 87.1108C250.054 87.1108 251.494 89.3267 251.494 92.3949C251.494 95.5568 250.011 97.4744 247.489 97.4744ZM258.528 90.8182C258.528 88.5341 260.028 87.1278 262.09 87.1278C264.102 87.1278 265.397 88.4744 265.397 90.6136V99H266.914V90.5199C266.914 87.4176 265.116 85.7386 262.474 85.7386C260.556 85.7386 259.235 86.625 258.621 87.9631H258.485V85.9091H257.011V99H258.528V90.8182Z" fill="#F0F0F0"/>
<path d="M34.642 137L35.6023 134.131H39.9773L40.9432 137H43.1932L39.0909 125.364H36.4886L32.392 137H34.642ZM36.1705 132.438L37.7443 127.75H37.8352L39.4091 132.438H36.1705ZM50.6605 125.364H48.6037V137H50.6605V125.364ZM55.2869 137.176C56.6562 137.176 57.4744 136.534 57.8494 135.801H57.9176V137H59.8949V131.159C59.8949 128.852 58.0142 128.159 56.3494 128.159C54.5142 128.159 53.1051 128.977 52.6506 130.568L54.571 130.841C54.7756 130.244 55.3551 129.733 56.3608 129.733C57.3153 129.733 57.8381 130.222 57.8381 131.08V131.114C57.8381 131.705 57.2188 131.733 55.679 131.898C53.9858 132.08 52.3665 132.585 52.3665 134.551C52.3665 136.267 53.6222 137.176 55.2869 137.176ZM55.821 135.665C54.9631 135.665 54.3494 135.273 54.3494 134.517C54.3494 133.727 55.0369 133.398 55.9574 133.267C56.4972 133.193 57.5767 133.057 57.8438 132.841V133.869C57.8438 134.841 57.0597 135.665 55.821 135.665ZM64.0199 131.886C64.0199 130.625 64.7812 129.898 65.8665 129.898C66.929 129.898 67.5653 130.597 67.5653 131.761V137H69.6222V131.443C69.6278 129.352 68.4347 128.159 66.6335 128.159C65.3267 128.159 64.429 128.784 64.0312 129.756H63.929V128.273H61.9631V137H64.0199V131.886ZM74.9517 137.153C76.4517 137.153 77.1278 136.261 77.4517 135.625H77.5767V137H79.5994V125.364H77.5369V129.716H77.4517C77.1392 129.085 76.4972 128.159 74.9574 128.159C72.9403 128.159 71.3551 129.739 71.3551 132.648C71.3551 135.523 72.8949 137.153 74.9517 137.153ZM75.5256 135.466C74.1676 135.466 73.4517 134.273 73.4517 132.636C73.4517 131.011 74.1562 129.847 75.5256 129.847C76.8494 129.847 77.5767 130.943 77.5767 132.636C77.5767 134.33 76.8381 135.466 75.5256 135.466ZM81.7912 137H83.848V128.273H81.7912V137ZM82.8253 127.034C83.4787 127.034 84.0128 126.534 84.0128 125.92C84.0128 125.301 83.4787 124.801 82.8253 124.801C82.1662 124.801 81.6321 125.301 81.6321 125.92C81.6321 126.534 82.1662 127.034 82.8253 127.034ZM88.0199 131.886C88.0199 130.625 88.7812 129.898 89.8665 129.898C90.929 129.898 91.5653 130.597 91.5653 131.761V137H93.6222V131.443C93.6278 129.352 92.4347 128.159 90.6335 128.159C89.3267 128.159 88.429 128.784 88.0312 129.756H87.929V128.273H85.9631V137H88.0199V131.886ZM99.5085 140.455C101.866 140.455 103.605 139.375 103.605 137.142V128.273H101.577V129.716H101.463C101.151 129.085 100.497 128.159 98.9574 128.159C96.9403 128.159 95.3551 129.739 95.3551 132.608C95.3551 135.455 96.9403 136.875 98.9517 136.875C100.446 136.875 101.145 136.074 101.463 135.432H101.565V137.085C101.565 138.369 100.713 138.898 99.5426 138.898C98.304 138.898 97.7585 138.312 97.5085 137.801L95.6562 138.25C96.0312 139.472 97.2869 140.455 99.5085 140.455ZM99.5256 135.261C98.1676 135.261 97.4517 134.205 97.4517 132.597C97.4517 131.011 98.1562 129.847 99.5256 129.847C100.849 129.847 101.577 130.943 101.577 132.597C101.577 134.261 100.838 135.261 99.5256 135.261ZM109.773 137H111.881V133.068H114.108C116.795 133.068 118.239 131.455 118.239 129.216C118.239 126.994 116.812 125.364 114.136 125.364H109.773V137ZM111.881 131.335V127.125H113.812C115.392 127.125 116.091 127.977 116.091 129.216C116.091 130.455 115.392 131.335 113.824 131.335H111.881ZM122.334 137.176C123.703 137.176 124.521 136.534 124.896 135.801H124.964V137H126.942V131.159C126.942 128.852 125.061 128.159 123.396 128.159C121.561 128.159 120.152 128.977 119.697 130.568L121.618 130.841C121.822 130.244 122.402 129.733 123.408 129.733C124.362 129.733 124.885 130.222 124.885 131.08V131.114C124.885 131.705 124.266 131.733 122.726 131.898C121.033 132.08 119.413 132.585 119.413 134.551C119.413 136.267 120.669 137.176 122.334 137.176ZM122.868 135.665C122.01 135.665 121.396 135.273 121.396 134.517C121.396 133.727 122.084 133.398 123.004 133.267C123.544 133.193 124.624 133.057 124.891 132.841V133.869C124.891 134.841 124.107 135.665 122.868 135.665ZM132.805 140.455C135.163 140.455 136.902 139.375 136.902 137.142V128.273H134.874V129.716H134.76C134.447 129.085 133.794 128.159 132.254 128.159C130.237 128.159 128.652 129.739 128.652 132.608C128.652 135.455 130.237 136.875 132.249 136.875C133.743 136.875 134.442 136.074 134.76 135.432H134.862V137.085C134.862 138.369 134.01 138.898 132.839 138.898C131.601 138.898 131.055 138.312 130.805 137.801L128.953 138.25C129.328 139.472 130.584 140.455 132.805 140.455ZM132.822 135.261C131.464 135.261 130.749 134.205 130.749 132.597C130.749 131.011 131.453 129.847 132.822 129.847C134.146 129.847 134.874 130.943 134.874 132.597C134.874 134.261 134.135 135.261 132.822 135.261ZM142.874 137.17C144.908 137.17 146.305 136.176 146.669 134.659L144.749 134.443C144.47 135.182 143.788 135.568 142.902 135.568C141.572 135.568 140.692 134.693 140.675 133.199H146.754V132.568C146.754 129.506 144.913 128.159 142.766 128.159C140.266 128.159 138.635 129.994 138.635 132.688C138.635 135.426 140.243 137.17 142.874 137.17ZM140.68 131.812C140.743 130.699 141.567 129.761 142.794 129.761C143.976 129.761 144.771 130.625 144.783 131.812H140.68ZM156.497 137C160.043 137 162.145 134.807 162.145 131.17C162.145 127.545 160.043 125.364 156.577 125.364H152.554V137H156.497ZM154.662 135.176V127.188H156.457C158.821 127.188 160.054 128.506 160.054 131.17C160.054 133.847 158.821 135.176 156.395 135.176H154.662ZM167.92 137.17C169.955 137.17 171.352 136.176 171.716 134.659L169.795 134.443C169.517 135.182 168.835 135.568 167.949 135.568C166.619 135.568 165.739 134.693 165.722 133.199H171.801V132.568C171.801 129.506 169.96 128.159 167.812 128.159C165.312 128.159 163.682 129.994 163.682 132.688C163.682 135.426 165.29 137.17 167.92 137.17ZM165.727 131.812C165.79 130.699 166.614 129.761 167.841 129.761C169.023 129.761 169.818 130.625 169.83 131.812H165.727ZM180.439 130.58C180.155 129.102 178.973 128.159 176.928 128.159C174.825 128.159 173.393 129.193 173.399 130.807C173.393 132.08 174.178 132.92 175.854 133.267L177.342 133.58C178.143 133.756 178.518 134.08 178.518 134.574C178.518 135.17 177.871 135.619 176.893 135.619C175.95 135.619 175.337 135.21 175.161 134.426L173.155 134.619C173.411 136.222 174.757 137.17 176.899 137.17C179.081 137.17 180.621 136.04 180.626 134.386C180.621 133.142 179.82 132.381 178.172 132.023L176.683 131.705C175.797 131.506 175.445 131.199 175.45 130.693C175.445 130.102 176.098 129.693 176.956 129.693C177.905 129.693 178.405 130.21 178.564 130.784L180.439 130.58ZM182.322 137H184.379V128.273H182.322V137ZM183.357 127.034C184.01 127.034 184.544 126.534 184.544 125.92C184.544 125.301 184.01 124.801 183.357 124.801C182.697 124.801 182.163 125.301 182.163 125.92C182.163 126.534 182.697 127.034 183.357 127.034ZM190.29 140.455C192.648 140.455 194.386 139.375 194.386 137.142V128.273H192.358V129.716H192.244C191.932 129.085 191.278 128.159 189.739 128.159C187.722 128.159 186.136 129.739 186.136 132.608C186.136 135.455 187.722 136.875 189.733 136.875C191.227 136.875 191.926 136.074 192.244 135.432H192.347V137.085C192.347 138.369 191.494 138.898 190.324 138.898C189.085 138.898 188.54 138.312 188.29 137.801L186.438 138.25C186.812 139.472 188.068 140.455 190.29 140.455ZM190.307 135.261C188.949 135.261 188.233 134.205 188.233 132.597C188.233 131.011 188.938 129.847 190.307 129.847C191.631 129.847 192.358 130.943 192.358 132.597C192.358 134.261 191.619 135.261 190.307 135.261ZM198.551 131.886C198.551 130.625 199.312 129.898 200.398 129.898C201.46 129.898 202.097 130.597 202.097 131.761V137H204.153V131.443C204.159 129.352 202.966 128.159 201.165 128.159C199.858 128.159 198.96 128.784 198.562 129.756H198.46V128.273H196.494V137H198.551V131.886ZM214.634 128.273H212.821V127.585C212.821 126.903 213.105 126.523 213.872 126.523C214.196 126.523 214.469 126.597 214.639 126.648L215.054 125.057C214.787 124.966 214.202 124.818 213.491 124.818C211.974 124.818 210.764 125.688 210.764 127.449V128.273H209.474V129.864H210.764V137H212.821V129.864H214.634V128.273ZM219.723 137.17C222.28 137.17 223.905 135.369 223.905 132.67C223.905 129.966 222.28 128.159 219.723 128.159C217.166 128.159 215.541 129.966 215.541 132.67C215.541 135.369 217.166 137.17 219.723 137.17ZM219.734 135.523C218.32 135.523 217.626 134.261 217.626 132.665C217.626 131.068 218.32 129.79 219.734 129.79C221.126 129.79 221.82 131.068 221.82 132.665C221.82 134.261 221.126 135.523 219.734 135.523ZM225.651 137H227.707V131.869C227.707 130.761 228.543 129.977 229.673 129.977C230.02 129.977 230.452 130.04 230.628 130.097V128.205C230.44 128.17 230.116 128.148 229.889 128.148C228.889 128.148 228.054 128.716 227.736 129.727H227.645V128.273H225.651V137ZM238.474 137.176C239.844 137.176 240.662 136.534 241.037 135.801H241.105V137H243.082V131.159C243.082 128.852 241.202 128.159 239.537 128.159C237.702 128.159 236.293 128.977 235.838 130.568L237.759 130.841C237.963 130.244 238.543 129.733 239.548 129.733C240.503 129.733 241.026 130.222 241.026 131.08V131.114C241.026 131.705 240.406 131.733 238.866 131.898C237.173 132.08 235.554 132.585 235.554 134.551C235.554 136.267 236.81 137.176 238.474 137.176ZM239.009 135.665C238.151 135.665 237.537 135.273 237.537 134.517C237.537 133.727 238.224 133.398 239.145 133.267C239.685 133.193 240.764 133.057 241.031 132.841V133.869C241.031 134.841 240.247 135.665 239.009 135.665ZM252.915 140.455C255.273 140.455 257.011 139.375 257.011 137.142V128.273H254.983V129.716H254.869C254.557 129.085 253.903 128.159 252.364 128.159C250.347 128.159 248.761 129.739 248.761 132.608C248.761 135.455 250.347 136.875 252.358 136.875C253.852 136.875 254.551 136.074 254.869 135.432H254.972V137.085C254.972 138.369 254.119 138.898 252.949 138.898C251.71 138.898 251.165 138.312 250.915 137.801L249.062 138.25C249.438 139.472 250.693 140.455 252.915 140.455ZM252.932 135.261C251.574 135.261 250.858 134.205 250.858 132.597C250.858 131.011 251.562 129.847 252.932 129.847C254.256 129.847 254.983 130.943 254.983 132.597C254.983 134.261 254.244 135.261 252.932 135.261ZM261.631 137.176C263 137.176 263.818 136.534 264.193 135.801H264.261V137H266.239V131.159C266.239 128.852 264.358 128.159 262.693 128.159C260.858 128.159 259.449 128.977 258.994 130.568L260.915 130.841C261.119 130.244 261.699 129.733 262.705 129.733C263.659 129.733 264.182 130.222 264.182 131.08V131.114C264.182 131.705 263.562 131.733 262.023 131.898C260.33 132.08 258.71 132.585 258.71 134.551C258.71 136.267 259.966 137.176 261.631 137.176ZM262.165 135.665C261.307 135.665 260.693 135.273 260.693 134.517C260.693 133.727 261.381 133.398 262.301 133.267C262.841 133.193 263.92 133.057 264.188 132.841V133.869C264.188 134.841 263.403 135.665 262.165 135.665ZM268.307 137H270.364V131.869C270.364 130.761 271.199 129.977 272.33 129.977C272.676 129.977 273.108 130.04 273.284 130.097V128.205C273.097 128.17 272.773 128.148 272.545 128.148C271.545 128.148 270.71 128.716 270.392 129.727H270.301V128.273H268.307V137ZM277.53 137.153C279.03 137.153 279.706 136.261 280.03 135.625H280.155V137H282.178V125.364H280.115V129.716H280.03C279.717 129.085 279.075 128.159 277.536 128.159C275.518 128.159 273.933 129.739 273.933 132.648C273.933 135.523 275.473 137.153 277.53 137.153ZM278.104 135.466C276.746 135.466 276.03 134.273 276.03 132.636C276.03 131.011 276.734 129.847 278.104 129.847C279.428 129.847 280.155 130.943 280.155 132.636C280.155 134.33 279.416 135.466 278.104 135.466ZM288.233 137.17C290.267 137.17 291.665 136.176 292.028 134.659L290.108 134.443C289.83 135.182 289.148 135.568 288.261 135.568C286.932 135.568 286.051 134.693 286.034 133.199H292.114V132.568C292.114 129.506 290.273 128.159 288.125 128.159C285.625 128.159 283.994 129.994 283.994 132.688C283.994 135.426 285.602 137.17 288.233 137.17ZM286.04 131.812C286.102 130.699 286.926 129.761 288.153 129.761C289.335 129.761 290.131 130.625 290.142 131.812H286.04ZM295.911 131.886C295.911 130.625 296.672 129.898 297.757 129.898C298.82 129.898 299.456 130.597 299.456 131.761V137H301.513V131.443C301.518 129.352 300.325 128.159 298.524 128.159C297.217 128.159 296.32 128.784 295.922 129.756H295.82V128.273H293.854V137H295.911V131.886ZM303.604 137H305.661V128.273H303.604V137ZM304.638 127.034C305.291 127.034 305.825 126.534 305.825 125.92C305.825 125.301 305.291 124.801 304.638 124.801C303.979 124.801 303.445 125.301 303.445 125.92C303.445 126.534 303.979 127.034 304.638 127.034ZM309.832 131.886C309.832 130.625 310.594 129.898 311.679 129.898C312.741 129.898 313.378 130.597 313.378 131.761V137H315.435V131.443C315.44 129.352 314.247 128.159 312.446 128.159C311.139 128.159 310.241 128.784 309.844 129.756H309.741V128.273H307.776V137H309.832V131.886ZM321.321 140.455C323.679 140.455 325.418 139.375 325.418 137.142V128.273H323.389V129.716H323.276C322.963 129.085 322.31 128.159 320.77 128.159C318.753 128.159 317.168 129.739 317.168 132.608C317.168 135.455 318.753 136.875 320.764 136.875C322.259 136.875 322.957 136.074 323.276 135.432H323.378V137.085C323.378 138.369 322.526 138.898 321.355 138.898C320.116 138.898 319.571 138.312 319.321 137.801L317.469 138.25C317.844 139.472 319.099 140.455 321.321 140.455ZM321.338 135.261C319.98 135.261 319.264 134.205 319.264 132.597C319.264 131.011 319.969 129.847 321.338 129.847C322.662 129.847 323.389 130.943 323.389 132.597C323.389 134.261 322.651 135.261 321.338 135.261ZM39.9545 149.58C39.6705 148.102 38.4886 147.159 36.4432 147.159C34.3409 147.159 32.9091 148.193 32.9148 149.807C32.9091 151.08 33.6932 151.92 35.3693 152.267L36.858 152.58C37.6591 152.756 38.0341 153.08 38.0341 153.574C38.0341 154.17 37.3864 154.619 36.4091 154.619C35.4659 154.619 34.8523 154.21 34.6761 153.426L32.6705 153.619C32.9261 155.222 34.2727 156.17 36.4148 156.17C38.5966 156.17 40.1364 155.04 40.142 153.386C40.1364 152.142 39.3352 151.381 37.6875 151.023L36.1989 150.705C35.3125 150.506 34.9602 150.199 34.9659 149.693C34.9602 149.102 35.6136 148.693 36.4716 148.693C37.4205 148.693 37.9205 149.21 38.0795 149.784L39.9545 149.58ZM46.196 147.273H44.4744V145.182H42.4176V147.273H41.179V148.864H42.4176V153.716C42.4062 155.358 43.5994 156.165 45.1449 156.119C45.7301 156.102 46.1335 155.989 46.3551 155.915L46.0085 154.307C45.8949 154.335 45.6619 154.386 45.4062 154.386C44.8892 154.386 44.4744 154.205 44.4744 153.375V148.864H46.196V147.273ZM50.4276 156.176C51.7969 156.176 52.6151 155.534 52.9901 154.801H53.0582V156H55.0355V150.159C55.0355 147.852 53.1548 147.159 51.4901 147.159C49.6548 147.159 48.2457 147.977 47.7912 149.568L49.7116 149.841C49.9162 149.244 50.4957 148.733 51.5014 148.733C52.456 148.733 52.9787 149.222 52.9787 150.08V150.114C52.9787 150.705 52.3594 150.733 50.8196 150.898C49.1264 151.08 47.5071 151.585 47.5071 153.551C47.5071 155.267 48.7628 156.176 50.4276 156.176ZM50.9616 154.665C50.1037 154.665 49.4901 154.273 49.4901 153.517C49.4901 152.727 50.1776 152.398 51.098 152.267C51.6378 152.193 52.7173 152.057 52.9844 151.841V152.869C52.9844 153.841 52.2003 154.665 50.9616 154.665ZM57.1037 156H59.1605V150.869C59.1605 149.761 59.9957 148.977 61.1264 148.977C61.473 148.977 61.9048 149.04 62.081 149.097V147.205C61.8935 147.17 61.5696 147.148 61.3423 147.148C60.3423 147.148 59.5071 147.716 59.1889 148.727H59.098V147.273H57.1037V156ZM68.2741 147.273H66.5526V145.182H64.4957V147.273H63.2571V148.864H64.4957V153.716C64.4844 155.358 65.6776 156.165 67.223 156.119C67.8082 156.102 68.2116 155.989 68.4332 155.915L68.0866 154.307C67.973 154.335 67.7401 154.386 67.4844 154.386C66.9673 154.386 66.5526 154.205 66.5526 153.375V148.864H68.2741V147.273ZM75.5568 152.33C75.5568 153.659 74.608 154.318 73.6989 154.318C72.7102 154.318 72.0511 153.619 72.0511 152.511V147.273H69.9943V152.83C69.9943 154.926 71.1875 156.114 72.9034 156.114C74.2102 156.114 75.1307 155.426 75.5284 154.449H75.6193V156H77.6136V147.273H75.5568V152.33ZM79.7287 159.273H81.7855V154.625H81.8707C82.1946 155.261 82.8707 156.153 84.3707 156.153C86.4276 156.153 87.9673 154.523 87.9673 151.648C87.9673 148.739 86.3821 147.159 84.3651 147.159C82.8253 147.159 82.1832 148.085 81.8707 148.716H81.7514V147.273H79.7287V159.273ZM81.7457 151.636C81.7457 149.943 82.473 148.847 83.7969 148.847C85.1662 148.847 85.8707 150.011 85.8707 151.636C85.8707 153.273 85.1548 154.466 83.7969 154.466C82.4844 154.466 81.7457 153.33 81.7457 151.636ZM92.1435 154.409H90.3253L90.2855 155.045C90.1889 156.585 89.7855 158.153 89.6207 158.841H91.0071C91.2798 158.125 91.9105 156.466 92.0696 155.034L92.1435 154.409ZM104.955 149.58C104.67 148.102 103.489 147.159 101.443 147.159C99.3409 147.159 97.9091 148.193 97.9148 149.807C97.9091 151.08 98.6932 151.92 100.369 152.267L101.858 152.58C102.659 152.756 103.034 153.08 103.034 153.574C103.034 154.17 102.386 154.619 101.409 154.619C100.466 154.619 99.8523 154.21 99.6761 153.426L97.6705 153.619C97.9261 155.222 99.2727 156.17 101.415 156.17C103.597 156.17 105.136 155.04 105.142 153.386C105.136 152.142 104.335 151.381 102.688 151.023L101.199 150.705C100.312 150.506 99.9602 150.199 99.9659 149.693C99.9602 149.102 100.614 148.693 101.472 148.693C102.42 148.693 102.92 149.21 103.08 149.784L104.955 149.58ZM111.196 147.273H109.474V145.182H107.418V147.273H106.179V148.864H107.418V153.716C107.406 155.358 108.599 156.165 110.145 156.119C110.73 156.102 111.134 155.989 111.355 155.915L111.009 154.307C110.895 154.335 110.662 154.386 110.406 154.386C109.889 154.386 109.474 154.205 109.474 153.375V148.864H111.196V147.273ZM115.428 156.176C116.797 156.176 117.615 155.534 117.99 154.801H118.058V156H120.036V150.159C120.036 147.852 118.155 147.159 116.49 147.159C114.655 147.159 113.246 147.977 112.791 149.568L114.712 149.841C114.916 149.244 115.496 148.733 116.501 148.733C117.456 148.733 117.979 149.222 117.979 150.08V150.114C117.979 150.705 117.359 150.733 115.82 150.898C114.126 151.08 112.507 151.585 112.507 153.551C112.507 155.267 113.763 156.176 115.428 156.176ZM115.962 154.665C115.104 154.665 114.49 154.273 114.49 153.517C114.49 152.727 115.178 152.398 116.098 152.267C116.638 152.193 117.717 152.057 117.984 151.841V152.869C117.984 153.841 117.2 154.665 115.962 154.665ZM122.104 156H124.161V150.869C124.161 149.761 124.996 148.977 126.126 148.977C126.473 148.977 126.905 149.04 127.081 149.097V147.205C126.893 147.17 126.57 147.148 126.342 147.148C125.342 147.148 124.507 147.716 124.189 148.727H124.098V147.273H122.104V156ZM133.274 147.273H131.553V145.182H129.496V147.273H128.257V148.864H129.496V153.716C129.484 155.358 130.678 156.165 132.223 156.119C132.808 156.102 133.212 155.989 133.433 155.915L133.087 154.307C132.973 154.335 132.74 154.386 132.484 154.386C131.967 154.386 131.553 154.205 131.553 153.375V148.864H133.274V147.273ZM134.994 156H137.051V147.273H134.994V156ZM136.028 146.034C136.682 146.034 137.216 145.534 137.216 144.92C137.216 144.301 136.682 143.801 136.028 143.801C135.369 143.801 134.835 144.301 134.835 144.92C134.835 145.534 135.369 146.034 136.028 146.034ZM141.223 150.886C141.223 149.625 141.984 148.898 143.07 148.898C144.132 148.898 144.768 149.597 144.768 150.761V156H146.825V150.443C146.831 148.352 145.638 147.159 143.837 147.159C142.53 147.159 141.632 147.784 141.234 148.756H141.132V147.273H139.166V156H141.223V150.886ZM152.712 159.455C155.07 159.455 156.808 158.375 156.808 156.142V147.273H154.78V148.716H154.666C154.354 148.085 153.7 147.159 152.161 147.159C150.143 147.159 148.558 148.739 148.558 151.608C148.558 154.455 150.143 155.875 152.155 155.875C153.649 155.875 154.348 155.074 154.666 154.432H154.768V156.085C154.768 157.369 153.916 157.898 152.746 157.898C151.507 157.898 150.962 157.312 150.712 156.801L148.859 157.25C149.234 158.472 150.49 159.455 152.712 159.455ZM152.729 154.261C151.371 154.261 150.655 153.205 150.655 151.597C150.655 150.011 151.359 148.847 152.729 148.847C154.053 148.847 154.78 149.943 154.78 151.597C154.78 153.261 154.041 154.261 152.729 154.261ZM165.396 156.176C166.766 156.176 167.584 155.534 167.959 154.801H168.027V156H170.004V150.159C170.004 147.852 168.124 147.159 166.459 147.159C164.624 147.159 163.214 147.977 162.76 149.568L164.68 149.841C164.885 149.244 165.464 148.733 166.47 148.733C167.425 148.733 167.947 149.222 167.947 150.08V150.114C167.947 150.705 167.328 150.733 165.788 150.898C164.095 151.08 162.476 151.585 162.476 153.551C162.476 155.267 163.732 156.176 165.396 156.176ZM165.93 154.665C165.072 154.665 164.459 154.273 164.459 153.517C164.459 152.727 165.146 152.398 166.067 152.267C166.607 152.193 167.686 152.057 167.953 151.841V152.869C167.953 153.841 167.169 154.665 165.93 154.665ZM174.129 150.886C174.129 149.625 174.891 148.898 175.976 148.898C177.038 148.898 177.675 149.597 177.675 150.761V156H179.732V150.443C179.737 148.352 178.544 147.159 176.743 147.159C175.436 147.159 174.538 147.784 174.141 148.756H174.038V147.273H172.072V156H174.129V150.886ZM189.598 156.17C192.155 156.17 193.78 154.369 193.78 151.67C193.78 148.966 192.155 147.159 189.598 147.159C187.041 147.159 185.416 148.966 185.416 151.67C185.416 154.369 187.041 156.17 189.598 156.17ZM189.609 154.523C188.195 154.523 187.501 153.261 187.501 151.665C187.501 150.068 188.195 148.79 189.609 148.79C191.001 148.79 191.695 150.068 191.695 151.665C191.695 153.261 191.001 154.523 189.609 154.523ZM197.582 150.886C197.582 149.625 198.344 148.898 199.429 148.898C200.491 148.898 201.128 149.597 201.128 150.761V156H203.185V150.443C203.19 148.352 201.997 147.159 200.196 147.159C198.889 147.159 197.991 147.784 197.594 148.756H197.491V147.273H195.526V156H197.582V150.886ZM207.332 144.364H205.276V156H207.332V144.364ZM209.447 156H211.504V147.273H209.447V156ZM210.482 146.034C211.135 146.034 211.669 145.534 211.669 144.92C211.669 144.301 211.135 143.801 210.482 143.801C209.822 143.801 209.288 144.301 209.288 144.92C209.288 145.534 209.822 146.034 210.482 146.034ZM215.676 150.886C215.676 149.625 216.438 148.898 217.523 148.898C218.585 148.898 219.222 149.597 219.222 150.761V156H221.278V150.443C221.284 148.352 220.091 147.159 218.29 147.159C216.983 147.159 216.085 147.784 215.688 148.756H215.585V147.273H213.619V156H215.676V150.886ZM227.233 156.17C229.267 156.17 230.665 155.176 231.028 153.659L229.108 153.443C228.83 154.182 228.148 154.568 227.261 154.568C225.932 154.568 225.051 153.693 225.034 152.199H231.114V151.568C231.114 148.506 229.273 147.159 227.125 147.159C224.625 147.159 222.994 148.994 222.994 151.688C222.994 154.426 224.602 156.17 227.233 156.17ZM225.04 150.812C225.102 149.699 225.926 148.761 227.153 148.761C228.335 148.761 229.131 149.625 229.142 150.812H225.04ZM240.629 156.17C242.822 156.17 244.22 154.869 244.368 153.017H242.402C242.226 153.955 241.55 154.494 240.646 154.494C239.362 154.494 238.533 153.42 238.533 151.636C238.533 149.875 239.379 148.818 240.646 148.818C241.635 148.818 242.243 149.455 242.402 150.295H244.368C244.226 148.403 242.749 147.159 240.618 147.159C238.061 147.159 236.447 149.006 236.447 151.67C236.447 154.312 238.021 156.17 240.629 156.17ZM249.864 156.17C252.42 156.17 254.045 154.369 254.045 151.67C254.045 148.966 252.42 147.159 249.864 147.159C247.307 147.159 245.682 148.966 245.682 151.67C245.682 154.369 247.307 156.17 249.864 156.17ZM249.875 154.523C248.46 154.523 247.767 153.261 247.767 151.665C247.767 150.068 248.46 148.79 249.875 148.79C251.267 148.79 251.96 150.068 251.96 151.665C251.96 153.261 251.267 154.523 249.875 154.523ZM255.791 156H257.848V150.693C257.848 149.619 258.564 148.892 259.45 148.892C260.32 148.892 260.916 149.477 260.916 150.375V156H262.933V150.557C262.933 149.574 263.518 148.892 264.513 148.892C265.342 148.892 266.001 149.381 266.001 150.46V156H268.064V150.142C268.064 148.193 266.939 147.159 265.337 147.159C264.07 147.159 263.104 147.784 262.717 148.756H262.626C262.291 147.767 261.445 147.159 260.268 147.159C259.098 147.159 258.223 147.761 257.859 148.756H257.757V147.273H255.791V156ZM270.151 156H272.207V150.693C272.207 149.619 272.923 148.892 273.81 148.892C274.679 148.892 275.276 149.477 275.276 150.375V156H277.293V150.557C277.293 149.574 277.878 148.892 278.872 148.892C279.702 148.892 280.361 149.381 280.361 150.46V156H282.423V150.142C282.423 148.193 281.298 147.159 279.696 147.159C278.429 147.159 277.463 147.784 277.077 148.756H276.986C276.651 147.767 275.804 147.159 274.628 147.159C273.457 147.159 272.582 147.761 272.219 148.756H272.116V147.273H270.151V156ZM290.072 152.33C290.072 153.659 289.124 154.318 288.214 154.318C287.226 154.318 286.567 153.619 286.567 152.511V147.273H284.51V152.83C284.51 154.926 285.703 156.114 287.419 156.114C288.726 156.114 289.646 155.426 290.044 154.449H290.135V156H292.129V147.273H290.072V152.33ZM296.301 150.886C296.301 149.625 297.062 148.898 298.148 148.898C299.21 148.898 299.847 149.597 299.847 150.761V156H301.903V150.443C301.909 148.352 300.716 147.159 298.915 147.159C297.608 147.159 296.71 147.784 296.312 148.756H296.21V147.273H294.244V156H296.301V150.886ZM303.994 156H306.051V147.273H303.994V156ZM305.028 146.034C305.682 146.034 306.216 145.534 306.216 144.92C306.216 144.301 305.682 143.801 305.028 143.801C304.369 143.801 303.835 144.301 303.835 144.92C303.835 145.534 304.369 146.034 305.028 146.034ZM312.524 147.273H310.803V145.182H308.746V147.273H307.507V148.864H308.746V153.716C308.734 155.358 309.928 156.165 311.473 156.119C312.058 156.102 312.462 155.989 312.683 155.915L312.337 154.307C312.223 154.335 311.99 154.386 311.734 154.386C311.217 154.386 310.803 154.205 310.803 153.375V148.864H312.524V147.273ZM315.523 159.273C317.125 159.273 318.051 158.449 318.545 157.057L322.051 147.284L319.852 147.273L317.835 153.864H317.744L315.733 147.273H313.551L316.716 156.182L316.54 156.653C316.159 157.648 315.557 157.716 314.659 157.455L314.182 159.057C314.46 159.17 314.96 159.273 315.523 159.273ZM329.959 156.176C331.328 156.176 332.146 155.534 332.521 154.801H332.589V156H334.567V150.159C334.567 147.852 332.686 147.159 331.021 147.159C329.186 147.159 327.777 147.977 327.322 149.568L329.243 149.841C329.447 149.244 330.027 148.733 331.033 148.733C331.987 148.733 332.51 149.222 332.51 150.08V150.114C332.51 150.705 331.891 150.733 330.351 150.898C328.658 151.08 327.038 151.585 327.038 153.551C327.038 155.267 328.294 156.176 329.959 156.176ZM330.493 154.665C329.635 154.665 329.021 154.273 329.021 153.517C329.021 152.727 329.709 152.398 330.629 152.267C331.169 152.193 332.249 152.057 332.516 151.841V152.869C332.516 153.841 331.732 154.665 330.493 154.665ZM338.692 150.886C338.692 149.625 339.453 148.898 340.538 148.898C341.601 148.898 342.237 149.597 342.237 150.761V156H344.294V150.443C344.3 148.352 343.107 147.159 341.305 147.159C339.999 147.159 339.101 147.784 338.703 148.756H338.601V147.273H336.635V156H338.692V150.886ZM349.624 156.153C351.124 156.153 351.8 155.261 352.124 154.625H352.249V156H354.271V144.364H352.209V148.716H352.124C351.811 148.085 351.169 147.159 349.629 147.159C347.612 147.159 346.027 148.739 346.027 151.648C346.027 154.523 347.567 156.153 349.624 156.153ZM350.197 154.466C348.839 154.466 348.124 153.273 348.124 151.636C348.124 150.011 348.828 148.847 350.197 148.847C351.521 148.847 352.249 149.943 352.249 151.636C352.249 153.33 351.51 154.466 350.197 154.466ZM36.8636 175.17C39.0568 175.17 40.4545 173.869 40.6023 172.017H38.6364C38.4602 172.955 37.7841 173.494 36.8807 173.494C35.5966 173.494 34.767 172.42 34.767 170.636C34.767 168.875 35.6136 167.818 36.8807 167.818C37.8693 167.818 38.4773 168.455 38.6364 169.295H40.6023C40.4602 167.403 38.983 166.159 36.8523 166.159C34.2955 166.159 32.6818 168.006 32.6818 170.67C32.6818 173.312 34.2557 175.17 36.8636 175.17ZM46.098 175.17C48.6548 175.17 50.2798 173.369 50.2798 170.67C50.2798 167.966 48.6548 166.159 46.098 166.159C43.5412 166.159 41.9162 167.966 41.9162 170.67C41.9162 173.369 43.5412 175.17 46.098 175.17ZM46.1094 173.523C44.6946 173.523 44.0014 172.261 44.0014 170.665C44.0014 169.068 44.6946 167.79 46.1094 167.79C47.5014 167.79 48.1946 169.068 48.1946 170.665C48.1946 172.261 47.5014 173.523 46.1094 173.523ZM52.0256 175H54.0824V169.693C54.0824 168.619 54.7983 167.892 55.6847 167.892C56.554 167.892 57.1506 168.477 57.1506 169.375V175H59.1676V169.557C59.1676 168.574 59.7528 167.892 60.7472 167.892C61.5767 167.892 62.2358 168.381 62.2358 169.46V175H64.2983V169.142C64.2983 167.193 63.1733 166.159 61.571 166.159C60.304 166.159 59.3381 166.784 58.9517 167.756H58.8608C58.5256 166.767 57.679 166.159 56.5028 166.159C55.3324 166.159 54.4574 166.761 54.0938 167.756H53.9915V166.273H52.0256V175ZM66.3849 175H68.4418V169.693C68.4418 168.619 69.1577 167.892 70.044 167.892C70.9134 167.892 71.5099 168.477 71.5099 169.375V175H73.527V169.557C73.527 168.574 74.1122 167.892 75.1065 167.892C75.9361 167.892 76.5952 168.381 76.5952 169.46V175H78.6577V169.142C78.6577 167.193 77.5327 166.159 75.9304 166.159C74.6634 166.159 73.6974 166.784 73.3111 167.756H73.2202C72.8849 166.767 72.0384 166.159 70.8622 166.159C69.6918 166.159 68.8168 166.761 68.4531 167.756H68.3509V166.273H66.3849V175ZM86.3068 171.33C86.3068 172.659 85.358 173.318 84.4489 173.318C83.4602 173.318 82.8011 172.619 82.8011 171.511V166.273H80.7443V171.83C80.7443 173.926 81.9375 175.114 83.6534 175.114C84.9602 175.114 85.8807 174.426 86.2784 173.449H86.3693V175H88.3636V166.273H86.3068V171.33ZM92.5355 169.886C92.5355 168.625 93.2969 167.898 94.3821 167.898C95.4446 167.898 96.081 168.597 96.081 169.761V175H98.1378V169.443C98.1435 167.352 96.9503 166.159 95.1491 166.159C93.8423 166.159 92.9446 166.784 92.5469 167.756H92.4446V166.273H90.4787V175H92.5355V169.886ZM100.229 175H102.286V166.273H100.229V175ZM101.263 165.034C101.916 165.034 102.45 164.534 102.45 163.92C102.45 163.301 101.916 162.801 101.263 162.801C100.604 162.801 100.07 163.301 100.07 163.92C100.07 164.534 100.604 165.034 101.263 165.034ZM108.207 175.17C110.401 175.17 111.798 173.869 111.946 172.017H109.98C109.804 172.955 109.128 173.494 108.224 173.494C106.94 173.494 106.111 172.42 106.111 170.636C106.111 168.875 106.957 167.818 108.224 167.818C109.213 167.818 109.821 168.455 109.98 169.295H111.946C111.804 167.403 110.327 166.159 108.196 166.159C105.639 166.159 104.026 168.006 104.026 170.67C104.026 173.312 105.599 175.17 108.207 175.17ZM116.146 175.176C117.516 175.176 118.334 174.534 118.709 173.801H118.777V175H120.754V169.159C120.754 166.852 118.874 166.159 117.209 166.159C115.374 166.159 113.964 166.977 113.51 168.568L115.43 168.841C115.635 168.244 116.214 167.733 117.22 167.733C118.175 167.733 118.697 168.222 118.697 169.08V169.114C118.697 169.705 118.078 169.733 116.538 169.898C114.845 170.08 113.226 170.585 113.226 172.551C113.226 174.267 114.482 175.176 116.146 175.176ZM116.68 173.665C115.822 173.665 115.209 173.273 115.209 172.517C115.209 171.727 115.896 171.398 116.817 171.267C117.357 171.193 118.436 171.057 118.703 170.841V171.869C118.703 172.841 117.919 173.665 116.68 173.665ZM127.18 166.273H125.459V164.182H123.402V166.273H122.163V167.864H123.402V172.716C123.391 174.358 124.584 175.165 126.129 175.119C126.714 175.102 127.118 174.989 127.339 174.915L126.993 173.307C126.879 173.335 126.646 173.386 126.391 173.386C125.874 173.386 125.459 173.205 125.459 172.375V167.864H127.18V166.273ZM132.67 175.17C134.705 175.17 136.102 174.176 136.466 172.659L134.545 172.443C134.267 173.182 133.585 173.568 132.699 173.568C131.369 173.568 130.489 172.693 130.472 171.199H136.551V170.568C136.551 167.506 134.71 166.159 132.562 166.159C130.062 166.159 128.432 167.994 128.432 170.688C128.432 173.426 130.04 175.17 132.67 175.17ZM130.477 169.812C130.54 168.699 131.364 167.761 132.591 167.761C133.773 167.761 134.568 168.625 134.58 169.812H130.477ZM146.618 166.273H144.896V164.182H142.839V166.273H141.601V167.864H142.839V172.716C142.828 174.358 144.021 175.165 145.567 175.119C146.152 175.102 146.555 174.989 146.777 174.915L146.43 173.307C146.317 173.335 146.084 173.386 145.828 173.386C145.311 173.386 144.896 173.205 144.896 172.375V167.864H146.618V166.273ZM150.582 169.886C150.582 168.625 151.366 167.898 152.469 167.898C153.548 167.898 154.185 168.585 154.185 169.761V175H156.241V169.443C156.241 167.335 155.048 166.159 153.236 166.159C151.895 166.159 151.043 166.767 150.639 167.756H150.537V163.364H148.526V175H150.582V169.886ZM162.202 175.17C164.236 175.17 165.634 174.176 165.997 172.659L164.077 172.443C163.798 173.182 163.116 173.568 162.23 173.568C160.901 173.568 160.02 172.693 160.003 171.199H166.082V170.568C166.082 167.506 164.241 166.159 162.094 166.159C159.594 166.159 157.963 167.994 157.963 170.688C157.963 173.426 159.571 175.17 162.202 175.17ZM160.009 169.812C160.071 168.699 160.895 167.761 162.122 167.761C163.304 167.761 164.099 168.625 164.111 169.812H160.009ZM175.598 175.17C177.791 175.17 179.189 173.869 179.337 172.017H177.371C177.195 172.955 176.518 173.494 175.615 173.494C174.331 173.494 173.501 172.42 173.501 170.636C173.501 168.875 174.348 167.818 175.615 167.818C176.604 167.818 177.212 168.455 177.371 169.295H179.337C179.195 167.403 177.717 166.159 175.587 166.159C173.03 166.159 171.416 168.006 171.416 170.67C171.416 173.312 172.99 175.17 175.598 175.17ZM184.832 175.17C187.389 175.17 189.014 173.369 189.014 170.67C189.014 167.966 187.389 166.159 184.832 166.159C182.276 166.159 180.651 167.966 180.651 170.67C180.651 173.369 182.276 175.17 184.832 175.17ZM184.844 173.523C183.429 173.523 182.736 172.261 182.736 170.665C182.736 169.068 183.429 167.79 184.844 167.79C186.236 167.79 186.929 169.068 186.929 170.665C186.929 172.261 186.236 173.523 184.844 173.523ZM190.76 175H192.817V169.693C192.817 168.619 193.533 167.892 194.419 167.892C195.288 167.892 195.885 168.477 195.885 169.375V175H197.902V169.557C197.902 168.574 198.487 167.892 199.482 167.892C200.311 167.892 200.97 168.381 200.97 169.46V175H203.033V169.142C203.033 167.193 201.908 166.159 200.305 166.159C199.038 166.159 198.072 166.784 197.686 167.756H197.595C197.26 166.767 196.413 166.159 195.237 166.159C194.067 166.159 193.192 166.761 192.828 167.756H192.726V166.273H190.76V175ZM205.119 178.273H207.176V173.625H207.261C207.585 174.261 208.261 175.153 209.761 175.153C211.818 175.153 213.358 173.523 213.358 170.648C213.358 167.739 211.773 166.159 209.756 166.159C208.216 166.159 207.574 167.085 207.261 167.716H207.142V166.273H205.119V178.273ZM207.136 170.636C207.136 168.943 207.864 167.847 209.188 167.847C210.557 167.847 211.261 169.011 211.261 170.636C211.261 172.273 210.545 173.466 209.188 173.466C207.875 173.466 207.136 172.33 207.136 170.636ZM217.631 175.176C219 175.176 219.818 174.534 220.193 173.801H220.261V175H222.239V169.159C222.239 166.852 220.358 166.159 218.693 166.159C216.858 166.159 215.449 166.977 214.994 168.568L216.915 168.841C217.119 168.244 217.699 167.733 218.705 167.733C219.659 167.733 220.182 168.222 220.182 169.08V169.114C220.182 169.705 219.562 169.733 218.023 169.898C216.33 170.08 214.71 170.585 214.71 172.551C214.71 174.267 215.966 175.176 217.631 175.176ZM218.165 173.665C217.307 173.665 216.693 173.273 216.693 172.517C216.693 171.727 217.381 171.398 218.301 171.267C218.841 171.193 219.92 171.057 220.188 170.841V171.869C220.188 172.841 219.403 173.665 218.165 173.665ZM226.364 169.886C226.364 168.625 227.125 167.898 228.21 167.898C229.273 167.898 229.909 168.597 229.909 169.761V175H231.966V169.443C231.972 167.352 230.778 166.159 228.977 166.159C227.67 166.159 226.773 166.784 226.375 167.756H226.273V166.273H224.307V175H226.364V169.886ZM235.023 178.273C236.625 178.273 237.551 177.449 238.045 176.057L241.551 166.284L239.352 166.273L237.335 172.864H237.244L235.233 166.273H233.051L236.216 175.182L236.04 175.653C235.659 176.648 235.057 176.716 234.159 176.455L233.682 178.057C233.96 178.17 234.46 178.273 235.023 178.273ZM245.239 163.364H243.602V164.534C243.602 165.46 243.239 166.17 242.824 166.795L243.778 167.415C244.614 166.722 245.239 165.528 245.239 164.523V163.364ZM252.673 168.58C252.389 167.102 251.207 166.159 249.162 166.159C247.06 166.159 245.628 167.193 245.634 168.807C245.628 170.08 246.412 170.92 248.088 171.267L249.577 171.58C250.378 171.756 250.753 172.08 250.753 172.574C250.753 173.17 250.105 173.619 249.128 173.619C248.185 173.619 247.571 173.21 247.395 172.426L245.389 172.619C245.645 174.222 246.991 175.17 249.134 175.17C251.315 175.17 252.855 174.04 252.861 172.386C252.855 171.142 252.054 170.381 250.406 170.023L248.918 169.705C248.031 169.506 247.679 169.199 247.685 168.693C247.679 168.102 248.332 167.693 249.19 167.693C250.139 167.693 250.639 168.21 250.798 168.784L252.673 168.58ZM266.321 166.273H264.134L262.122 172.756H262.031L260.026 166.273H257.832L260.94 175H263.213L266.321 166.273ZM270.006 175.176C271.375 175.176 272.193 174.534 272.568 173.801H272.636V175H274.614V169.159C274.614 166.852 272.733 166.159 271.068 166.159C269.233 166.159 267.824 166.977 267.369 168.568L269.29 168.841C269.494 168.244 270.074 167.733 271.08 167.733C272.034 167.733 272.557 168.222 272.557 169.08V169.114C272.557 169.705 271.938 169.733 270.398 169.898C268.705 170.08 267.085 170.585 267.085 172.551C267.085 174.267 268.341 175.176 270.006 175.176ZM270.54 173.665C269.682 173.665 269.068 173.273 269.068 172.517C269.068 171.727 269.756 171.398 270.676 171.267C271.216 171.193 272.295 171.057 272.562 170.841V171.869C272.562 172.841 271.778 173.665 270.54 173.665ZM278.739 163.364H276.682V175H278.739V163.364ZM286.416 171.33C286.416 172.659 285.467 173.318 284.558 173.318C283.57 173.318 282.911 172.619 282.911 171.511V166.273H280.854V171.83C280.854 173.926 282.047 175.114 283.763 175.114C285.07 175.114 285.99 174.426 286.388 173.449H286.479V175H288.473V166.273H286.416V171.33ZM294.452 175.17C296.486 175.17 297.884 174.176 298.247 172.659L296.327 172.443C296.048 173.182 295.366 173.568 294.48 173.568C293.151 173.568 292.27 172.693 292.253 171.199H298.332V170.568C298.332 167.506 296.491 166.159 294.344 166.159C291.844 166.159 290.213 167.994 290.213 170.688C290.213 173.426 291.821 175.17 294.452 175.17ZM292.259 169.812C292.321 168.699 293.145 167.761 294.372 167.761C295.554 167.761 296.349 168.625 296.361 169.812H292.259ZM306.97 168.58C306.686 167.102 305.504 166.159 303.459 166.159C301.357 166.159 299.925 167.193 299.93 168.807C299.925 170.08 300.709 170.92 302.385 171.267L303.874 171.58C304.675 171.756 305.05 172.08 305.05 172.574C305.05 173.17 304.402 173.619 303.425 173.619C302.482 173.619 301.868 173.21 301.692 172.426L299.686 172.619C299.942 174.222 301.288 175.17 303.43 175.17C305.612 175.17 307.152 174.04 307.158 172.386C307.152 171.142 306.351 170.381 304.703 170.023L303.214 169.705C302.328 169.506 301.976 169.199 301.982 168.693C301.976 168.102 302.629 167.693 303.487 167.693C304.436 167.693 304.936 168.21 305.095 168.784L306.97 168.58ZM310.121 175.125C310.791 175.125 311.365 174.568 311.371 173.875C311.365 173.193 310.791 172.636 310.121 172.636C309.428 172.636 308.865 173.193 308.871 173.875C308.865 174.568 309.428 175.125 310.121 175.125Z" fill="#F0F0F0"/>
<defs>
<linearGradient id="paint0_linear" x1="426.517" y1="-65.0928" x2="127.579" y2="377.258" gradientUnits="userSpaceOnUse">
<stop stop-color="#43D6BE"/>
<stop offset="0.307875" stop-color="#1FBDA2"/>
<stop offset="1" stop-color="#13F0A6"/>
</linearGradient>
</defs>
</svg>
