<svg width="32" height="32" viewBox="0 0 32 32" fill="none" xmlns="http://www.w3.org/2000/svg">
<path fill-rule="evenodd" clip-rule="evenodd" d="M21.3333 2.66663H10.6666C6.24835 2.66663 2.66663 6.24835 2.66663 10.6666V21.3333C2.66663 25.7516 6.24835 29.3333 10.6666 29.3333H21.3333C25.7516 29.3333 29.3333 25.7516 29.3333 21.3333V10.6666C29.3333 6.24835 25.7516 2.66663 21.3333 2.66663ZM5.33329 10.6666C5.33329 7.72111 7.72111 5.33329 10.6666 5.33329H21.3333C24.2788 5.33329 26.6666 7.72111 26.6666 10.6666V21.3333C26.6666 24.2788 24.2788 26.6666 21.3333 26.6666H10.6666C7.72111 26.6666 5.33329 24.2788 5.33329 21.3333V10.6666ZM16 22.6666C12.3181 22.6666 9.33329 19.6819 9.33329 16C9.33329 12.3181 12.3181 9.33329 16 9.33329C19.6819 9.33329 22.6666 12.3181 22.6666 16C22.6666 19.6819 19.6819 22.6666 16 22.6666ZM16 20C18.2091 20 20 18.2091 20 16C20 13.7908 18.2091 12 16 12C13.7908 12 12 13.7908 12 16C12 18.2091 13.7908 20 16 20ZM24 9.33329C24 10.0697 23.403 10.6666 22.6666 10.6666C21.9302 10.6666 21.3333 10.0697 21.3333 9.33329C21.3333 8.59691 21.9302 7.99996 22.6666 7.99996C23.403 7.99996 24 8.59691 24 9.33329Z" fill="white"/>
</svg>
