<svg width="99" height="38" viewBox="0 0 99 38" fill="none" xmlns="http://www.w3.org/2000/svg">
<path d="M2.24 4.864H6.624V9.024H2.24V4.864ZM2.24 11.168H6.624V28H2.24V11.168ZM11.1783 11.168H14.9223L15.2423 13.376H15.4663C16.8316 11.648 18.5809 10.784 20.7143 10.784C22.4423 10.784 23.7969 11.2533 24.7783 12.192C25.7809 13.1307 26.2823 14.6347 26.2823 16.704V28H21.8983V17.632C21.8983 16.5867 21.6529 15.8293 21.1623 15.36C20.6716 14.8907 19.9463 14.656 18.9863 14.656C18.0049 14.656 17.1836 15.008 16.5223 15.712C15.8823 16.3947 15.5623 17.248 15.5623 18.272V28H11.1783V11.168Z" fill="#2FD887"/>
<path d="M35.2528 28.384C32.9701 28.384 31.2741 28 30.1648 27.232C29.0554 26.4427 28.5008 25.44 28.5008 24.224C28.5008 23.776 28.5754 23.2853 28.7248 22.752H31.5088C31.4234 23.072 31.3808 23.36 31.3808 23.616C31.3808 24.448 31.7114 25.0667 32.3728 25.472C33.0341 25.8773 33.9194 26.08 35.0288 26.08C36.2661 26.08 37.3008 25.8347 38.1328 25.344C38.9861 24.832 39.4128 24.1493 39.4128 23.296C39.4128 22.7627 39.2314 22.3253 38.8688 21.984C38.5274 21.6213 38.0901 21.344 37.5568 21.152C37.0448 20.9387 36.3301 20.6933 35.4128 20.416C34.3248 20.096 33.4394 19.7973 32.7568 19.52C32.0954 19.2213 31.5301 18.816 31.0608 18.304C30.5914 17.7707 30.3568 17.0773 30.3568 16.224C30.3568 15.136 30.6554 14.1867 31.2528 13.376C31.8714 12.544 32.7034 11.904 33.7488 11.456C34.8154 11.008 36.0101 10.784 37.3328 10.784C39.2954 10.784 40.7994 11.1467 41.8448 11.872C42.8901 12.5973 43.4128 13.536 43.4128 14.688C43.4128 14.9013 43.3808 15.1467 43.3168 15.424C43.2741 15.7013 43.2314 15.8933 43.1888 16H40.4368C40.5008 15.744 40.5328 15.4987 40.5328 15.264C40.5328 14.624 40.2874 14.112 39.7968 13.728C39.3061 13.3227 38.5061 13.12 37.3968 13.12C35.9034 13.12 34.8581 13.3867 34.2608 13.92C33.6634 14.432 33.3648 14.9867 33.3648 15.584C33.3648 16.224 33.6634 16.704 34.2608 17.024C34.8581 17.344 35.7968 17.6747 37.0768 18.016C38.2288 18.336 39.1568 18.6453 39.8608 18.944C40.5648 19.2427 41.1728 19.68 41.6848 20.256C42.1968 20.832 42.4528 21.5893 42.4528 22.528C42.4528 24.448 41.7594 25.9093 40.3728 26.912C39.0074 27.8933 37.3008 28.384 35.2528 28.384ZM50.5808 28.384C48.9594 28.384 47.7114 28.0747 46.8368 27.456C45.9834 26.816 45.5568 25.8027 45.5568 24.416C45.5568 23.8827 45.6314 23.1893 45.7808 22.336L47.7328 11.168H50.5488L48.6288 22.144C48.5221 22.848 48.4688 23.4133 48.4688 23.84C48.4688 24.6507 48.6821 25.2267 49.1088 25.568C49.5568 25.888 50.1754 26.048 50.9648 26.048C51.8394 26.048 52.6821 25.8347 53.4928 25.408C54.3248 24.9813 55.0394 24.3733 55.6368 23.584C56.2341 22.7947 56.6288 21.8667 56.8208 20.8L58.5168 11.168H61.3328L58.3568 28H56.3088V25.728H56.0848C55.4448 26.5173 54.6234 27.1573 53.6208 27.648C52.6181 28.1387 51.6048 28.384 50.5808 28.384ZM65.642 11.168H67.786L67.658 13.696H67.85C68.9593 11.7547 70.4527 10.784 72.33 10.784C72.906 10.784 73.3967 10.8693 73.802 11.04L73.322 13.76H72.138C70.9433 13.76 69.8873 14.1333 68.97 14.88C68.0527 15.6267 67.4553 16.7893 67.178 18.368L65.482 28H62.666L65.642 11.168ZM81.0023 28.384C78.5063 28.384 76.6396 27.84 75.4023 26.752C74.1863 25.664 73.5783 23.9893 73.5783 21.728C73.5783 19.6587 73.8983 17.8027 74.5383 16.16C75.1783 14.496 76.1809 13.184 77.5463 12.224C78.9116 11.264 80.6183 10.784 82.6663 10.784C84.7996 10.784 86.4316 11.2747 87.5623 12.256C88.6929 13.2373 89.2583 14.6773 89.2583 16.576C89.2583 17.2373 89.1729 18.0267 89.0023 18.944L88.7463 20.352H76.5543C76.4903 20.6507 76.4583 21.056 76.4583 21.568C76.4583 23.0827 76.8209 24.2133 77.5463 24.96C78.2929 25.6853 79.4236 26.048 80.9383 26.048C82.1543 26.048 83.1889 25.7387 84.0423 25.12C84.9169 24.5013 85.4609 23.552 85.6743 22.272H88.4263C88.1063 24.2347 87.2636 25.7493 85.8983 26.816C84.5329 27.8613 82.9009 28.384 81.0023 28.384ZM86.2823 18.016C86.3676 17.7173 86.4103 17.3013 86.4103 16.768C86.4103 14.336 85.1303 13.12 82.5703 13.12C81.1196 13.12 79.9143 13.5467 78.9543 14.4C78.0156 15.232 77.3543 16.4373 76.9703 18.016H86.2823Z" fill="white"/>
</svg>
