<svg width="32" height="32" viewBox="0 0 32 32" fill="none" xmlns="http://www.w3.org/2000/svg">
<path d="M7.44873 10.2948H1.02467C0.739564 10.2948 0.508545 10.5259 0.508545 10.8109V31.4487C0.508545 31.7338 0.739564 31.9648 1.02467 31.9648H7.44873C7.73383 31.9648 7.96485 31.7338 7.96485 31.4487V10.8109C7.96485 10.5259 7.73383 10.2948 7.44873 10.2948Z" fill="white"/>
<path d="M4.23907 0.0352783C1.90163 0.0352783 0 1.93484 0 4.2697C0 6.6056 1.90163 8.50589 4.23907 8.50589C6.57466 8.50589 8.47474 6.6055 8.47474 4.2697C8.47484 1.93484 6.57466 0.0352783 4.23907 0.0352783Z" fill="white"/>
<path d="M23.7888 9.78186C21.2087 9.78186 19.3013 10.891 18.1445 12.1513V10.8109C18.1445 10.5259 17.9135 10.2948 17.6284 10.2948H11.4762C11.1911 10.2948 10.9601 10.5259 10.9601 10.8109V31.4487C10.9601 31.7338 11.1911 31.9648 11.4762 31.9648H17.8862C18.1713 31.9648 18.4024 31.7338 18.4024 31.4487V21.2378C18.4024 17.7969 19.337 16.4564 21.7355 16.4564C24.3477 16.4564 24.5553 18.6054 24.5553 21.4148V31.4488C24.5553 31.7339 24.7864 31.9649 25.0715 31.9649H31.4839C31.769 31.9649 32 31.7339 32 31.4488V20.1286C32 15.0122 31.0244 9.78186 23.7888 9.78186Z" fill="white"/>
</svg>
