<svg width="32" height="32" viewBox="0 0 32 32" fill="none" xmlns="http://www.w3.org/2000/svg">
<g id="24 / symbols / linkedin">
<path id="icon" fill-rule="evenodd" clip-rule="evenodd" d="M5.33329 2.66663H26.6666C28.1394 2.66663 29.3333 3.86053 29.3333 5.33329V26.6666C29.3333 28.1394 28.1394 29.3333 26.6666 29.3333H5.33329C3.86053 29.3333 2.66663 28.1394 2.66663 26.6666V5.33329C2.66663 3.86053 3.86053 2.66663 5.33329 2.66663ZM5.33329 5.33329V26.6666H26.6666V5.33329H5.33329ZM17.3333 12C16.643 12 15.9136 12.211 15.2695 12.6028L14.6666 12H13.3333V21.3333H16V16C16 15.2323 16.7919 14.6666 17.3333 14.6666H18.6666C19.208 14.6666 20 15.2323 20 16V21.3333H22.6666V16C22.6666 13.5295 20.5252 12 18.6666 12H17.3333ZM10.6666 10.6666C11.403 10.6666 12 10.0697 12 9.33329C12 8.59691 11.403 7.99996 10.6666 7.99996C9.93025 7.99996 9.33329 8.59691 9.33329 9.33329C9.33329 10.0697 9.93025 10.6666 10.6666 10.6666ZM9.33329 12V21.3333H12V12H9.33329Z" fill="white"/>
</g>
</svg>
