<svg width="99" height="38" viewBox="0 0 99 38" fill="none" xmlns="http://www.w3.org/2000/svg">
<g clip-path="url(#clip0_1580_4762)">
<g clip-path="url(#clip1_1580_4762)">
<path d="M18.2157 0.695049L32.2232 8.77855C32.5999 8.99589 32.9128 9.30859 33.1304 9.68521C33.348 10.0618 33.4626 10.4891 33.4627 10.924V27.089C33.4627 27.5241 33.3481 27.9515 33.1305 28.3282C32.913 28.7049 32.6 29.0177 32.2232 29.235L18.2372 37.3065C17.8553 37.527 17.4214 37.6415 16.9804 37.6383C16.5394 37.635 16.1073 37.5141 15.7287 37.288L2.85969 29.6055C2.67395 29.4947 2.52047 29.3372 2.41453 29.1486C2.30859 28.96 2.25388 28.747 2.25586 28.5307C2.25783 28.3144 2.31641 28.1024 2.42577 27.9158C2.53513 27.7292 2.69145 27.5745 2.87919 27.467L16.7282 19.53C16.8039 19.4866 16.8668 19.424 16.9105 19.3485C16.9542 19.273 16.9772 19.1873 16.9772 19.1V11.095C16.9772 11.008 16.9543 10.9226 16.9108 10.8472C16.8673 10.7719 16.8047 10.7093 16.7293 10.6658C16.654 10.6224 16.5685 10.5995 16.4815 10.5995C16.3945 10.5996 16.309 10.6225 16.2337 10.666L2.35069 18.692C2.16243 18.8009 1.94884 18.8583 1.73137 18.8584C1.51391 18.8585 1.30025 18.8014 1.11187 18.6927C0.9235 18.5841 0.767056 18.4277 0.658275 18.2394C0.549495 18.0511 0.492212 17.8375 0.492188 17.62L0.492188 10.925C0.492188 10.0395 0.964687 9.22155 1.73119 8.77905L15.7392 0.694548C16.1157 0.477288 16.5427 0.362915 16.9774 0.362915C17.4121 0.362915 17.8392 0.477288 18.2157 0.694548V0.695049Z" fill="url(#paint0_linear_1580_4762)"/>
<path d="M18.2157 0.695049L32.2232 8.77855C32.5999 8.99589 32.9128 9.30859 33.1304 9.68521C33.348 10.0618 33.4626 10.4891 33.4627 10.924V27.089C33.4627 27.5241 33.3481 27.9515 33.1305 28.3282C32.913 28.7049 32.6 29.0177 32.2232 29.235L18.2372 37.3065C17.8553 37.527 17.4214 37.6415 16.9804 37.6383C16.5394 37.635 16.1073 37.5141 15.7287 37.288L3.22369 29.823C3.00076 29.6901 2.81653 29.5011 2.68933 29.2748C2.56214 29.0485 2.49641 28.7929 2.49868 28.5333C2.50096 28.2738 2.57116 28.0193 2.7023 27.7953C2.83345 27.5713 3.02096 27.3856 3.24619 27.2565L15.7317 20.1015C16.1102 19.8846 16.4247 19.5715 16.6434 19.194C16.8622 18.8164 16.9773 18.3879 16.9772 17.9515V11.954C16.9772 11.78 16.9314 11.6091 16.8444 11.4584C16.7573 11.3077 16.6322 11.1826 16.4815 11.0956C16.3307 11.0087 16.1598 10.9629 15.9858 10.963C15.8118 10.9631 15.6408 11.009 15.4902 11.096L2.35069 18.692C2.16243 18.8009 1.94884 18.8583 1.73137 18.8584C1.51391 18.8585 1.30025 18.8014 1.11187 18.6927C0.9235 18.5841 0.767056 18.4277 0.658275 18.2394C0.549495 18.0511 0.492212 17.8375 0.492188 17.62L0.492188 10.925C0.492188 10.0395 0.964687 9.22155 1.73119 8.77905L15.7392 0.694548C16.1157 0.477288 16.5427 0.362915 16.9774 0.362915C17.4121 0.362915 17.8392 0.477288 18.2157 0.694548V0.695049Z" fill="url(#paint1_linear_1580_4762)"/>
<path d="M17.7202 0.40888L32.7192 9.06388C32.9453 9.19437 33.1331 9.38211 33.2636 9.60822C33.3941 9.83432 33.4628 10.0908 33.4627 10.3519V27.6619C33.4626 27.9228 33.3938 28.1791 33.2633 28.405C33.1328 28.6309 32.9452 28.8185 32.7192 28.9489L17.7332 37.5974C17.504 37.7296 17.2437 37.7982 16.9791 37.7962C16.7146 37.7942 16.4553 37.7216 16.2282 37.5859L2.85969 29.6054C2.67395 29.4946 2.52047 29.337 2.41453 29.1484C2.30859 28.9599 2.25388 28.7468 2.25586 28.5305C2.25783 28.3143 2.31641 28.1023 2.42577 27.9156C2.53513 27.729 2.69145 27.5743 2.87919 27.4669L15.8562 20.0299C16.1968 19.8346 16.4798 19.553 16.6766 19.2133C16.8735 18.8736 16.9772 18.488 16.9772 18.0954V11.9539C16.9772 11.7799 16.9314 11.6089 16.8444 11.4582C16.7573 11.3075 16.6322 11.1824 16.4815 11.0955C16.3307 11.0085 16.1598 10.9628 15.9858 10.9628C15.8118 10.9629 15.6408 11.0088 15.4902 11.0959L2.35069 18.6919C2.16243 18.8007 1.94884 18.8581 1.73137 18.8582C1.51391 18.8584 1.30025 18.8012 1.11187 18.6926C0.9235 18.5839 0.767056 18.4276 0.658275 18.2393C0.549495 18.051 0.492212 17.8373 0.492188 17.6199L0.492188 10.3519C0.492188 9.82038 0.775687 9.32988 1.23569 9.06438L16.2342 0.40888C16.4601 0.278408 16.7163 0.209717 16.9772 0.209717C17.238 0.209717 17.4943 0.278408 17.7202 0.40888V0.40888Z" fill="#5670FB"/>
<mask id="mask0_1580_4762" style="mask-type:luminance" maskUnits="userSpaceOnUse" x="0" y="0" width="34" height="38">
<path d="M17.7202 0.40888L32.7192 9.06388C32.9453 9.19437 33.1331 9.38211 33.2636 9.60822C33.3941 9.83432 33.4628 10.0908 33.4627 10.3519V27.6619C33.4626 27.9228 33.3938 28.1791 33.2633 28.405C33.1328 28.6309 32.9452 28.8185 32.7192 28.9489L17.7332 37.5974C17.504 37.7296 17.2437 37.7982 16.9791 37.7962C16.7146 37.7942 16.4553 37.7216 16.2282 37.5859L2.85969 29.6054C2.67395 29.4946 2.52047 29.337 2.41453 29.1484C2.30859 28.9599 2.25388 28.7468 2.25586 28.5305C2.25783 28.3143 2.31641 28.1023 2.42577 27.9156C2.53513 27.729 2.69145 27.5743 2.87919 27.4669L15.8562 20.0299C16.1968 19.8346 16.4798 19.553 16.6766 19.2133C16.8735 18.8736 16.9772 18.488 16.9772 18.0954V11.9539C16.9772 11.7799 16.9314 11.6089 16.8444 11.4582C16.7573 11.3075 16.6322 11.1824 16.4815 11.0955C16.3307 11.0085 16.1598 10.9628 15.9858 10.9628C15.8118 10.9629 15.6408 11.0088 15.4902 11.0959L2.35069 18.6919C2.16243 18.8007 1.94884 18.8581 1.73137 18.8582C1.51391 18.8584 1.30025 18.8012 1.11187 18.6926C0.9235 18.5839 0.767056 18.4276 0.658275 18.2393C0.549495 18.051 0.492212 17.8373 0.492188 17.6199L0.492188 10.3519C0.492188 9.82038 0.775687 9.32988 1.23569 9.06438L16.2342 0.40888C16.4601 0.278408 16.7163 0.209717 16.9772 0.209717C17.238 0.209717 17.4943 0.278408 17.7202 0.40888V0.40888Z" fill="#3655FF"/>
</mask>
<g mask="url(#mask0_1580_4762)">
<path fill-rule="evenodd" clip-rule="evenodd" d="M32.8019 27.8515L16.4449 18.94L0.98291 28.4815L17.2269 38.261L32.8214 29.146C32.9353 29.0796 33.0295 28.9841 33.0943 28.8693C33.1591 28.7545 33.1921 28.6245 33.1901 28.4927C33.1881 28.3608 33.151 28.2319 33.0827 28.1192C33.0144 28.0064 32.9173 27.9139 32.8014 27.851L32.8019 27.8515Z" fill="#3655FF"/>
</g>
<mask id="mask1_1580_4762" style="mask-type:luminance" maskUnits="userSpaceOnUse" x="0" y="0" width="34" height="38">
<path d="M17.7202 0.40888L32.7192 9.06388C32.9453 9.19437 33.1331 9.38211 33.2636 9.60822C33.3941 9.83432 33.4628 10.0908 33.4627 10.3519V27.6619C33.4626 27.9228 33.3938 28.1791 33.2633 28.405C33.1328 28.6309 32.9452 28.8185 32.7192 28.9489L17.7332 37.5974C17.504 37.7296 17.2437 37.7982 16.9791 37.7962C16.7146 37.7942 16.4553 37.7216 16.2282 37.5859L2.85969 29.6054C2.67395 29.4946 2.52047 29.337 2.41453 29.1484C2.30859 28.9599 2.25388 28.7468 2.25586 28.5305C2.25783 28.3143 2.31641 28.1023 2.42577 27.9156C2.53513 27.729 2.69145 27.5743 2.87919 27.4669L15.8562 20.0299C16.1968 19.8346 16.4798 19.553 16.6766 19.2133C16.8735 18.8736 16.9772 18.488 16.9772 18.0954V11.9539C16.9772 11.7799 16.9314 11.6089 16.8444 11.4582C16.7573 11.3075 16.6322 11.1824 16.4815 11.0955C16.3307 11.0085 16.1598 10.9628 15.9858 10.9628C15.8118 10.9629 15.6408 11.0088 15.4902 11.0959L2.35069 18.6919C2.16243 18.8007 1.94884 18.8581 1.73137 18.8582C1.51391 18.8584 1.30025 18.8012 1.11187 18.6926C0.9235 18.5839 0.767056 18.4276 0.658275 18.2393C0.549495 18.051 0.492212 17.8373 0.492188 17.6199L0.492188 10.3519C0.492188 9.82038 0.775687 9.32988 1.23569 9.06438L16.2342 0.40888C16.4601 0.278408 16.7163 0.209717 16.9772 0.209717C17.238 0.209717 17.4943 0.278408 17.7202 0.40888V0.40888Z" fill="#3C59F3"/>
</mask>
<g mask="url(#mask1_1580_4762)">
<path fill-rule="evenodd" clip-rule="evenodd" d="M15.4937 0.851875L0.230225 9.63538L0.244725 20.7694L16.5247 13.8894C16.7997 13.7729 16.9787 13.5034 16.9787 13.2044V1.71088C16.9787 1.53707 16.933 1.36633 16.8461 1.21578C16.7593 1.06523 16.6344 0.940174 16.4839 0.853149C16.3335 0.766124 16.1628 0.720195 15.989 0.719972C15.8152 0.719748 15.6444 0.765237 15.4937 0.851875Z" fill="#3C59F3"/>
</g>
</g>
</g>
<defs>
<linearGradient id="paint0_linear_1580_4762" x1="1649.02" y1="3727.9" x2="1649.02" y2="-653.634" gradientUnits="userSpaceOnUse">
<stop stop-color="#0169E1"/>
<stop offset="1" stop-color="#0F8EF1"/>
</linearGradient>
<linearGradient id="paint1_linear_1580_4762" x1="1649.02" y1="3727.9" x2="1649.02" y2="-653.634" gradientUnits="userSpaceOnUse">
<stop stop-color="#0169E1"/>
<stop offset="1" stop-color="#0F8EF1"/>
</linearGradient>
<clipPath id="clip0_1580_4762">
<rect width="99" height="38" fill="white"/>
</clipPath>
<clipPath id="clip1_1580_4762">
<rect width="33.5" height="38" fill="white"/>
</clipPath>
</defs>
</svg>
