<svg width="99" height="38" viewBox="0 0 99 38" fill="none" xmlns="http://www.w3.org/2000/svg">
<g clip-path="url(#clip0_1806_6096)">
<g clip-path="url(#clip1_1806_6096)">
<path d="M37.1696 24.5725C29.1011 26.7261 17.3622 23.352 10.2794 11.9155C8.3409 16.5438 7.28403 21.8521 7.39745 27.4841C18.9796 37.6334 33.5507 38.7762 43.5163 34.0975C40.3166 31.2734 38.228 27.917 37.1696 24.5725Z" fill="#A8C05D"/>
<path d="M36.8512 25.3265C28.8741 27.2768 17.6309 24.085 10.3996 13.4863C8.87532 17.6046 8.04586 22.2208 8.10401 27.0914C19.0584 36.5776 32.6991 37.9103 42.3084 33.8512C39.6514 31.2529 37.8492 28.289 36.8512 25.3265Z" fill="#507837"/>
<path d="M35.6423 33.1022C34.5756 33.269 33.8004 33.733 33.4496 34.404C27.8592 34.8353 21.6632 33.6529 15.7925 30.4961C14.9193 29.197 13.8073 27.9543 12.6306 27.1046C11.4202 26.2362 10.2643 25.2942 9.16917 24.2839C9.29422 22.0424 9.62193 19.8152 10.1483 17.6299C11.0464 18.6993 12.0124 19.7091 13.0404 20.6533C14.015 21.5438 14.9833 21.7332 15.6819 21.4123C20.437 25.1317 25.754 26.9655 30.6262 27.2349C31.3728 27.8649 32.3657 28.2371 33.306 28.1759C34.5187 28.1012 35.7242 27.9289 36.911 27.6607C37.6314 29.2663 38.5398 30.779 39.6169 32.1671C38.3169 32.58 36.9882 32.8926 35.6423 33.1022V33.1022Z" fill="#A8C05D"/>
<path d="M28.1918 30.6262C27.3887 28.1575 25.4786 25.8764 23.3622 25.0373C21.2718 24.2121 19.3664 25.3334 19.6116 28.1711C19.8367 31.0043 22.6645 34.1458 25.3261 34.5887C27.9877 35.0315 28.9841 33.07 28.1918 30.6262Z" fill="#507837"/>
<path d="M16.7362 26.2723C16.7002 25.1563 15.9144 23.7456 14.9297 22.9893C13.945 22.233 13.0415 22.4585 12.9508 23.6277C12.86 24.797 13.7293 26.4242 14.8362 27.1209C15.9432 27.8176 16.7707 27.3839 16.7362 26.2723Z" fill="#507837"/>
<path d="M34.3096 30.3499C33.9071 29.4972 32.8674 28.8697 31.8717 28.8685C30.8761 28.8673 30.2471 29.5496 30.569 30.4774C30.8908 31.4052 32.108 32.1675 33.1824 32.0868C34.2568 32.006 34.7109 31.1963 34.3096 30.3499Z" fill="#507837"/>
<g style="mix-blend-mode:multiply" opacity="0.5">
<path d="M42.2417 34.6573C31.843 36.7872 18.6087 32.9217 9.44083 21.4848C9.84838 18.8261 10.5248 16.2137 11.4596 13.6883C18.6127 23.6989 29.5349 26.6128 37.1701 24.5748C38.2285 27.9192 40.3171 31.2757 43.515 34.1008C43.0988 34.2965 42.6742 34.4801 42.2417 34.6573Z" fill="#818181"/>
</g>
<path d="M39.8098 23.4991C31.4793 23.6649 20.9022 17.5749 16.7544 4.74902C13.7774 8.78944 11.4919 13.7029 10.2628 19.2106C19.0775 31.8573 32.9284 36.4539 43.698 34.2855C41.2702 30.7711 40.0431 27.0058 39.8098 23.4991Z" fill="#A8C05D"/>
<path d="M39.3243 24.1412C31.1296 24.1311 20.9906 18.3347 16.5015 6.28942C14.045 9.93271 12.1456 14.2264 11.0443 18.9801C19.4091 30.8336 32.3132 35.3905 42.5898 33.7397C40.6329 30.5819 39.5925 27.2683 39.3243 24.1412Z" fill="#507837"/>
<path d="M36.3082 31.4234C35.2349 31.3306 34.3733 31.5973 33.8739 32.1661C28.3529 31.2486 22.6293 28.616 17.6893 24.1399C17.1511 22.6664 16.3702 21.189 15.4296 20.0836C14.4618 18.9482 13.5644 17.7539 12.7425 16.5076C13.396 14.3573 14.2422 12.2694 15.2705 10.2695C15.8886 11.5258 16.5865 12.7404 17.3597 13.9061C18.0925 15.0063 18.9895 15.4235 19.7412 15.2756C23.4664 20.0319 28.1807 23.0871 32.8395 24.515C33.4129 25.3061 34.2881 25.9063 35.2132 26.0714C36.4063 26.2883 37.6156 26.4088 38.8295 26.4316C39.1473 28.1654 39.6689 29.8535 40.3834 31.4609C39.0252 31.5531 37.6628 31.5405 36.3082 31.4234V31.4234Z" fill="#A8C05D"/>
<path d="M29.6771 27.2336C29.4848 24.6386 28.1752 21.9626 26.3237 20.6395C24.4908 19.3331 22.3807 19.972 21.9438 22.7919C21.4898 25.6026 23.4843 29.337 25.9577 30.4048C28.431 31.4726 29.8641 29.8018 29.6771 27.2336Z" fill="#507837"/>
<path d="M19.6048 20.2602C19.8353 19.1652 19.4081 17.6057 18.6334 16.633C17.8587 15.6602 16.9292 15.6653 16.5636 16.7815C16.1981 17.8977 16.6515 19.6854 17.5615 20.6317C18.4715 21.578 19.3735 21.3448 19.6048 20.2602Z" fill="#507837"/>
<path d="M35.6686 28.4295C35.4815 27.5026 34.6224 26.6435 33.6575 26.4042C32.6927 26.165 31.9212 26.6781 32.0135 27.6584C32.1057 28.6387 33.1063 29.6686 34.1638 29.8496C35.2212 30.0306 35.8535 29.3516 35.6686 28.4295Z" fill="#507837"/>
<g style="mix-blend-mode:multiply" opacity="0.5">
<path d="M11.396 16.9291C12.6051 12.8011 14.488 8.89778 16.9677 5.37881C21.2554 17.7762 31.62 23.665 39.8132 23.5021C40.045 27.0078 41.2711 30.7713 43.6966 34.2842C32.8104 35.7024 19.3168 30.1607 11.396 16.9291Z" fill="#818181"/>
</g>
<path d="M41.0855 23.0871C32.7935 22.3408 22.9512 15.1251 20.2251 1.91138C16.8289 5.60509 14.0261 10.2431 12.2064 15.5886C19.5863 29.1371 32.8438 35.2254 43.7744 34.2462C41.7434 30.4842 40.9343 26.6032 41.0855 23.0871Z" fill="#A8C05D"/>
<path d="M40.5305 23.6761C32.3925 22.7694 22.953 15.8938 19.8046 3.42222C16.9696 6.77814 14.6146 10.8441 13.0083 15.4526C20.0278 28.161 32.3487 34.1064 42.7328 33.5882C41.1311 30.2272 40.4587 26.8134 40.5305 23.6761Z" fill="#507837"/>
<path d="M36.7428 30.5858C35.6855 30.3749 34.8013 30.5466 34.2414 31.0574C28.8579 29.54 23.4595 26.2948 19.0402 21.3008C18.6679 19.7779 18.052 18.2227 17.2409 17.0171C16.4022 15.7823 15.6399 14.4966 14.958 13.1674C15.8417 11.0995 16.9102 9.11497 18.1504 7.23828C18.6264 8.55464 19.1866 9.8382 19.8274 11.081C20.4357 12.256 21.2774 12.7662 22.0461 12.7051C25.2296 17.8456 29.5819 21.4034 34.0527 23.3322C34.537 24.1827 35.3366 24.8735 36.2407 25.1412C37.4021 25.4882 38.5903 25.7404 39.7938 25.8954C39.92 27.6563 40.2539 29.3942 40.7883 31.0729C39.4285 31.0149 38.076 30.852 36.7428 30.5858Z" fill="#A8C05D"/>
<path d="M30.6132 25.6963C30.7044 23.0935 29.6946 20.2875 27.9989 18.7683C26.3215 17.268 24.1561 17.6726 23.4161 20.4306C22.6594 23.1775 24.2347 27.1102 26.5753 28.4436C28.9159 29.7771 30.5206 28.2715 30.6132 25.6963Z" fill="#507837"/>
<path d="M21.3694 17.6498C21.718 16.5855 21.4633 14.9867 20.7992 13.9354C20.135 12.8841 19.2117 12.7858 18.7279 13.8565C18.2441 14.9273 18.4992 16.7551 19.2974 17.7935C20.0956 18.8318 21.0232 18.7089 21.3694 17.6498Z" fill="#507837"/>
<path d="M36.4341 27.5427C36.3504 26.5992 35.5902 25.6494 34.6565 25.3088C33.7228 24.9682 32.9032 25.3916 32.8877 26.3768C32.8722 27.3619 33.7549 28.4964 34.7857 28.7918C35.8166 29.0872 36.5181 28.4809 36.4341 27.5427Z" fill="#507837"/>
</g>
<path d="M45.0017 19.9201L43.8057 21.4141L41.9928 22.0269L43.4868 23.2229L44.0996 25.0358L45.2956 23.5418L47.1085 22.929L45.6145 21.733L45.0017 19.9201Z" fill="#FAFBE7"/>
<path d="M6.86717 5.17651L5.43224 6.97685L3.24971 7.70948L5.04885 9.15117L5.78268 11.3269L7.22318 9.53456L9.40014 8.79397L7.60657 7.36024L6.86717 5.17651Z" fill="#FAFBE7"/>
</g>
<defs>
<clipPath id="clip0_1806_6096">
<rect width="99" height="38" fill="white"/>
</clipPath>
<clipPath id="clip1_1806_6096">
<rect width="28.7521" height="40.253" fill="white" transform="matrix(-0.554021 0.832503 0.832503 0.554021 17.9512 0.386719)"/>
</clipPath>
</defs>
</svg>
