<svg width="99" height="38" viewBox="0 0 99 38" fill="none" xmlns="http://www.w3.org/2000/svg">
<g clip-path="url(#clip0_1580_4762)">
<path d="M11.9842 6.45722L21.1996 11.7753C21.4475 11.9183 21.6534 12.124 21.7965 12.3718C21.9396 12.6196 22.015 12.9007 22.0151 13.1868V23.8217C22.0151 24.1079 21.9397 24.3891 21.7966 24.6369C21.6534 24.8847 21.4475 25.0905 21.1996 25.2335L11.9983 30.5437C11.747 30.6888 11.4616 30.7641 11.1715 30.762C10.8814 30.7598 10.5971 30.6803 10.348 30.5316L1.88154 25.4773C1.75934 25.4044 1.65837 25.3007 1.58867 25.1767C1.51898 25.0526 1.48299 24.9124 1.48428 24.7701C1.48558 24.6279 1.52412 24.4884 1.59607 24.3656C1.66802 24.2428 1.77086 24.1411 1.89437 24.0704L11.0056 18.8487C11.0553 18.8201 11.0967 18.7789 11.1255 18.7292C11.1543 18.6796 11.1694 18.6232 11.1694 18.5658V13.2993C11.1694 13.2421 11.1543 13.1859 11.1257 13.1363C11.0971 13.0867 11.0559 13.0456 11.0063 13.0169C10.9567 12.9883 10.9005 12.9733 10.8432 12.9733C10.786 12.9733 10.7298 12.9884 10.6802 13.0171L1.54667 18.2973C1.42282 18.369 1.2823 18.4067 1.13923 18.4068C0.996159 18.4069 0.855592 18.3693 0.731662 18.2978C0.607733 18.2263 0.504809 18.1235 0.433243 17.9996C0.361677 17.8757 0.323991 17.7352 0.323975 17.5921L0.323975 13.1875C0.323975 12.6049 0.63483 12.0668 1.13911 11.7756L10.3549 6.45689C10.6026 6.31395 10.8835 6.23871 11.1695 6.23871C11.4555 6.23871 11.7365 6.31395 11.9842 6.45689V6.45722Z" fill="url(#paint0_linear_1580_4762)"/>
<path d="M11.9842 6.45722L21.1996 11.7753C21.4475 11.9183 21.6534 12.124 21.7965 12.3718C21.9396 12.6196 22.015 12.9007 22.0151 13.1868V23.8217C22.0151 24.1079 21.9397 24.3891 21.7966 24.6369C21.6534 24.8847 21.4475 25.0905 21.1996 25.2335L11.9983 30.5437C11.747 30.6888 11.4616 30.7641 11.1715 30.762C10.8814 30.7598 10.5971 30.6803 10.348 30.5316L2.12101 25.6204C1.97435 25.5329 1.85315 25.4085 1.76947 25.2597C1.68578 25.1108 1.64254 24.9426 1.64404 24.7719C1.64553 24.6011 1.69172 24.4337 1.778 24.2864C1.86428 24.139 1.98764 24.0168 2.13582 23.9319L10.35 19.2247C10.599 19.0819 10.8059 18.8759 10.9498 18.6276C11.0937 18.3792 11.1694 18.0972 11.1694 17.8102V13.8645C11.1694 13.75 11.1392 13.6375 11.082 13.5384C11.0247 13.4392 10.9424 13.3569 10.8432 13.2997C10.7441 13.2425 10.6316 13.2124 10.5171 13.2124C10.4026 13.2125 10.2902 13.2427 10.1911 13.3L1.54667 18.2973C1.42282 18.369 1.2823 18.4067 1.13923 18.4068C0.996159 18.4069 0.855592 18.3693 0.731662 18.2978C0.607733 18.2263 0.504809 18.1235 0.433243 17.9996C0.361677 17.8757 0.323991 17.7352 0.323975 17.5921L0.323975 13.1875C0.323975 12.6049 0.63483 12.0668 1.13911 11.7756L10.3549 6.45689C10.6026 6.31395 10.8835 6.23871 11.1695 6.23871C11.4555 6.23871 11.7365 6.31395 11.9842 6.45689V6.45722Z" fill="url(#paint1_linear_1580_4762)"/>
<path d="M11.6582 6.26909L21.5259 11.9632C21.6747 12.049 21.7982 12.1725 21.8841 12.3213C21.97 12.47 22.0152 12.6388 22.0151 12.8105V24.1987C22.015 24.3703 21.9698 24.5389 21.8839 24.6876C21.7981 24.8362 21.6746 24.9596 21.5259 25.0454L11.6667 30.7352C11.516 30.8222 11.3447 30.8673 11.1706 30.866C10.9966 30.8647 10.826 30.8169 10.6766 30.7276L1.88154 25.4773C1.75934 25.4044 1.65837 25.3008 1.58867 25.1767C1.51898 25.0526 1.48299 24.9125 1.48428 24.7702C1.48558 24.6279 1.52412 24.4884 1.59607 24.3656C1.66802 24.2429 1.77086 24.1411 1.89437 24.0704L10.4319 19.1776C10.6559 19.0492 10.8421 18.8639 10.9716 18.6404C11.1011 18.4169 11.1693 18.1632 11.1694 17.9049V13.8645C11.1694 13.75 11.1392 13.6375 11.082 13.5384C11.0247 13.4393 10.9424 13.357 10.8432 13.2997C10.7441 13.2425 10.6316 13.2124 10.5171 13.2125C10.4026 13.2125 10.2902 13.2427 10.1911 13.3L1.54667 18.2974C1.42282 18.369 1.2823 18.4067 1.13923 18.4068C0.996159 18.4069 0.855592 18.3693 0.731662 18.2978C0.607733 18.2263 0.504809 18.1235 0.433243 17.9996C0.361677 17.8757 0.323991 17.7352 0.323975 17.5921L0.323975 12.8105C0.323975 12.4609 0.510488 12.1382 0.813119 11.9635L10.6806 6.26909C10.8292 6.18325 10.9978 6.13806 11.1694 6.13806C11.341 6.13806 11.5096 6.18325 11.6582 6.26909V6.26909Z" fill="#5670FB"/>
<mask id="mask0_1580_4762" style="mask-type:luminance" maskUnits="userSpaceOnUse" x="0" y="6" width="23" height="25">
<path d="M11.6582 6.26909L21.5259 11.9632C21.6747 12.049 21.7982 12.1725 21.8841 12.3213C21.97 12.47 22.0152 12.6388 22.0151 12.8105V24.1987C22.015 24.3703 21.9698 24.5389 21.8839 24.6876C21.7981 24.8362 21.6746 24.9596 21.5259 25.0454L11.6667 30.7352C11.516 30.8222 11.3447 30.8673 11.1706 30.866C10.9966 30.8647 10.826 30.8169 10.6766 30.7276L1.88154 25.4773C1.75934 25.4044 1.65837 25.3008 1.58867 25.1767C1.51898 25.0526 1.48299 24.9125 1.48428 24.7702C1.48558 24.6279 1.52412 24.4884 1.59607 24.3656C1.66802 24.2429 1.77086 24.1411 1.89437 24.0704L10.4319 19.1776C10.6559 19.0492 10.8421 18.8639 10.9716 18.6404C11.1011 18.4169 11.1693 18.1632 11.1694 17.9049V13.8645C11.1694 13.75 11.1392 13.6375 11.082 13.5384C11.0247 13.4393 10.9424 13.357 10.8432 13.2997C10.7441 13.2425 10.6316 13.2124 10.5171 13.2125C10.4026 13.2125 10.2902 13.2427 10.1911 13.3L1.54667 18.2974C1.42282 18.369 1.2823 18.4067 1.13923 18.4068C0.996159 18.4069 0.855592 18.3693 0.731662 18.2978C0.607733 18.2263 0.504809 18.1235 0.433243 17.9996C0.361677 17.8757 0.323991 17.7352 0.323975 17.5921L0.323975 12.8105C0.323975 12.4609 0.510488 12.1382 0.813119 11.9635L10.6806 6.26909C10.8292 6.18325 10.9978 6.13806 11.1694 6.13806C11.341 6.13806 11.5096 6.18325 11.6582 6.26909V6.26909Z" fill="#3655FF"/>
</mask>
<g mask="url(#mask0_1580_4762)">
<path fill-rule="evenodd" clip-rule="evenodd" d="M21.5803 24.3233L10.8191 18.4605L0.646729 24.7378L11.3336 31.1717L21.5931 25.175C21.668 25.1313 21.73 25.0685 21.7726 24.9929C21.8152 24.9174 21.837 24.8319 21.8357 24.7451C21.8343 24.6584 21.8099 24.5736 21.765 24.4994C21.7201 24.4253 21.6562 24.3644 21.58 24.323L21.5803 24.3233Z" fill="#3655FF"/>
</g>
<mask id="mask1_1580_4762" style="mask-type:luminance" maskUnits="userSpaceOnUse" x="0" y="6" width="23" height="25">
<path d="M11.6582 6.26909L21.5259 11.9632C21.6747 12.049 21.7982 12.1725 21.8841 12.3213C21.97 12.47 22.0152 12.6388 22.0151 12.8105V24.1987C22.015 24.3703 21.9698 24.5389 21.8839 24.6876C21.7981 24.8362 21.6746 24.9596 21.5259 25.0454L11.6667 30.7352C11.516 30.8222 11.3447 30.8673 11.1706 30.866C10.9966 30.8647 10.826 30.8169 10.6766 30.7276L1.88154 25.4773C1.75934 25.4044 1.65837 25.3008 1.58867 25.1767C1.51898 25.0526 1.48299 24.9125 1.48428 24.7702C1.48558 24.6279 1.52412 24.4884 1.59607 24.3656C1.66802 24.2429 1.77086 24.1411 1.89437 24.0704L10.4319 19.1776C10.6559 19.0492 10.8421 18.8639 10.9716 18.6404C11.1011 18.4169 11.1693 18.1632 11.1694 17.9049V13.8645C11.1694 13.75 11.1392 13.6375 11.082 13.5384C11.0247 13.4393 10.9424 13.357 10.8432 13.2997C10.7441 13.2425 10.6316 13.2124 10.5171 13.2125C10.4026 13.2125 10.2902 13.2427 10.1911 13.3L1.54667 18.2974C1.42282 18.369 1.2823 18.4067 1.13923 18.4068C0.996159 18.4069 0.855592 18.3693 0.731662 18.2978C0.607733 18.2263 0.504809 18.1235 0.433243 17.9996C0.361677 17.8757 0.323991 17.7352 0.323975 17.5921L0.323975 12.8105C0.323975 12.4609 0.510488 12.1382 0.813119 11.9635L10.6806 6.26909C10.8292 6.18325 10.9978 6.13806 11.1694 6.13806C11.341 6.13806 11.5096 6.18325 11.6582 6.26909V6.26909Z" fill="#3C59F3"/>
</mask>
<g mask="url(#mask1_1580_4762)">
<path fill-rule="evenodd" clip-rule="evenodd" d="M10.1934 6.56053L0.151611 12.3392L0.161151 19.6642L10.8717 15.1378C11.0526 15.0612 11.1704 14.8839 11.1704 14.6872V7.12567C11.1703 7.01132 11.1403 6.89899 11.0831 6.79995C11.026 6.7009 10.9438 6.61863 10.8448 6.56137C10.7459 6.50412 10.6336 6.4739 10.5192 6.47376C10.4049 6.47361 10.2925 6.50354 10.1934 6.56053Z" fill="#3C59F3"/>
</g>
</g>
<defs>
<linearGradient id="paint0_linear_1580_4762" x1="1084.88" y1="2458.57" x2="1084.88" y2="-424.023" gradientUnits="userSpaceOnUse">
<stop stop-color="#0169E1"/>
<stop offset="1" stop-color="#0F8EF1"/>
</linearGradient>
<linearGradient id="paint1_linear_1580_4762" x1="1084.88" y1="2458.57" x2="1084.88" y2="-424.023" gradientUnits="userSpaceOnUse">
<stop stop-color="#0169E1"/>
<stop offset="1" stop-color="#0F8EF1"/>
</linearGradient>
<clipPath id="clip0_1580_4762">
<rect width="22.0395" height="25" fill="white" transform="translate(0 6)"/>
</clipPath>
</defs>
</svg>
