<svg width="32" height="32" viewBox="0 0 32 32" fill="none" xmlns="http://www.w3.org/2000/svg">
<path d="M16.2949 15.972C16.2949 20.2029 12.928 23.5939 8.82243 23.5939C4.71682 23.5939 1.35 20.2029 1.35 15.972C1.35 11.741 4.71682 8.35 8.82243 8.35C12.928 8.35 16.2949 11.741 16.2949 15.972Z" stroke="white" stroke-width="2.7"/>
<path d="M25.5658 16.1215C25.5658 18.3077 25.1121 20.2201 24.4425 21.5363C23.7351 22.9266 23.0024 23.2949 22.5794 23.2949C22.1564 23.2949 21.4236 22.9266 20.7163 21.5363C20.0467 20.2201 19.5929 18.3077 19.5929 16.1215C19.5929 13.9353 20.0467 12.0229 20.7163 10.7067C21.4236 9.3164 22.1564 8.94814 22.5794 8.94814C23.0024 8.94814 23.7351 9.3164 24.4425 10.7067C25.1121 12.0229 25.5658 13.9353 25.5658 16.1215Z" stroke="white" stroke-width="2.7"/>
<mask id="path-3-inside-1" fill="white">
<ellipse cx="29.4578" cy="15.9722" rx="1.64486" ry="7.47664"/>
</mask>
<path d="M28.4027 15.9722C28.4027 17.9019 28.2286 19.5673 27.984 20.6789C27.8569 21.2567 27.7414 21.5411 27.7028 21.6154C27.6818 21.6557 27.7476 21.5087 27.9505 21.32C28.1671 21.1185 28.6819 20.7489 29.4578 20.7489V26.1489C30.4609 26.1489 31.1974 25.6747 31.6282 25.274C32.0453 24.8861 32.3176 24.4453 32.4935 24.1072C32.8484 23.4248 33.0873 22.6144 33.2579 21.8391C33.6087 20.2447 33.8027 18.1719 33.8027 15.9722H28.4027ZM29.4578 20.7489C30.2338 20.7489 30.7486 21.1185 30.9652 21.32C31.1681 21.5087 31.2339 21.6557 31.2129 21.6154C31.1743 21.5411 31.0588 21.2567 30.9317 20.6789C30.6871 19.5673 30.513 17.9019 30.513 15.9722H25.113C25.113 18.1719 25.307 20.2447 25.6578 21.8391C25.8284 22.6144 26.0673 23.4248 26.4222 24.1072C26.5981 24.4453 26.8704 24.8861 27.2875 25.274C27.7183 25.6747 28.4548 26.1489 29.4578 26.1489V20.7489ZM30.513 15.9722C30.513 14.0426 30.6871 12.3772 30.9317 11.2656C31.0588 10.6878 31.1743 10.4033 31.2129 10.3291C31.2339 10.2888 31.1681 10.4358 30.9652 10.6245C30.7486 10.826 30.2338 11.1956 29.4578 11.1956V5.79561C28.4548 5.79561 27.7183 6.26979 27.2875 6.6705C26.8704 7.05842 26.5981 7.49921 26.4222 7.83724C26.0673 8.51964 25.8284 9.33009 25.6578 10.1053C25.307 11.6997 25.113 13.7726 25.113 15.9722H30.513ZM29.4578 11.1956C28.6819 11.1956 28.1671 10.826 27.9505 10.6245C27.7476 10.4358 27.6818 10.2888 27.7028 10.3291C27.7414 10.4033 27.8569 10.6878 27.984 11.2656C28.2286 12.3772 28.4027 14.0426 28.4027 15.9722H33.8027C33.8027 13.7726 33.6087 11.6997 33.2579 10.1053C33.0873 9.33009 32.8484 8.51964 32.4935 7.83724C32.3176 7.49921 32.0453 7.05842 31.6282 6.6705C31.1974 6.26979 30.4609 5.79561 29.4578 5.79561V11.1956Z" fill="white" mask="url(#path-3-inside-1)"/>
</svg>
