<svg width="184" height="39" viewBox="0 0 184 39" fill="none" xmlns="http://www.w3.org/2000/svg">
<path fill-rule="evenodd" clip-rule="evenodd" d="M43.8233 14.7339C43.5333 15.8189 42.9714 16.6152 42.1373 17.1237C41.3023 17.632 40.1312 17.8867 38.6206 17.8867H33.8213L35.5061 11.5815H40.3053C41.8148 11.5815 42.8511 11.8357 43.4141 12.3441C43.9761 12.853 44.1132 13.6495 43.8233 14.7339ZM48.7933 14.598C49.4037 12.3165 49.1507 10.5648 48.0347 9.34449C46.9186 8.1242 44.963 7.5144 42.1699 7.5144H31.4565L25.0085 31.6477H30.2135L32.8132 21.9196H36.2265C36.9919 21.9196 37.5944 22.0441 38.0351 22.2927C38.4767 22.5418 38.7352 22.9825 38.815 23.6144L39.7434 31.6477H45.3203L44.4156 24.1572C44.2312 22.4849 43.4682 21.5019 42.1272 21.2083C43.8367 20.7117 45.2686 19.886 46.4218 18.7334C47.5739 17.5814 48.3651 16.2032 48.7933 14.598Z" fill="#072654"/>
<path fill-rule="evenodd" clip-rule="evenodd" d="M61.4435 23.0045C61.0086 24.6311 60.3386 25.8745 59.4339 26.7329C58.5281 27.5918 57.4445 28.0208 56.1835 28.0208C54.8977 28.0208 54.0255 27.5975 53.5658 26.7498C53.1038 25.9027 53.0881 24.6773 53.5175 23.0721C53.9457 21.4681 54.629 20.214 55.5698 19.3093C56.5093 18.4064 57.6097 17.9539 58.8718 17.9539C60.1329 17.9539 60.9871 18.3896 61.4299 19.2593C61.8729 20.1289 61.8784 21.3773 61.4435 23.0045ZM63.725 14.4627L63.0732 16.9033C62.791 16.0218 62.2459 15.3217 61.4389 14.8021C60.6309 14.2824 59.6295 14.022 58.4357 14.022C56.9713 14.022 55.563 14.4008 54.2121 15.1577C52.8611 15.9152 51.6798 16.9828 50.6694 18.3608C49.659 19.7394 48.9183 21.3097 48.4473 23.0721C47.9764 24.8352 47.882 26.3886 48.1652 27.7327C48.4485 29.0776 49.0621 30.1113 50.0073 30.8344C50.9515 31.5581 52.1676 31.9188 53.6546 31.9188C54.8482 31.9188 55.9857 31.6703 57.0647 31.1731C58.1436 30.6766 59.0596 29.9868 59.8137 29.1057L59.1338 31.6477H64.169L68.7604 14.4627H63.725Z" fill="#072654"/>
<path fill-rule="evenodd" clip-rule="evenodd" d="M86.8659 14.4626H72.2322L71.2094 18.2931H79.7255L68.4659 28.0545L67.5049 31.6476H82.6118L83.6356 27.8178H74.5116L85.9421 17.9199L86.8659 14.4626Z" fill="#072654"/>
<path fill-rule="evenodd" clip-rule="evenodd" d="M99.7495 22.9707C99.2966 24.6649 98.6256 25.9314 97.7377 26.7673C96.8498 27.6031 95.7753 28.0207 94.5143 28.0207C91.8775 28.0207 91.0098 26.3383 91.909 22.9707C92.3563 21.2983 93.0306 20.0387 93.9321 19.1916C94.8345 18.3439 95.9271 17.92 97.2117 17.92C98.4727 17.92 99.3236 18.3439 99.762 19.1916C100.2 20.0387 100.197 21.2983 99.7495 22.9707ZM102.695 15.1064C101.537 14.3838 100.056 14.022 98.2536 14.022C96.4283 14.022 94.7379 14.3838 93.1813 15.1064C91.6247 15.8301 90.2994 16.8695 89.2059 18.2249C88.1111 19.581 87.3222 21.1626 86.8389 22.9707C86.3555 24.7788 86.2994 26.3598 86.6703 27.7158C87.0401 29.0719 87.8088 30.1113 88.98 30.8344C90.15 31.5581 91.647 31.9188 93.4724 31.9188C95.2751 31.9188 96.9486 31.5581 98.4942 30.8344C100.037 30.1113 101.358 29.0719 102.453 27.7158C103.546 26.3598 104.335 24.7788 104.819 22.9707C105.302 21.1626 105.358 19.581 104.988 18.2249C104.617 16.8695 103.853 15.8301 102.695 15.1064Z" fill="#072654"/>
<path fill-rule="evenodd" clip-rule="evenodd" d="M155.361 23.0045C154.926 24.6311 154.256 25.8745 153.351 26.7329C152.447 27.5918 151.361 28.0208 150.1 28.0208C148.816 28.0208 147.943 27.5975 147.483 26.7498C147.021 25.9027 147.006 24.6773 147.435 23.0721C147.863 21.4681 148.547 20.214 149.487 19.3093C150.427 18.4064 151.527 17.9539 152.789 17.9539C154.05 17.9539 154.905 18.3896 155.347 19.2593C155.79 20.1289 155.796 21.3773 155.361 23.0045ZM157.643 14.4627L156.991 16.9033C156.709 16.0218 156.163 15.3217 155.356 14.8021C154.548 14.2824 153.547 14.022 152.353 14.022C150.889 14.022 149.48 14.4008 148.13 15.1577C146.779 15.9152 145.597 16.9828 144.587 18.3608C143.576 19.7394 142.836 21.3097 142.365 23.0721C141.894 24.8352 141.801 26.3886 142.083 27.7327C142.366 29.0776 142.979 30.1113 143.925 30.8344C144.869 31.5581 146.085 31.9188 147.572 31.9188C148.766 31.9188 149.903 31.6703 150.982 31.1731C152.061 30.6766 152.977 29.9868 153.731 29.1057L153.051 31.6477H158.086L162.678 14.4627H157.643Z" fill="#072654"/>
<path fill-rule="evenodd" clip-rule="evenodd" d="M120.648 19.0725L121.932 14.3949C121.496 14.1689 120.918 14.0557 120.197 14.0557C119.048 14.0557 117.94 14.3436 116.874 14.9202C115.958 15.4148 115.178 16.1091 114.519 16.9791L115.187 14.4602L113.729 14.4626H110.153L105.527 31.6475H110.631L113.031 22.6656C113.381 21.3552 114.008 20.3327 114.915 19.5983C115.82 18.8639 116.949 18.4964 118.301 18.4964C119.135 18.4964 119.916 18.6886 120.648 19.0725Z" fill="#072654"/>
<path fill-rule="evenodd" clip-rule="evenodd" d="M134.858 23.0718C134.428 24.677 133.763 25.9023 132.861 26.7494C131.958 27.5971 130.877 28.0204 129.616 28.0204C128.353 28.0204 127.494 27.5915 127.036 26.7325C126.578 25.8741 126.566 24.6313 127.001 23.0041C127.436 21.377 128.113 20.1285 129.032 19.2588C129.952 18.3891 131.043 17.9534 132.305 17.9534C133.544 17.9534 134.386 18.4061 134.832 19.3096C135.277 20.2136 135.286 21.4682 134.858 23.0718ZM138.425 15.1573C137.478 14.4004 136.271 14.0222 134.808 14.0222C133.523 14.0222 132.301 14.3158 131.143 14.9032C129.982 15.4916 129.041 16.2925 128.32 17.3098L128.336 17.1971L129.193 14.46H128.207V14.4624H124.21L122.942 19.2146C122.927 19.2698 122.915 19.3214 122.9 19.3772L117.666 38.9689H122.77L125.405 29.106C125.664 29.9863 126.201 30.6762 127.015 31.1728C127.828 31.6699 128.832 31.9184 130.027 31.9184C131.514 31.9184 132.928 31.5577 134.271 30.834C135.613 30.1114 136.779 29.0772 137.769 27.7324C138.759 26.3887 139.489 24.8347 139.96 23.0718C140.431 21.3093 140.529 19.7391 140.256 18.3605C139.983 16.9823 139.371 15.9148 138.425 15.1573Z" fill="#072654"/>
<path fill-rule="evenodd" clip-rule="evenodd" d="M183.812 14.4674L183.816 14.4626H180.724C180.625 14.4626 180.538 14.4655 180.448 14.4674H178.843L178.023 15.6139C177.957 15.7002 177.891 15.7872 177.821 15.888L177.731 16.0208L171.211 25.1287L169.859 14.4626H164.518L167.222 30.6703L161.249 38.9691H161.42H164.469H166.571L168.018 36.9126C168.061 36.8513 168.097 36.8011 168.143 36.7363L169.832 34.3344L169.881 34.2656L177.439 23.5193L183.807 14.4745L183.816 14.4674H183.812Z" fill="#072654"/>
<path fill-rule="evenodd" clip-rule="evenodd" d="M11.8921 10.2791L10.3643 15.9183L19.1068 10.2474L13.3895 31.6423L19.1954 31.6477L27.6414 0.046875L11.8921 10.2791Z" fill="#3395FF"/>
<path fill-rule="evenodd" clip-rule="evenodd" d="M2.48272 22.6536L0.0791016 31.6477H11.98C11.98 31.6477 16.8477 13.3553 16.8491 13.3501C16.8445 13.353 2.48272 22.6536 2.48272 22.6536Z" fill="#072654"/>
</svg>
