<svg width="28" height="32" viewBox="0 0 28 32" fill="none" xmlns="http://www.w3.org/2000/svg">
<path d="M23.4631 3.82104H25.2096V4.69604H23.4631V3.82104Z" fill="#66757F"/>
<path d="M0 10.821V28.321C0 30.2539 1.56712 31.821 3.5 31.821H24.5C26.4329 31.821 28 30.2539 28 28.321V10.821H0Z" fill="#CCD6DD"/>
<path d="M24.5 3.82104H3.5C1.56712 3.82104 0 5.38817 0 7.32104V11.696H28V7.32104C28 5.38817 26.4329 3.82104 24.5 3.82104Z" fill="#DD2E44"/>
<path d="M5.98151 7.96061C5.36726 7.96061 4.86938 7.37786 4.86938 6.65773C4.86938 5.93848 5.36726 5.35486 5.98151 5.35486C6.59488 5.35486 7.09276 5.93848 7.09276 6.65773C7.09276 7.37698 6.59488 7.96061 5.98151 7.96061ZM11.2315 7.96061C10.6173 7.96061 10.1194 7.37786 10.1194 6.65773C10.1194 5.93848 10.6173 5.35486 11.2315 5.35486C11.8449 5.35486 12.3428 5.93848 12.3428 6.65773C12.3428 7.37698 11.8449 7.96061 11.2315 7.96061ZM16.4815 7.96061C15.8673 7.96061 15.3694 7.37786 15.3694 6.65773C15.3694 5.93848 15.8673 5.35486 16.4815 5.35486C17.0949 5.35486 17.5936 5.93848 17.5936 6.65773C17.5928 7.37698 17.0949 7.96061 16.4815 7.96061ZM21.7315 7.96061C21.1173 7.96061 20.6194 7.37786 20.6194 6.65773C20.6194 5.93848 21.1173 5.35486 21.7315 5.35486C22.3449 5.35486 22.8436 5.93848 22.8436 6.65773C22.8428 7.37698 22.3449 7.96061 21.7315 7.96061Z" fill="#292F33"/>
<path d="M22.1506 0.477661C21.0333 0.477661 20.0655 1.17941 19.5309 2.20141C19.0006 1.20129 18.0285 0.477661 16.9006 0.477661C15.7833 0.477661 14.8155 1.17941 14.2809 2.20141C13.7506 1.20129 12.7785 0.477661 11.6506 0.477661C10.5333 0.477661 9.56551 1.17941 9.03088 2.20141C8.50063 1.20129 7.52851 0.477661 6.40063 0.477661C4.70838 0.477661 3.33813 2.06929 3.33813 3.98204C3.33813 5.60429 4.25251 6.93166 5.58601 7.41729C6.25013 7.65791 6.65701 7.02616 6.60013 6.51954C6.55201 6.09954 6.27288 5.82566 5.96226 5.62879C5.53788 5.36016 5.08726 4.74679 5.08726 3.98641C5.08726 3.02041 5.67438 2.15329 6.39976 2.15329C7.12513 2.15329 7.71226 2.94516 7.71226 3.82016H8.60126C8.59863 3.87441 8.58726 3.92604 8.58726 3.98116C8.58726 5.60341 9.50164 6.93079 10.8351 7.41641C11.4993 7.65704 11.9061 7.02529 11.8493 6.51866C11.8011 6.09954 11.522 5.82566 11.2114 5.62879C10.787 5.36016 10.3364 4.74679 10.3364 3.98641C10.3364 3.02041 10.9235 2.15329 11.6489 2.15329C12.3743 2.15329 12.9631 2.94604 12.9631 3.82104H13.8521C13.8495 3.87529 13.8381 3.92691 13.8381 3.98204C13.8381 5.60429 14.7525 6.93166 16.086 7.41729C16.7501 7.65791 17.157 7.02616 17.1001 6.51954C17.052 6.10041 16.7729 5.82654 16.4623 5.62966C16.0379 5.36104 15.5873 4.74766 15.5873 3.98729C15.5873 3.02129 16.1744 2.15416 16.8998 2.15416C17.6251 2.15416 18.2131 2.94604 18.2131 3.82104H19.1021C19.0995 3.87529 19.0881 3.92691 19.0881 3.98204C19.0881 5.60429 20.0025 6.93166 21.336 7.41729C22.0001 7.65791 22.407 7.02616 22.3501 6.51954C22.302 6.10041 22.0229 5.82654 21.7123 5.62966C21.2879 5.36104 20.8373 4.74766 20.8373 3.98729C20.8373 3.02129 21.4244 2.15416 22.1498 2.15416C22.8751 2.15416 23.4631 2.94604 23.4631 3.82104H25.2096C25.1913 2.07104 23.8306 0.477661 22.1506 0.477661Z" fill="#66757F"/>
<path d="M7.875 13.446H11.375V16.946H7.875V13.446ZM12.25 13.446H15.75V16.946H12.25V13.446ZM16.625 13.446H20.125V16.946H16.625V13.446ZM21 13.446H24.5V16.946H21V13.446ZM3.5 17.821H7V21.321H3.5V17.821ZM7.875 17.821H11.375V21.321H7.875V17.821ZM12.25 17.821H15.75V21.321H12.25V17.821ZM16.625 17.821H20.125V21.321H16.625V17.821ZM21 17.821H24.5V21.321H21V17.821ZM3.5 22.196H7V25.696H3.5V22.196ZM7.875 22.196H11.375V25.696H7.875V22.196ZM12.25 22.196H15.75V25.696H12.25V22.196ZM16.625 22.196H20.125V25.696H16.625V22.196ZM21 22.196H24.5V25.696H21V22.196ZM3.5 26.571H7V30.071H3.5V26.571ZM7.875 26.571H11.375V30.071H7.875V26.571ZM12.25 26.571H15.75V30.071H12.25V26.571Z" fill="white"/>
</svg>
