<svg width="32" height="32" viewBox="0 0 32 32" fill="none" xmlns="http://www.w3.org/2000/svg">
<g id="24 / symbols / twitter">
<path id="icon" fill-rule="evenodd" clip-rule="evenodd" d="M28.1593 6.01099L30.0457 6.23128L29.1977 7.93062C28.7842 8.75933 28.3703 9.58803 27.956 10.4167C27.9069 10.5922 27.8205 10.7461 27.6928 10.9465C27.6395 11.0302 27.4572 11.2964 27.4487 11.3092C27.4005 11.3814 27.3649 11.4383 27.3393 11.4839V14.6687C27.3393 22.818 19.4527 27.9965 12.0047 27.9965C10.4806 27.9965 9.32272 27.9235 7.99682 27.6342C5.81483 27.158 4.19099 26.2115 3.44792 24.5573L2.68291 22.8542L4.54208 22.6832C6.22397 22.5285 7.68221 22.2081 8.80207 21.7791C5.72765 21.2846 4.00476 19.9343 4.00476 17.3985V16.0651H5.33809C5.63104 16.0651 5.8952 16.0414 6.13135 15.9977C3.82396 14.6182 2.66825 12.405 2.66825 9.33532C2.668 9.20449 2.668 9.20449 2.66722 9.06459C2.65855 7.51733 2.74166 6.69058 3.16522 5.63542C3.43668 4.95917 3.82907 4.33314 4.35716 3.75952L5.36331 2.66663L6.34153 3.78458C9.56521 7.46877 12.7519 9.7039 16.0055 9.97425C16.0194 6.57469 18.5887 4.00199 22.0057 4.00199C23.5987 4.00199 25.0437 4.60664 26.1793 5.69693C26.8008 5.82464 27.4608 5.92941 28.1593 6.01099ZM25.2115 8.21596L24.8027 8.1234L24.5204 7.81364C23.8379 7.06467 22.9812 6.66864 22.0057 6.66864C20.0551 6.66864 18.6721 8.05848 18.6721 10.002C18.6721 10.3196 18.6639 10.5192 18.6243 10.7815C18.4665 11.8282 17.8794 12.6686 16.6721 12.6686C12.6747 12.6686 9.06843 10.5272 5.55181 6.86965C5.37052 7.42075 5.32788 7.98724 5.33384 9.04963C5.33464 9.19172 5.33464 9.19172 5.33492 9.3353C5.33492 12.066 6.4412 13.5596 9.06058 14.3922L9.99003 14.6876V15.6629C9.99003 16.8455 8.86958 17.9588 7.2302 18.4574C7.98171 19.0276 9.51862 19.3353 12.0051 19.3353H13.3385V20.6686C13.3385 22.579 11.1434 24.0747 7.82762 24.8557C8.909 25.1871 10.3488 25.3298 12.0047 25.3298C18.1572 25.3298 24.6726 21.0517 24.6726 14.6686V11.3353C24.6726 10.9436 24.7862 10.6036 24.9748 10.2501C25.0486 10.1118 25.1298 9.98007 25.23 9.82977C25.2489 9.80148 25.3189 9.69896 25.3744 9.617L25.4801 9.40566C25.6514 9.0632 25.8225 8.72075 25.9936 8.3783C25.7277 8.32793 25.467 8.27382 25.2115 8.21596Z" fill="white"/>
</g>
</svg>
