<svg width="32" height="32" viewBox="0 0 32 32" fill="none" xmlns="http://www.w3.org/2000/svg">
<g clip-path="url(#clip0)">
<path d="M31.2746 5.92386C30.7719 6.14683 30.2551 6.33501 29.7269 6.48778C30.3522 5.78068 30.8289 4.94868 31.1199 4.03823C31.1851 3.83415 31.1175 3.61077 30.9498 3.4773C30.7822 3.34373 30.5494 3.32773 30.365 3.43704C29.2434 4.10223 28.0334 4.58027 26.7647 4.85981C25.4866 3.61098 23.7508 2.90027 21.9563 2.90027C18.1684 2.90027 15.0867 5.98187 15.0867 9.76964C15.0867 10.068 15.1056 10.3646 15.143 10.6572C10.4426 10.2445 6.07276 7.93418 3.07198 4.25325C2.96504 4.12205 2.80029 4.05134 2.63162 4.06486C2.46285 4.07808 2.31121 4.17325 2.22594 4.31952C1.61733 5.36386 1.29557 6.55828 1.29557 7.77356C1.29557 9.42879 1.88654 10.9993 2.93046 12.2264C2.61304 12.1165 2.30502 11.9791 2.01103 11.8159C1.8532 11.728 1.66058 11.7294 1.50378 11.8193C1.34687 11.9092 1.2485 12.0746 1.24437 12.2553C1.24365 12.2858 1.24365 12.3162 1.24365 12.3471C1.24365 14.8178 2.5734 17.0422 4.60644 18.2546C4.43178 18.2372 4.25722 18.2119 4.0838 18.1787C3.90502 18.1446 3.72117 18.2072 3.6006 18.3436C3.47983 18.4798 3.43988 18.6698 3.49552 18.8432C4.24803 21.1926 6.18548 22.9207 8.52767 23.4476C6.58507 24.6643 4.36354 25.3016 2.03147 25.3016C1.54486 25.3016 1.05547 25.273 0.5765 25.2164C0.338565 25.1881 0.111055 25.3286 0.0300229 25.5548C-0.0510093 25.7812 0.0348745 26.0336 0.2373 26.1634C3.23322 28.0843 6.69738 29.0996 10.2551 29.0996C17.249 29.0996 21.6242 25.8015 24.0629 23.0348C27.104 19.5849 28.8481 15.0185 28.8481 10.5066C28.8481 10.3181 28.8452 10.1277 28.8394 9.938C30.0392 9.03405 31.0722 7.94006 31.9128 6.68267C32.0404 6.4917 32.0266 6.23932 31.8787 6.06352C31.731 5.88763 31.4848 5.83075 31.2746 5.92386Z" fill="white"/>
</g>
<defs>
<clipPath id="clip0">
<rect width="32" height="32" fill="white"/>
</clipPath>
</defs>
</svg>
