<svg width="59" height="59" viewBox="0 0 59 59" fill="none" xmlns="http://www.w3.org/2000/svg">
<path d="M7.97599 14.9395C9.51835 13.8615 11.8434 14.0682 13.2282 15.2119L11.6399 12.9032C10.3617 11.0803 10.8195 9.10807 12.6441 7.82824C14.4687 6.55334 19.6388 9.98098 19.6388 9.98098C18.3492 8.14 18.5903 5.80677 20.4313 4.51546C22.2723 3.22907 24.8123 3.67373 26.1019 5.51799L43.1991 29.6706L41.0201 50.796L22.8351 44.1638L6.97346 20.6462C5.67231 18.7937 6.12189 16.239 7.97599 14.9395Z" fill="#EF9645"/>
<path d="M4.42193 28.3764C4.42193 28.3764 2.56454 25.669 5.2735 23.8133C7.97919 21.9575 9.83494 24.6632 9.83494 24.6632L18.4508 37.2285C18.7478 36.733 19.0727 36.244 19.4353 35.7616L7.4771 18.3248C7.4771 18.3248 5.62135 15.6191 8.32868 13.7634C11.0344 11.9076 12.8901 14.6133 12.8901 14.6133L24.1378 31.0164C24.5562 30.6751 24.9845 30.3322 25.4258 29.9958L12.3864 10.9773C12.3864 10.9773 10.5306 8.27161 13.238 6.41586C15.9436 4.56011 17.7994 7.26579 17.7994 7.26579L30.8389 26.2811C31.318 25.9874 31.7922 25.733 32.268 25.4639L20.0801 7.69076C20.0801 7.69076 18.2244 4.98508 20.93 3.12933C23.6357 1.27358 25.4915 3.97927 25.4915 3.97927L38.3783 22.773L40.3375 25.6313C32.2188 31.2002 31.446 41.6767 36.0845 48.4417C37.0116 49.7954 38.3652 48.8684 38.3652 48.8684C32.798 40.748 34.4979 31.6235 42.6182 26.0563L40.2243 14.0751C40.2243 14.0751 39.33 10.9182 42.4853 10.0223C45.6422 9.12811 46.5381 12.285 46.5381 12.285L49.3028 20.4956C50.3989 23.7509 51.5655 26.9948 53.1095 30.0631C57.4691 38.7266 54.8651 49.4935 46.6447 55.1329C37.6777 61.281 25.4193 58.9954 19.2696 50.03L4.42193 28.3764Z" fill="#FFDC5D"/>
<path d="M19.6896 52.5058C13.1264 52.5058 6.49425 45.8737 6.49425 39.3105C6.49425 38.4031 5.82973 37.6697 4.92236 37.6697C4.015 37.6697 3.21265 38.4031 3.21265 39.3105C3.21265 49.1553 9.84477 55.7874 19.6896 55.7874C20.597 55.7874 21.3304 54.9851 21.3304 54.0777C21.3304 53.1703 20.597 52.5058 19.6896 52.5058Z" fill="#5DADEC"/>
<path d="M11.4856 55.7186C6.56321 55.7186 3.28161 52.437 3.28161 47.5146C3.28161 46.6072 2.54817 45.8738 1.6408 45.8738C0.733439 45.8738 0 46.6072 0 47.5146C0 54.0778 4.92241 59.0002 11.4856 59.0002C12.393 59.0002 13.1264 58.2668 13.1264 57.3594C13.1264 56.452 12.393 55.7186 11.4856 55.7186ZM39.3793 3.21289C38.4736 3.21289 37.7385 3.94797 37.7385 4.85369C37.7385 5.75942 38.4736 6.4945 39.3793 6.4945C45.9425 6.4945 52.5057 12.3833 52.5057 19.6209C52.5057 20.5266 53.2408 21.2617 54.1465 21.2617C55.0522 21.2617 55.7873 20.5266 55.7873 19.6209C55.7873 10.5735 49.2241 3.21289 39.3793 3.21289Z" fill="#5DADEC"/>
<path d="M47.5833 0C46.6776 0 45.9425 0.666166 45.9425 1.57189C45.9425 2.47761 46.6776 3.28161 47.5833 3.28161C52.5057 3.28161 55.7184 6.93239 55.7184 11.4167C55.7184 12.3224 56.5208 13.0575 57.4281 13.0575C58.3355 13.0575 59 12.3224 59 11.4167C59 5.12095 54.1465 0 47.5833 0Z" fill="#5DADEC"/>
</svg>
